<svg width="394" height="102" viewBox="0 0 394 102" fill="none" xmlns="http://www.w3.org/2000/svg">
<g opacity="0.5" filter="url(#filter0_f_519_10513)">
<path d="M7.53027 8.676V14.124H9.28827V15H4.45227V14.124H6.37827V9.552H4.51227V8.676H7.53027ZM6.67227 5.652C6.91227 5.652 7.10427 5.726 7.24827 5.874C7.39627 6.022 7.47027 6.202 7.47027 6.414C7.47027 6.634 7.39627 6.82 7.24827 6.972C7.10427 7.12 6.91227 7.194 6.67227 7.194C6.43627 7.194 6.24427 7.12 6.09627 6.972C5.95227 6.82 5.88027 6.634 5.88027 6.414C5.88027 6.202 5.95227 6.022 6.09627 5.874C6.24427 5.726 6.43627 5.652 6.67227 5.652ZM15.6676 8.526C15.8876 8.526 16.0916 8.574 16.2796 8.67C16.4676 8.766 16.6196 8.942 16.7356 9.198C16.8516 9.45 16.9096 9.816 16.9096 10.296V15H15.8596V10.464C15.8596 10.096 15.8356 9.832 15.7876 9.672C15.7436 9.508 15.6156 9.426 15.4036 9.426C15.2276 9.426 15.0536 9.48 14.8816 9.588C14.7096 9.696 14.5396 9.876 14.3716 10.128V15H13.3636V10.464C13.3636 10.096 13.3396 9.832 13.2916 9.672C13.2476 9.508 13.1196 9.426 12.9076 9.426C12.7276 9.426 12.5516 9.48 12.3796 9.588C12.2116 9.696 12.0436 9.876 11.8756 10.128V15H10.8256V8.676H11.7136L11.7856 9.384C11.9616 9.136 12.1556 8.932 12.3676 8.772C12.5836 8.608 12.8456 8.526 13.1536 8.526C13.3936 8.526 13.6156 8.584 13.8196 8.7C14.0276 8.816 14.1796 9.032 14.2756 9.348C14.4476 9.104 14.6436 8.906 14.8636 8.754C15.0836 8.602 15.3516 8.526 15.6676 8.526ZM21.5489 8.526C22.1089 8.526 22.5569 8.664 22.8929 8.94C23.2289 9.212 23.4709 9.596 23.6189 10.092C23.7669 10.584 23.8409 11.164 23.8409 11.832C23.8409 12.472 23.7509 13.042 23.5709 13.542C23.3909 14.042 23.1209 14.436 22.7609 14.724C22.4009 15.008 21.9489 15.15 21.4049 15.15C20.7209 15.15 20.1729 14.91 19.7609 14.43V17.424L18.6089 17.562V8.676H19.5989L19.6829 9.528C19.9189 9.204 20.1969 8.956 20.5169 8.784C20.8369 8.612 21.1809 8.526 21.5489 8.526ZM21.2549 9.432C20.9269 9.432 20.6369 9.532 20.3849 9.732C20.1329 9.928 19.9249 10.152 19.7609 10.404V13.464C19.9209 13.7 20.1169 13.886 20.3489 14.022C20.5809 14.154 20.8389 14.22 21.1229 14.22C21.6189 14.22 21.9929 14.028 22.2449 13.644C22.4969 13.256 22.6229 12.652 22.6229 11.832C22.6229 11.284 22.5729 10.834 22.4729 10.482C22.3729 10.126 22.2209 9.862 22.0169 9.69C21.8169 9.518 21.5629 9.432 21.2549 9.432ZM28.2702 8.526C28.8742 8.526 29.3802 8.662 29.7882 8.934C30.2002 9.206 30.5102 9.59 30.7182 10.086C30.9302 10.578 31.0362 11.16 31.0362 11.832C31.0362 12.484 30.9282 13.06 30.7122 13.56C30.5002 14.056 30.1882 14.446 29.7762 14.73C29.3642 15.01 28.8582 15.15 28.2582 15.15C27.6582 15.15 27.1502 15.014 26.7342 14.742C26.3222 14.47 26.0102 14.086 25.7982 13.59C25.5862 13.094 25.4802 12.512 25.4802 11.844C25.4802 11.188 25.5862 10.612 25.7982 10.116C26.0142 9.616 26.3302 9.226 26.7462 8.946C27.1622 8.666 27.6702 8.526 28.2702 8.526ZM28.2702 9.444C27.7502 9.444 27.3582 9.64 27.0942 10.032C26.8302 10.42 26.6982 11.024 26.6982 11.844C26.6982 12.656 26.8282 13.258 27.0882 13.65C27.3482 14.038 27.7382 14.232 28.2582 14.232C28.7782 14.232 29.1682 14.038 29.4282 13.65C29.6882 13.258 29.8182 12.652 29.8182 11.832C29.8182 11.016 29.6882 10.414 29.4282 10.026C29.1722 9.638 28.7862 9.444 28.2702 9.444ZM33.0595 15V14.148H34.0195V9.528H33.0595V8.676H34.9015L35.1115 10.158C35.3515 9.634 35.6455 9.232 35.9935 8.952C36.3455 8.668 36.8015 8.526 37.3615 8.526C37.5455 8.526 37.7075 8.54 37.8475 8.568C37.9915 8.596 38.1375 8.632 38.2855 8.676L37.9435 9.684C37.8115 9.644 37.6915 9.616 37.5835 9.6C37.4755 9.584 37.3515 9.576 37.2115 9.576C36.7355 9.576 36.3275 9.748 35.9875 10.092C35.6475 10.436 35.3755 10.942 35.1715 11.61V14.148H36.4555V15H33.0595ZM37.2175 10.896V9.444L37.3495 8.676H38.2855L38.1055 10.896H37.2175ZM45.3308 14.676C45.1068 14.82 44.8368 14.934 44.5208 15.018C44.2048 15.106 43.8888 15.15 43.5728 15.15C42.8688 15.15 42.3288 14.966 41.9528 14.598C41.5808 14.23 41.3948 13.752 41.3948 13.164V9.54H39.9608V8.676H41.3948V7.248L42.5468 7.11V8.676H44.7068L44.5748 9.54H42.5468V13.152C42.5468 13.5 42.6348 13.762 42.8108 13.938C42.9908 14.114 43.2888 14.202 43.7048 14.202C43.9408 14.202 44.1568 14.174 44.3528 14.118C44.5488 14.062 44.7308 13.99 44.8988 13.902L45.3308 14.676ZM278.588 9.288L278.39 6.132H279.74L279.548 9.288H278.588ZM280.64 9.288L280.448 6.132H281.798L281.6 9.288H280.64ZM287.049 14.232C287.509 14.232 287.871 14.148 288.135 13.98C288.403 13.812 288.537 13.584 288.537 13.296C288.537 13.112 288.501 12.954 288.429 12.822C288.361 12.69 288.217 12.57 287.997 12.462C287.781 12.354 287.453 12.244 287.013 12.132C286.585 12.024 286.211 11.898 285.891 11.754C285.571 11.61 285.323 11.422 285.147 11.19C284.975 10.958 284.889 10.658 284.889 10.29C284.889 9.93 284.989 9.618 285.189 9.354C285.393 9.09 285.679 8.886 286.047 8.742C286.419 8.598 286.851 8.526 287.343 8.526C287.863 8.526 288.315 8.596 288.699 8.736C289.087 8.872 289.415 9.04 289.683 9.24L289.191 9.99C288.947 9.826 288.679 9.692 288.387 9.588C288.099 9.484 287.759 9.432 287.367 9.432C286.899 9.432 286.565 9.504 286.365 9.648C286.169 9.788 286.071 9.974 286.071 10.206C286.071 10.378 286.119 10.522 286.215 10.638C286.315 10.75 286.485 10.854 286.725 10.95C286.965 11.046 287.297 11.152 287.721 11.268C288.133 11.38 288.493 11.512 288.801 11.664C289.109 11.816 289.347 12.016 289.515 12.264C289.687 12.508 289.773 12.83 289.773 13.23C289.773 13.682 289.643 14.05 289.383 14.334C289.123 14.614 288.785 14.82 288.369 14.952C287.957 15.084 287.517 15.15 287.049 15.15C286.473 15.15 285.977 15.066 285.561 14.898C285.149 14.73 284.803 14.524 284.523 14.28L285.159 13.548C285.407 13.752 285.691 13.918 286.011 14.046C286.331 14.17 286.677 14.232 287.049 14.232ZM297.167 14.676C296.943 14.82 296.673 14.934 296.357 15.018C296.041 15.106 295.725 15.15 295.409 15.15C294.705 15.15 294.165 14.966 293.789 14.598C293.417 14.23 293.231 13.752 293.231 13.164V9.54H291.797V8.676H293.231V7.248L294.383 7.11V8.676H296.543L296.411 9.54H294.383V13.152C294.383 13.5 294.471 13.762 294.647 13.938C294.827 14.114 295.125 14.202 295.541 14.202C295.777 14.202 295.993 14.174 296.189 14.118C296.385 14.062 296.567 13.99 296.735 13.902L297.167 14.676ZM299.286 15V14.148H300.246V9.528H299.286V8.676H301.128L301.338 10.158C301.578 9.634 301.872 9.232 302.22 8.952C302.572 8.668 303.028 8.526 303.588 8.526C303.772 8.526 303.934 8.54 304.074 8.568C304.218 8.596 304.364 8.632 304.512 8.676L304.17 9.684C304.038 9.644 303.918 9.616 303.81 9.6C303.702 9.584 303.578 9.576 303.438 9.576C302.962 9.576 302.554 9.748 302.214 10.092C301.874 10.436 301.602 10.942 301.398 11.61V14.148H302.682V15H299.286ZM303.444 10.896V9.444L303.576 8.676H304.512L304.332 10.896H303.444ZM311.083 13.548C311.083 13.8 311.123 13.984 311.203 14.1C311.283 14.212 311.409 14.296 311.581 14.352L311.311 15.144C311.023 15.108 310.773 15.022 310.561 14.886C310.349 14.75 310.191 14.542 310.087 14.262C309.859 14.554 309.571 14.776 309.223 14.928C308.875 15.076 308.497 15.15 308.089 15.15C307.453 15.15 306.951 14.97 306.583 14.61C306.215 14.25 306.031 13.776 306.031 13.188C306.031 12.528 306.287 12.022 306.799 11.67C307.315 11.318 308.055 11.142 309.019 11.142H309.937V10.662C309.937 10.226 309.807 9.916 309.547 9.732C309.291 9.548 308.933 9.456 308.473 9.456C308.265 9.456 308.017 9.482 307.729 9.534C307.441 9.586 307.135 9.668 306.811 9.78L306.517 8.94C306.909 8.792 307.283 8.686 307.639 8.622C307.999 8.558 308.335 8.526 308.647 8.526C309.463 8.526 310.073 8.712 310.477 9.084C310.881 9.452 311.083 9.958 311.083 10.602V13.548ZM308.413 14.286C308.709 14.286 308.993 14.21 309.265 14.058C309.537 13.906 309.761 13.694 309.937 13.422V11.892H309.097C308.429 11.892 307.955 12.006 307.675 12.234C307.395 12.458 307.255 12.766 307.255 13.158C307.255 13.526 307.351 13.806 307.543 13.998C307.735 14.19 308.025 14.286 308.413 14.286ZM316.557 8.526C317.117 8.526 317.565 8.664 317.901 8.94C318.237 9.212 318.479 9.596 318.627 10.092C318.775 10.584 318.849 11.164 318.849 11.832C318.849 12.472 318.759 13.042 318.579 13.542C318.399 14.042 318.129 14.436 317.769 14.724C317.409 15.008 316.957 15.15 316.413 15.15C315.729 15.15 315.181 14.91 314.769 14.43V17.424L313.617 17.562V8.676H314.607L314.691 9.528C314.927 9.204 315.205 8.956 315.525 8.784C315.845 8.612 316.189 8.526 316.557 8.526ZM316.263 9.432C315.935 9.432 315.645 9.532 315.393 9.732C315.141 9.928 314.933 10.152 314.769 10.404V13.464C314.929 13.7 315.125 13.886 315.357 14.022C315.589 14.154 315.847 14.22 316.131 14.22C316.627 14.22 317.001 14.028 317.253 13.644C317.505 13.256 317.631 12.652 317.631 11.832C317.631 11.284 317.581 10.834 317.481 10.482C317.381 10.126 317.229 9.862 317.025 9.69C316.825 9.518 316.571 9.432 316.263 9.432ZM324.124 8.676V14.124H325.882V15H321.046V14.124H322.972V9.552H321.106V8.676H324.124ZM323.266 5.652C323.506 5.652 323.698 5.726 323.842 5.874C323.99 6.022 324.064 6.202 324.064 6.414C324.064 6.634 323.99 6.82 323.842 6.972C323.698 7.12 323.506 7.194 323.266 7.194C323.03 7.194 322.838 7.12 322.69 6.972C322.546 6.82 322.474 6.634 322.474 6.414C322.474 6.202 322.546 6.022 322.69 5.874C322.838 5.726 323.03 5.652 323.266 5.652ZM328.025 12.21V11.238H332.897V12.21H328.025ZM337.417 14.232C337.877 14.232 338.239 14.148 338.503 13.98C338.771 13.812 338.905 13.584 338.905 13.296C338.905 13.112 338.869 12.954 338.797 12.822C338.729 12.69 338.585 12.57 338.365 12.462C338.149 12.354 337.821 12.244 337.381 12.132C336.953 12.024 336.579 11.898 336.259 11.754C335.939 11.61 335.691 11.422 335.515 11.19C335.343 10.958 335.257 10.658 335.257 10.29C335.257 9.93 335.357 9.618 335.557 9.354C335.761 9.09 336.047 8.886 336.415 8.742C336.787 8.598 337.219 8.526 337.711 8.526C338.231 8.526 338.683 8.596 339.067 8.736C339.455 8.872 339.783 9.04 340.051 9.24L339.559 9.99C339.315 9.826 339.047 9.692 338.755 9.588C338.467 9.484 338.127 9.432 337.735 9.432C337.267 9.432 336.933 9.504 336.733 9.648C336.537 9.788 336.439 9.974 336.439 10.206C336.439 10.378 336.487 10.522 336.583 10.638C336.683 10.75 336.853 10.854 337.093 10.95C337.333 11.046 337.665 11.152 338.089 11.268C338.501 11.38 338.861 11.512 339.169 11.664C339.477 11.816 339.715 12.016 339.883 12.264C340.055 12.508 340.141 12.83 340.141 13.23C340.141 13.682 340.011 14.05 339.751 14.334C339.491 14.614 339.153 14.82 338.737 14.952C338.325 15.084 337.885 15.15 337.417 15.15C336.841 15.15 336.345 15.066 335.929 14.898C335.517 14.73 335.171 14.524 334.891 14.28L335.527 13.548C335.775 13.752 336.059 13.918 336.379 14.046C336.699 14.17 337.045 14.232 337.417 14.232ZM346.154 5.994L347.306 6.132V15H346.292L346.196 14.19C345.972 14.51 345.708 14.75 345.404 14.91C345.1 15.07 344.768 15.15 344.408 15.15C343.864 15.15 343.414 15.012 343.058 14.736C342.706 14.456 342.444 14.068 342.272 13.572C342.1 13.076 342.014 12.5 342.014 11.844C342.014 11.204 342.112 10.636 342.308 10.14C342.508 9.64 342.792 9.246 343.16 8.958C343.532 8.67 343.98 8.526 344.504 8.526C344.852 8.526 345.162 8.588 345.434 8.712C345.706 8.832 345.946 9.01 346.154 9.246V5.994ZM344.804 9.432C344.312 9.432 343.93 9.63 343.658 10.026C343.386 10.422 343.25 11.028 343.25 11.844C343.25 12.384 343.306 12.832 343.418 13.188C343.53 13.544 343.692 13.808 343.904 13.98C344.116 14.152 344.376 14.238 344.684 14.238C345.016 14.238 345.302 14.142 345.542 13.95C345.786 13.758 345.99 13.536 346.154 13.284V10.194C345.99 9.954 345.792 9.768 345.56 9.636C345.332 9.5 345.08 9.432 344.804 9.432ZM355.011 8.676L352.287 11.514L355.311 15H353.853L350.907 11.544L353.589 8.676H355.011ZM350.799 5.994V15H349.647V6.132L350.799 5.994ZM356.807 12.21V11.238H361.679V12.21H356.807ZM368.232 8.676V13.848C368.232 14.588 368.07 15.204 367.746 15.696C367.426 16.192 366.96 16.588 366.348 16.884C365.736 17.184 364.994 17.41 364.122 17.562L363.936 16.674C364.56 16.562 365.108 16.402 365.58 16.194C366.052 15.986 366.42 15.698 366.684 15.33C366.948 14.966 367.08 14.498 367.08 13.926V9.552H364.506V8.676H368.232ZM367.242 5.652C367.482 5.652 367.676 5.726 367.824 5.874C367.972 6.022 368.046 6.202 368.046 6.414C368.046 6.634 367.972 6.82 367.824 6.972C367.676 7.12 367.482 7.194 367.242 7.194C367.01 7.194 366.82 7.12 366.672 6.972C366.528 6.82 366.456 6.634 366.456 6.414C366.456 6.202 366.528 6.022 366.672 5.874C366.82 5.726 367.01 5.652 367.242 5.652ZM373.393 14.232C373.853 14.232 374.215 14.148 374.479 13.98C374.747 13.812 374.881 13.584 374.881 13.296C374.881 13.112 374.845 12.954 374.773 12.822C374.705 12.69 374.561 12.57 374.341 12.462C374.125 12.354 373.797 12.244 373.357 12.132C372.929 12.024 372.555 11.898 372.235 11.754C371.915 11.61 371.667 11.422 371.491 11.19C371.319 10.958 371.233 10.658 371.233 10.29C371.233 9.93 371.333 9.618 371.533 9.354C371.737 9.09 372.023 8.886 372.391 8.742C372.763 8.598 373.195 8.526 373.687 8.526C374.207 8.526 374.659 8.596 375.043 8.736C375.431 8.872 375.759 9.04 376.027 9.24L375.535 9.99C375.291 9.826 375.023 9.692 374.731 9.588C374.443 9.484 374.103 9.432 373.711 9.432C373.243 9.432 372.909 9.504 372.709 9.648C372.513 9.788 372.415 9.974 372.415 10.206C372.415 10.378 372.463 10.522 372.559 10.638C372.659 10.75 372.829 10.854 373.069 10.95C373.309 11.046 373.641 11.152 374.065 11.268C374.477 11.38 374.837 11.512 375.145 11.664C375.453 11.816 375.691 12.016 375.859 12.264C376.031 12.508 376.117 12.83 376.117 13.23C376.117 13.682 375.987 14.05 375.727 14.334C375.467 14.614 375.129 14.82 374.713 14.952C374.301 15.084 373.861 15.15 373.393 15.15C372.817 15.15 372.321 15.066 371.905 14.898C371.493 14.73 371.147 14.524 370.867 14.28L371.503 13.548C371.751 13.752 372.035 13.918 372.355 14.046C372.675 14.17 373.021 14.232 373.393 14.232ZM379.323 9.288L379.125 6.132H380.475L380.283 9.288H379.323ZM381.375 9.288L381.183 6.132H382.533L382.335 9.288H381.375Z" fill="#A21CAF"/>
<path d="M59.9375 12.69C59.9375 13.17 59.8155 13.596 59.5715 13.968C59.3315 14.336 58.9835 14.626 58.5275 14.838C58.0715 15.046 57.5155 15.15 56.8595 15.15C56.2275 15.15 55.6635 15.054 55.1675 14.862C54.6715 14.67 54.2495 14.406 53.9015 14.07L54.5795 13.308C54.8675 13.576 55.1975 13.788 55.5695 13.944C55.9415 14.1 56.3755 14.178 56.8715 14.178C57.1955 14.178 57.4955 14.126 57.7715 14.022C58.0515 13.914 58.2755 13.754 58.4435 13.542C58.6155 13.326 58.7015 13.056 58.7015 12.732C58.7015 12.472 58.6495 12.252 58.5455 12.072C58.4455 11.892 58.2675 11.732 58.0115 11.592C57.7555 11.452 57.3975 11.314 56.9375 11.178C56.3775 11.01 55.8975 10.824 55.4975 10.62C55.1015 10.412 54.7975 10.158 54.5855 9.858C54.3775 9.558 54.2735 9.19 54.2735 8.754C54.2735 8.326 54.3915 7.95 54.6275 7.626C54.8635 7.298 55.1875 7.042 55.5995 6.858C56.0155 6.674 56.4895 6.582 57.0215 6.582C57.6015 6.582 58.1075 6.666 58.5395 6.834C58.9755 6.998 59.3675 7.236 59.7155 7.548L59.0555 8.292C58.7635 8.032 58.4475 7.844 58.1075 7.728C57.7675 7.608 57.4235 7.548 57.0755 7.548C56.7835 7.548 56.5175 7.592 56.2775 7.68C56.0375 7.764 55.8455 7.89 55.7015 8.058C55.5615 8.226 55.4915 8.44 55.4915 8.7C55.4915 8.928 55.5535 9.124 55.6775 9.288C55.8015 9.448 56.0115 9.598 56.3075 9.738C56.6035 9.874 57.0055 10.018 57.5135 10.17C57.9575 10.298 58.3635 10.458 58.7315 10.65C59.0995 10.842 59.3915 11.1 59.6075 11.424C59.8275 11.744 59.9375 12.166 59.9375 12.69ZM66.9168 14.676C66.6928 14.82 66.4228 14.934 66.1068 15.018C65.7908 15.106 65.4748 15.15 65.1588 15.15C64.4548 15.15 63.9148 14.966 63.5388 14.598C63.1668 14.23 62.9808 13.752 62.9808 13.164V9.54H61.5468V8.676H62.9808V7.248L64.1328 7.11V8.676H66.2928L66.1608 9.54H64.1328V13.152C64.1328 13.5 64.2208 13.762 64.3968 13.938C64.5768 14.114 64.8748 14.202 65.2908 14.202C65.5268 14.202 65.7428 14.174 65.9388 14.118C66.1348 14.062 66.3168 13.99 66.4848 13.902L66.9168 14.676ZM69.0361 15V14.148H69.9961V9.528H69.0361V8.676H70.8781L71.0881 10.158C71.3281 9.634 71.6221 9.232 71.9701 8.952C72.3221 8.668 72.7781 8.526 73.3381 8.526C73.5221 8.526 73.6841 8.54 73.8241 8.568C73.9681 8.596 74.1141 8.632 74.2621 8.676L73.9201 9.684C73.7881 9.644 73.6681 9.616 73.5601 9.6C73.4521 9.584 73.3281 9.576 73.1881 9.576C72.7121 9.576 72.3041 9.748 71.9641 10.092C71.6241 10.436 71.3521 10.942 71.1481 11.61V14.148H72.4321V15H69.0361ZM73.1941 10.896V9.444L73.3261 8.676H74.2621L74.0821 10.896H73.1941ZM80.8334 13.548C80.8334 13.8 80.8734 13.984 80.9534 14.1C81.0334 14.212 81.1594 14.296 81.3314 14.352L81.0614 15.144C80.7734 15.108 80.5234 15.022 80.3114 14.886C80.0994 14.75 79.9414 14.542 79.8374 14.262C79.6094 14.554 79.3214 14.776 78.9734 14.928C78.6254 15.076 78.2474 15.15 77.8394 15.15C77.2034 15.15 76.7014 14.97 76.3334 14.61C75.9654 14.25 75.7814 13.776 75.7814 13.188C75.7814 12.528 76.0374 12.022 76.5494 11.67C77.0654 11.318 77.8054 11.142 78.7694 11.142H79.6874V10.662C79.6874 10.226 79.5574 9.916 79.2974 9.732C79.0414 9.548 78.6834 9.456 78.2234 9.456C78.0154 9.456 77.7674 9.482 77.4794 9.534C77.1914 9.586 76.8854 9.668 76.5614 9.78L76.2674 8.94C76.6594 8.792 77.0334 8.686 77.3894 8.622C77.7494 8.558 78.0854 8.526 78.3974 8.526C79.2134 8.526 79.8234 8.712 80.2274 9.084C80.6314 9.452 80.8334 9.958 80.8334 10.602V13.548ZM78.1634 14.286C78.4594 14.286 78.7434 14.21 79.0154 14.058C79.2874 13.906 79.5114 13.694 79.6874 13.422V11.892H78.8474C78.1794 11.892 77.7054 12.006 77.4254 12.234C77.1454 12.458 77.0054 12.766 77.0054 13.158C77.0054 13.526 77.1014 13.806 77.2934 13.998C77.4854 14.19 77.7754 14.286 78.1634 14.286ZM86.3067 8.526C86.8667 8.526 87.3147 8.664 87.6507 8.94C87.9867 9.212 88.2287 9.596 88.3767 10.092C88.5247 10.584 88.5987 11.164 88.5987 11.832C88.5987 12.472 88.5087 13.042 88.3287 13.542C88.1487 14.042 87.8787 14.436 87.5187 14.724C87.1587 15.008 86.7067 15.15 86.1627 15.15C85.4787 15.15 84.9307 14.91 84.5187 14.43V17.424L83.3667 17.562V8.676H84.3567L84.4407 9.528C84.6767 9.204 84.9547 8.956 85.2747 8.784C85.5947 8.612 85.9387 8.526 86.3067 8.526ZM86.0127 9.432C85.6847 9.432 85.3947 9.532 85.1427 9.732C84.8907 9.928 84.6827 10.152 84.5187 10.404V13.464C84.6787 13.7 84.8747 13.886 85.1067 14.022C85.3387 14.154 85.5967 14.22 85.8807 14.22C86.3767 14.22 86.7507 14.028 87.0027 13.644C87.2547 13.256 87.3807 12.652 87.3807 11.832C87.3807 11.284 87.3307 10.834 87.2307 10.482C87.1307 10.126 86.9787 9.862 86.7747 9.69C86.5747 9.518 86.3207 9.432 86.0127 9.432ZM93.874 8.676V14.124H95.632V15H90.796V14.124H92.722V9.552H90.856V8.676H93.874ZM93.016 5.652C93.256 5.652 93.448 5.726 93.592 5.874C93.74 6.022 93.814 6.202 93.814 6.414C93.814 6.634 93.74 6.82 93.592 6.972C93.448 7.12 93.256 7.194 93.016 7.194C92.78 7.194 92.588 7.12 92.44 6.972C92.296 6.82 92.224 6.634 92.224 6.414C92.224 6.202 92.296 6.022 92.44 5.874C92.588 5.726 92.78 5.652 93.016 5.652ZM100.211 12.948C100.503 12.948 100.747 13.046 100.943 13.242C101.139 13.438 101.237 13.678 101.237 13.962C101.237 14.122 101.215 14.284 101.171 14.448C101.131 14.608 101.059 14.798 100.955 15.018L100.001 17.202H99.0353L99.6173 14.802C99.4893 14.71 99.3873 14.59 99.3113 14.442C99.2353 14.29 99.1973 14.128 99.1973 13.956C99.1973 13.676 99.2933 13.438 99.4853 13.242C99.6813 13.046 99.9233 12.948 100.211 12.948ZM245.45 5.994C245.81 5.994 246.134 6.026 246.422 6.09C246.71 6.15 246.982 6.236 247.238 6.348L246.878 7.176C246.674 7.088 246.456 7.022 246.224 6.978C245.996 6.934 245.762 6.912 245.522 6.912C245.09 6.912 244.768 6.996 244.556 7.164C244.344 7.332 244.238 7.59 244.238 7.938V9.15H246.374L246.248 10.026H244.238V15H243.092V10.026H241.61V9.15H243.092V7.944C243.092 7.548 243.192 7.204 243.392 6.912C243.596 6.62 243.874 6.394 244.226 6.234C244.582 6.074 244.99 5.994 245.45 5.994ZM248.919 15V14.148H249.879V9.528H248.919V8.676H250.761L250.971 10.158C251.211 9.634 251.505 9.232 251.853 8.952C252.205 8.668 252.661 8.526 253.221 8.526C253.405 8.526 253.567 8.54 253.707 8.568C253.851 8.596 253.997 8.632 254.145 8.676L253.803 9.684C253.671 9.644 253.551 9.616 253.443 9.6C253.335 9.584 253.211 9.576 253.071 9.576C252.595 9.576 252.187 9.748 251.847 10.092C251.507 10.436 251.235 10.942 251.031 11.61V14.148H252.315V15H248.919ZM253.077 10.896V9.444L253.209 8.676H254.145L253.965 10.896H253.077ZM258.52 8.526C259.124 8.526 259.63 8.662 260.038 8.934C260.45 9.206 260.76 9.59 260.968 10.086C261.18 10.578 261.286 11.16 261.286 11.832C261.286 12.484 261.178 13.06 260.962 13.56C260.75 14.056 260.438 14.446 260.026 14.73C259.614 15.01 259.108 15.15 258.508 15.15C257.908 15.15 257.4 15.014 256.984 14.742C256.572 14.47 256.26 14.086 256.048 13.59C255.836 13.094 255.73 12.512 255.73 11.844C255.73 11.188 255.836 10.612 256.048 10.116C256.264 9.616 256.58 9.226 256.996 8.946C257.412 8.666 257.92 8.526 258.52 8.526ZM258.52 9.444C258 9.444 257.608 9.64 257.344 10.032C257.08 10.42 256.948 11.024 256.948 11.844C256.948 12.656 257.078 13.258 257.338 13.65C257.598 14.038 257.988 14.232 258.508 14.232C259.028 14.232 259.418 14.038 259.678 13.65C259.938 13.258 260.068 12.652 260.068 11.832C260.068 11.016 259.938 10.414 259.678 10.026C259.422 9.638 259.036 9.444 258.52 9.444ZM267.504 8.526C267.724 8.526 267.928 8.574 268.116 8.67C268.304 8.766 268.456 8.942 268.572 9.198C268.688 9.45 268.746 9.816 268.746 10.296V15H267.696V10.464C267.696 10.096 267.672 9.832 267.624 9.672C267.58 9.508 267.452 9.426 267.24 9.426C267.064 9.426 266.89 9.48 266.718 9.588C266.546 9.696 266.376 9.876 266.208 10.128V15H265.2V10.464C265.2 10.096 265.176 9.832 265.128 9.672C265.084 9.508 264.956 9.426 264.744 9.426C264.564 9.426 264.388 9.48 264.216 9.588C264.048 9.696 263.88 9.876 263.712 10.128V15H262.662V8.676H263.55L263.622 9.384C263.798 9.136 263.992 8.932 264.204 8.772C264.42 8.608 264.682 8.526 264.99 8.526C265.23 8.526 265.452 8.584 265.656 8.7C265.864 8.816 266.016 9.032 266.112 9.348C266.284 9.104 266.48 8.906 266.7 8.754C266.92 8.602 267.188 8.526 267.504 8.526ZM388.012 12.954C388.308 12.954 388.552 13.052 388.744 13.248C388.94 13.444 389.038 13.682 389.038 13.962C389.038 14.118 389.016 14.278 388.972 14.442C388.928 14.606 388.856 14.798 388.756 15.018L387.808 17.196H386.842L387.418 14.802C387.138 14.606 386.998 14.326 386.998 13.962C386.998 13.682 387.096 13.444 387.292 13.248C387.488 13.052 387.728 12.954 388.012 12.954ZM388.012 8.814C388.304 8.814 388.548 8.914 388.744 9.114C388.94 9.31 389.038 9.548 389.038 9.828C389.038 10.104 388.94 10.344 388.744 10.548C388.548 10.748 388.304 10.848 388.012 10.848C387.728 10.848 387.488 10.748 387.292 10.548C387.096 10.344 386.998 10.104 386.998 9.828C386.998 9.636 387.042 9.464 387.13 9.312C387.222 9.16 387.344 9.04 387.496 8.952C387.652 8.86 387.824 8.814 388.012 8.814ZM7.15827 54.178C7.46627 54.178 7.75227 54.126 8.01627 54.022C8.28427 53.918 8.53427 53.786 8.76627 53.626L9.31827 54.376C9.04227 54.612 8.70827 54.8 8.31627 54.94C7.92427 55.08 7.53227 55.15 7.14027 55.15C6.50427 55.15 5.96027 55.014 5.50827 54.742C5.06027 54.47 4.71827 54.088 4.48227 53.596C4.24627 53.104 4.12827 52.528 4.12827 51.868C4.12827 51.228 4.24627 50.656 4.48227 50.152C4.72227 49.648 5.06827 49.252 5.52027 48.964C5.97227 48.672 6.51827 48.526 7.15827 48.526C7.57427 48.526 7.96027 48.59 8.31627 48.718C8.67627 48.842 9.00627 49.026 9.30627 49.27L8.76027 50.02C8.50027 49.84 8.23827 49.704 7.97427 49.612C7.71027 49.516 7.44027 49.468 7.16427 49.468C6.63627 49.468 6.20427 49.664 5.86827 50.056C5.53227 50.448 5.36427 51.052 5.36427 51.868C5.36427 52.412 5.44027 52.854 5.59227 53.194C5.74827 53.534 5.96227 53.784 6.23427 53.944C6.50627 54.1 6.81427 54.178 7.15827 54.178ZM13.8796 48.526C14.4836 48.526 14.9896 48.662 15.3976 48.934C15.8096 49.206 16.1196 49.59 16.3276 50.086C16.5396 50.578 16.6456 51.16 16.6456 51.832C16.6456 52.484 16.5376 53.06 16.3216 53.56C16.1096 54.056 15.7976 54.446 15.3856 54.73C14.9736 55.01 14.4676 55.15 13.8676 55.15C13.2676 55.15 12.7596 55.014 12.3436 54.742C11.9316 54.47 11.6196 54.086 11.4076 53.59C11.1956 53.094 11.0896 52.512 11.0896 51.844C11.0896 51.188 11.1956 50.612 11.4076 50.116C11.6236 49.616 11.9396 49.226 12.3556 48.946C12.7716 48.666 13.2796 48.526 13.8796 48.526ZM13.8796 49.444C13.3596 49.444 12.9676 49.64 12.7036 50.032C12.4396 50.42 12.3076 51.024 12.3076 51.844C12.3076 52.656 12.4376 53.258 12.6976 53.65C12.9576 54.038 13.3476 54.232 13.8676 54.232C14.3876 54.232 14.7776 54.038 15.0376 53.65C15.2976 53.258 15.4276 52.652 15.4276 51.832C15.4276 51.016 15.2976 50.414 15.0376 50.026C14.7816 49.638 14.3956 49.444 13.8796 49.444ZM18.6089 55V48.676H19.5989L19.6829 49.528C19.9429 49.204 20.2589 48.956 20.6309 48.784C21.0069 48.612 21.3809 48.526 21.7529 48.526C22.3609 48.526 22.8089 48.692 23.0969 49.024C23.3849 49.352 23.5289 49.81 23.5289 50.398V55H22.3769V51.106C22.3769 50.706 22.3529 50.382 22.3049 50.134C22.2609 49.882 22.1669 49.7 22.0229 49.588C21.8789 49.476 21.6609 49.42 21.3689 49.42C21.1409 49.42 20.9249 49.47 20.7209 49.57C20.5169 49.67 20.3329 49.796 20.1689 49.948C20.0089 50.1 19.8729 50.258 19.7609 50.422V55H18.6089ZM28.0182 54.232C28.4782 54.232 28.8402 54.148 29.1042 53.98C29.3722 53.812 29.5062 53.584 29.5062 53.296C29.5062 53.112 29.4702 52.954 29.3982 52.822C29.3302 52.69 29.1862 52.57 28.9662 52.462C28.7502 52.354 28.4222 52.244 27.9822 52.132C27.5542 52.024 27.1802 51.898 26.8602 51.754C26.5402 51.61 26.2922 51.422 26.1162 51.19C25.9442 50.958 25.8582 50.658 25.8582 50.29C25.8582 49.93 25.9582 49.618 26.1582 49.354C26.3622 49.09 26.6482 48.886 27.0162 48.742C27.3882 48.598 27.8202 48.526 28.3122 48.526C28.8322 48.526 29.2842 48.596 29.6682 48.736C30.0562 48.872 30.3842 49.04 30.6522 49.24L30.1602 49.99C29.9162 49.826 29.6482 49.692 29.3562 49.588C29.0682 49.484 28.7282 49.432 28.3362 49.432C27.8682 49.432 27.5342 49.504 27.3342 49.648C27.1382 49.788 27.0402 49.974 27.0402 50.206C27.0402 50.378 27.0882 50.522 27.1842 50.638C27.2842 50.75 27.4542 50.854 27.6942 50.95C27.9342 51.046 28.2662 51.152 28.6902 51.268C29.1022 51.38 29.4622 51.512 29.7702 51.664C30.0782 51.816 30.3162 52.016 30.4842 52.264C30.6562 52.508 30.7422 52.83 30.7422 53.23C30.7422 53.682 30.6122 54.05 30.3522 54.334C30.0922 54.614 29.7542 54.82 29.3382 54.952C28.9262 55.084 28.4862 55.15 28.0182 55.15C27.4422 55.15 26.9462 55.066 26.5302 54.898C26.1182 54.73 25.7722 54.524 25.4922 54.28L26.1282 53.548C26.3762 53.752 26.6602 53.918 26.9802 54.046C27.3002 54.17 27.6462 54.232 28.0182 54.232ZM38.1355 54.676C37.9115 54.82 37.6415 54.934 37.3255 55.018C37.0095 55.106 36.6935 55.15 36.3775 55.15C35.6735 55.15 35.1335 54.966 34.7575 54.598C34.3855 54.23 34.1995 53.752 34.1995 53.164V49.54H32.7655V48.676H34.1995V47.248L35.3515 47.11V48.676H37.5115L37.3795 49.54H35.3515V53.152C35.3515 53.5 35.4395 53.762 35.6155 53.938C35.7955 54.114 36.0935 54.202 36.5095 54.202C36.7455 54.202 36.9615 54.174 37.1575 54.118C37.3535 54.062 37.5355 53.99 37.7035 53.902L38.1355 54.676ZM49.8561 48.526C50.4601 48.526 50.9661 48.662 51.3741 48.934C51.7861 49.206 52.0961 49.59 52.3041 50.086C52.5161 50.578 52.6221 51.16 52.6221 51.832C52.6221 52.484 52.5141 53.06 52.2981 53.56C52.0861 54.056 51.7741 54.446 51.3621 54.73C50.9501 55.01 50.4441 55.15 49.8441 55.15C49.2441 55.15 48.7361 55.014 48.3201 54.742C47.9081 54.47 47.5961 54.086 47.3841 53.59C47.1721 53.094 47.0661 52.512 47.0661 51.844C47.0661 51.188 47.1721 50.612 47.3841 50.116C47.6001 49.616 47.9161 49.226 48.3321 48.946C48.7481 48.666 49.2561 48.526 49.8561 48.526ZM49.8561 49.444C49.3361 49.444 48.9441 49.64 48.6801 50.032C48.4161 50.42 48.2841 51.024 48.2841 51.844C48.2841 52.656 48.4141 53.258 48.6741 53.65C48.9341 54.038 49.3241 54.232 49.8441 54.232C50.3641 54.232 50.7541 54.038 51.0141 53.65C51.2741 53.258 51.4041 52.652 51.4041 51.832C51.4041 51.016 51.2741 50.414 51.0141 50.026C50.7581 49.638 50.3721 49.444 49.8561 49.444ZM57.5255 48.526C58.0855 48.526 58.5335 48.664 58.8695 48.94C59.2055 49.212 59.4475 49.596 59.5955 50.092C59.7435 50.584 59.8175 51.164 59.8175 51.832C59.8175 52.472 59.7275 53.042 59.5475 53.542C59.3675 54.042 59.0975 54.436 58.7375 54.724C58.3775 55.008 57.9255 55.15 57.3815 55.15C56.6975 55.15 56.1495 54.91 55.7375 54.43V57.424L54.5855 57.562V48.676H55.5755L55.6595 49.528C55.8955 49.204 56.1735 48.956 56.4935 48.784C56.8135 48.612 57.1575 48.526 57.5255 48.526ZM57.2315 49.432C56.9035 49.432 56.6135 49.532 56.3615 49.732C56.1095 49.928 55.9015 50.152 55.7375 50.404V53.464C55.8975 53.7 56.0935 53.886 56.3255 54.022C56.5575 54.154 56.8155 54.22 57.0995 54.22C57.5955 54.22 57.9695 54.028 58.2215 53.644C58.4735 53.256 58.5995 52.652 58.5995 51.832C58.5995 51.284 58.5495 50.834 58.4495 50.482C58.3495 50.126 58.1975 49.862 57.9935 49.69C57.7935 49.518 57.5395 49.432 57.2315 49.432ZM66.9168 54.676C66.6928 54.82 66.4228 54.934 66.1068 55.018C65.7908 55.106 65.4748 55.15 65.1588 55.15C64.4548 55.15 63.9148 54.966 63.5388 54.598C63.1668 54.23 62.9808 53.752 62.9808 53.164V49.54H61.5468V48.676H62.9808V47.248L64.1328 47.11V48.676H66.2928L66.1608 49.54H64.1328V53.152C64.1328 53.5 64.2208 53.762 64.3968 53.938C64.5768 54.114 64.8748 54.202 65.2908 54.202C65.5268 54.202 65.7428 54.174 65.9388 54.118C66.1348 54.062 66.3168 53.99 66.4848 53.902L66.9168 54.676ZM72.2881 48.676V54.124H74.0461V55H69.2101V54.124H71.1361V49.552H69.2701V48.676H72.2881ZM71.4301 45.652C71.6701 45.652 71.8621 45.726 72.0061 45.874C72.1541 46.022 72.2281 46.202 72.2281 46.414C72.2281 46.634 72.1541 46.82 72.0061 46.972C71.8621 47.12 71.6701 47.194 71.4301 47.194C71.1941 47.194 71.0021 47.12 70.8541 46.972C70.7101 46.82 70.6381 46.634 70.6381 46.414C70.6381 46.202 70.7101 46.022 70.8541 45.874C71.0021 45.726 71.1941 45.652 71.4301 45.652ZM78.6374 48.526C79.2414 48.526 79.7474 48.662 80.1554 48.934C80.5674 49.206 80.8774 49.59 81.0854 50.086C81.2974 50.578 81.4034 51.16 81.4034 51.832C81.4034 52.484 81.2954 53.06 81.0794 53.56C80.8674 54.056 80.5554 54.446 80.1434 54.73C79.7314 55.01 79.2254 55.15 78.6254 55.15C78.0254 55.15 77.5174 55.014 77.1014 54.742C76.6894 54.47 76.3774 54.086 76.1654 53.59C75.9534 53.094 75.8474 52.512 75.8474 51.844C75.8474 51.188 75.9534 50.612 76.1654 50.116C76.3814 49.616 76.6974 49.226 77.1134 48.946C77.5294 48.666 78.0374 48.526 78.6374 48.526ZM78.6374 49.444C78.1174 49.444 77.7254 49.64 77.4614 50.032C77.1974 50.42 77.0654 51.024 77.0654 51.844C77.0654 52.656 77.1954 53.258 77.4554 53.65C77.7154 54.038 78.1054 54.232 78.6254 54.232C79.1454 54.232 79.5354 54.038 79.7954 53.65C80.0554 53.258 80.1854 52.652 80.1854 51.832C80.1854 51.016 80.0554 50.414 79.7954 50.026C79.5394 49.638 79.1534 49.444 78.6374 49.444ZM83.3667 55V48.676H84.3567L84.4407 49.528C84.7007 49.204 85.0167 48.956 85.3887 48.784C85.7647 48.612 86.1387 48.526 86.5107 48.526C87.1187 48.526 87.5667 48.692 87.8547 49.024C88.1427 49.352 88.2867 49.81 88.2867 50.398V55H87.1347V51.106C87.1347 50.706 87.1107 50.382 87.0627 50.134C87.0187 49.882 86.9247 49.7 86.7807 49.588C86.6367 49.476 86.4187 49.42 86.1267 49.42C85.8987 49.42 85.6827 49.47 85.4787 49.57C85.2747 49.67 85.0907 49.796 84.9267 49.948C84.7667 50.1 84.6307 50.258 84.5187 50.422V55H83.3667ZM92.776 54.232C93.236 54.232 93.598 54.148 93.862 53.98C94.13 53.812 94.264 53.584 94.264 53.296C94.264 53.112 94.228 52.954 94.156 52.822C94.088 52.69 93.944 52.57 93.724 52.462C93.508 52.354 93.18 52.244 92.74 52.132C92.312 52.024 91.938 51.898 91.618 51.754C91.298 51.61 91.05 51.422 90.874 51.19C90.702 50.958 90.616 50.658 90.616 50.29C90.616 49.93 90.716 49.618 90.916 49.354C91.12 49.09 91.406 48.886 91.774 48.742C92.146 48.598 92.578 48.526 93.07 48.526C93.59 48.526 94.042 48.596 94.426 48.736C94.814 48.872 95.142 49.04 95.41 49.24L94.918 49.99C94.674 49.826 94.406 49.692 94.114 49.588C93.826 49.484 93.486 49.432 93.094 49.432C92.626 49.432 92.292 49.504 92.092 49.648C91.896 49.788 91.798 49.974 91.798 50.206C91.798 50.378 91.846 50.522 91.942 50.638C92.042 50.75 92.212 50.854 92.452 50.95C92.692 51.046 93.024 51.152 93.448 51.268C93.86 51.38 94.22 51.512 94.528 51.664C94.836 51.816 95.074 52.016 95.242 52.264C95.414 52.508 95.5 52.83 95.5 53.23C95.5 53.682 95.37 54.05 95.11 54.334C94.85 54.614 94.512 54.82 94.096 54.952C93.684 55.084 93.244 55.15 92.776 55.15C92.2 55.15 91.704 55.066 91.288 54.898C90.876 54.73 90.53 54.524 90.25 54.28L90.886 53.548C91.134 53.752 91.418 53.918 91.738 54.046C92.058 54.17 92.404 54.232 92.776 54.232ZM99.1853 54.124C99.1853 53.852 99.2833 53.616 99.4793 53.416C99.6753 53.216 99.9153 53.116 100.199 53.116C100.491 53.116 100.735 53.216 100.931 53.416C101.127 53.616 101.225 53.852 101.225 54.124C101.225 54.408 101.127 54.65 100.931 54.85C100.735 55.05 100.491 55.15 100.199 55.15C99.9153 55.15 99.6753 55.05 99.4793 54.85C99.2833 54.65 99.1853 54.408 99.1853 54.124ZM99.1853 49.828C99.1853 49.636 99.2293 49.464 99.3173 49.312C99.4093 49.16 99.5313 49.04 99.6833 48.952C99.8393 48.86 100.011 48.814 100.199 48.814C100.491 48.814 100.735 48.914 100.931 49.114C101.127 49.31 101.225 49.548 101.225 49.828C101.225 50.104 101.127 50.344 100.931 50.548C100.735 50.748 100.491 50.848 100.199 50.848C99.9153 50.848 99.6753 50.748 99.4793 50.548C99.2833 50.344 99.1853 50.104 99.1853 49.828ZM217.736 49.624V50.596H212.936V49.624H217.736ZM217.736 51.94V52.912H212.936V51.94H217.736ZM19.7609 68.676V73.128C19.7609 73.528 19.8429 73.816 20.0069 73.992C20.1709 74.164 20.4209 74.25 20.7569 74.25C21.0809 74.25 21.3889 74.156 21.6809 73.968C21.9729 73.78 22.2009 73.556 22.3649 73.296V68.676H23.5169V75H22.5269L22.4429 74.166C22.2029 74.482 21.9009 74.726 21.5369 74.898C21.1729 75.066 20.8049 75.15 20.4329 75.15C19.8209 75.15 19.3629 74.984 19.0589 74.652C18.7589 74.32 18.6089 73.86 18.6089 73.272V68.676H19.7609ZM25.8642 75V74.148H26.8242V69.528H25.8642V68.676H27.7062L27.9162 70.158C28.1562 69.634 28.4502 69.232 28.7982 68.952C29.1502 68.668 29.6062 68.526 30.1662 68.526C30.3502 68.526 30.5122 68.54 30.6522 68.568C30.7962 68.596 30.9422 68.632 31.0902 68.676L30.7482 69.684C30.6162 69.644 30.4962 69.616 30.3882 69.6C30.2802 69.584 30.1562 69.576 30.0162 69.576C29.5402 69.576 29.1322 69.748 28.7922 70.092C28.4522 70.436 28.1802 70.942 27.9762 71.61V74.148H29.2602V75H25.8642ZM30.0222 70.896V69.444L30.1542 68.676H31.0902L30.9102 70.896H30.0222ZM35.5975 66.132V73.368C35.5975 73.672 35.6915 73.888 35.8795 74.016C36.0675 74.14 36.3095 74.202 36.6055 74.202C36.7935 74.202 36.9715 74.182 37.1395 74.142C37.3075 74.102 37.4755 74.05 37.6435 73.986L37.9435 74.808C37.7675 74.896 37.5475 74.974 37.2835 75.042C37.0195 75.114 36.7215 75.15 36.3895 75.15C35.7975 75.15 35.3255 74.984 34.9735 74.652C34.6215 74.32 34.4455 73.864 34.4455 73.284V67.008H32.5195V66.132H35.5975ZM41.6228 74.124C41.6228 73.852 41.7208 73.616 41.9168 73.416C42.1128 73.216 42.3528 73.116 42.6368 73.116C42.9288 73.116 43.1728 73.216 43.3688 73.416C43.5648 73.616 43.6628 73.852 43.6628 74.124C43.6628 74.408 43.5648 74.65 43.3688 74.85C43.1728 75.05 42.9288 75.15 42.6368 75.15C42.3528 75.15 42.1128 75.05 41.9168 74.85C41.7208 74.65 41.6228 74.408 41.6228 74.124ZM41.6228 69.828C41.6228 69.636 41.6668 69.464 41.7548 69.312C41.8468 69.16 41.9688 69.04 42.1208 68.952C42.2768 68.86 42.4488 68.814 42.6368 68.814C42.9288 68.814 43.1728 68.914 43.3688 69.114C43.5648 69.31 43.6628 69.548 43.6628 69.828C43.6628 70.104 43.5648 70.344 43.3688 70.548C43.1728 70.748 42.9288 70.848 42.6368 70.848C42.3528 70.848 42.1128 70.748 41.9168 70.548C41.7208 70.344 41.6228 70.104 41.6228 69.828ZM57.5255 68.526C58.0855 68.526 58.5335 68.664 58.8695 68.94C59.2055 69.212 59.4475 69.596 59.5955 70.092C59.7435 70.584 59.8175 71.164 59.8175 71.832C59.8175 72.472 59.7275 73.042 59.5475 73.542C59.3675 74.042 59.0975 74.436 58.7375 74.724C58.3775 75.008 57.9255 75.15 57.3815 75.15C56.6975 75.15 56.1495 74.91 55.7375 74.43V77.424L54.5855 77.562V68.676H55.5755L55.6595 69.528C55.8955 69.204 56.1735 68.956 56.4935 68.784C56.8135 68.612 57.1575 68.526 57.5255 68.526ZM57.2315 69.432C56.9035 69.432 56.6135 69.532 56.3615 69.732C56.1095 69.928 55.9015 70.152 55.7375 70.404V73.464C55.8975 73.7 56.0935 73.886 56.3255 74.022C56.5575 74.154 56.8155 74.22 57.0995 74.22C57.5955 74.22 57.9695 74.028 58.2215 73.644C58.4735 73.256 58.5995 72.652 58.5995 71.832C58.5995 71.284 58.5495 70.834 58.4495 70.482C58.3495 70.126 58.1975 69.862 57.9935 69.69C57.7935 69.518 57.5395 69.432 57.2315 69.432ZM61.8408 75V74.148H62.8008V69.528H61.8408V68.676H63.6828L63.8928 70.158C64.1328 69.634 64.4268 69.232 64.7748 68.952C65.1268 68.668 65.5828 68.526 66.1428 68.526C66.3268 68.526 66.4888 68.54 66.6288 68.568C66.7728 68.596 66.9188 68.632 67.0668 68.676L66.7248 69.684C66.5928 69.644 66.4728 69.616 66.3648 69.6C66.2568 69.584 66.1328 69.576 65.9928 69.576C65.5168 69.576 65.1088 69.748 64.7688 70.092C64.4288 70.436 64.1568 70.942 63.9528 71.61V74.148H65.2368V75H61.8408ZM65.9988 70.896V69.444L66.1308 68.676H67.0668L66.8868 70.896H65.9988ZM71.4421 68.526C72.0461 68.526 72.5521 68.662 72.9601 68.934C73.3721 69.206 73.6821 69.59 73.8901 70.086C74.1021 70.578 74.2081 71.16 74.2081 71.832C74.2081 72.484 74.1001 73.06 73.8841 73.56C73.6721 74.056 73.3601 74.446 72.9481 74.73C72.5361 75.01 72.0301 75.15 71.4301 75.15C70.8301 75.15 70.3221 75.014 69.9061 74.742C69.4941 74.47 69.1821 74.086 68.9701 73.59C68.7581 73.094 68.6521 72.512 68.6521 71.844C68.6521 71.188 68.7581 70.612 68.9701 70.116C69.1861 69.616 69.5021 69.226 69.9181 68.946C70.3341 68.666 70.8421 68.526 71.4421 68.526ZM71.4421 69.444C70.9221 69.444 70.5301 69.64 70.2661 70.032C70.0021 70.42 69.8701 71.024 69.8701 71.844C69.8701 72.656 70.0001 73.258 70.2601 73.65C70.5201 74.038 70.9101 74.232 71.4301 74.232C71.9501 74.232 72.3401 74.038 72.6001 73.65C72.8601 73.258 72.9901 72.652 72.9901 71.832C72.9901 71.016 72.8601 70.414 72.6001 70.026C72.3441 69.638 71.9581 69.444 71.4421 69.444ZM79.1114 74.178C79.4194 74.178 79.7054 74.126 79.9694 74.022C80.2374 73.918 80.4874 73.786 80.7194 73.626L81.2714 74.376C80.9954 74.612 80.6614 74.8 80.2694 74.94C79.8774 75.08 79.4854 75.15 79.0934 75.15C78.4574 75.15 77.9134 75.014 77.4614 74.742C77.0134 74.47 76.6714 74.088 76.4354 73.596C76.1994 73.104 76.0814 72.528 76.0814 71.868C76.0814 71.228 76.1994 70.656 76.4354 70.152C76.6754 69.648 77.0214 69.252 77.4734 68.964C77.9254 68.672 78.4714 68.526 79.1114 68.526C79.5274 68.526 79.9134 68.59 80.2694 68.718C80.6294 68.842 80.9594 69.026 81.2594 69.27L80.7134 70.02C80.4534 69.84 80.1914 69.704 79.9274 69.612C79.6634 69.516 79.3934 69.468 79.1174 69.468C78.5894 69.468 78.1574 69.664 77.8214 70.056C77.4854 70.448 77.3174 71.052 77.3174 71.868C77.3174 72.412 77.3934 72.854 77.5454 73.194C77.7014 73.534 77.9154 73.784 78.1874 73.944C78.4594 74.1 78.7674 74.178 79.1114 74.178ZM84.2967 72.228C84.3207 72.692 84.4147 73.072 84.5787 73.368C84.7427 73.66 84.9567 73.876 85.2207 74.016C85.4847 74.152 85.7767 74.22 86.0967 74.22C86.4127 74.22 86.7027 74.172 86.9667 74.076C87.2307 73.98 87.4987 73.84 87.7707 73.656L88.2927 74.382C87.9967 74.618 87.6547 74.806 87.2667 74.946C86.8787 75.082 86.4767 75.15 86.0607 75.15C85.4287 75.15 84.8907 75.012 84.4467 74.736C84.0067 74.456 83.6707 74.068 83.4387 73.572C83.2107 73.076 83.0967 72.5 83.0967 71.844C83.0967 71.208 83.2107 70.64 83.4387 70.14C83.6707 69.64 83.9967 69.246 84.4167 68.958C84.8367 68.67 85.3367 68.526 85.9167 68.526C86.4607 68.526 86.9287 68.652 87.3207 68.904C87.7167 69.156 88.0207 69.516 88.2327 69.984C88.4447 70.448 88.5507 71.004 88.5507 71.652C88.5507 71.76 88.5487 71.864 88.5447 71.964C88.5407 72.064 88.5347 72.152 88.5267 72.228H84.2967ZM85.9287 69.426C85.4807 69.426 85.1067 69.586 84.8067 69.906C84.5107 70.226 84.3407 70.72 84.2967 71.388H87.4407C87.4287 70.748 87.2887 70.262 87.0207 69.93C86.7567 69.594 86.3927 69.426 85.9287 69.426ZM92.776 74.232C93.236 74.232 93.598 74.148 93.862 73.98C94.13 73.812 94.264 73.584 94.264 73.296C94.264 73.112 94.228 72.954 94.156 72.822C94.088 72.69 93.944 72.57 93.724 72.462C93.508 72.354 93.18 72.244 92.74 72.132C92.312 72.024 91.938 71.898 91.618 71.754C91.298 71.61 91.05 71.422 90.874 71.19C90.702 70.958 90.616 70.658 90.616 70.29C90.616 69.93 90.716 69.618 90.916 69.354C91.12 69.09 91.406 68.886 91.774 68.742C92.146 68.598 92.578 68.526 93.07 68.526C93.59 68.526 94.042 68.596 94.426 68.736C94.814 68.872 95.142 69.04 95.41 69.24L94.918 69.99C94.674 69.826 94.406 69.692 94.114 69.588C93.826 69.484 93.486 69.432 93.094 69.432C92.626 69.432 92.292 69.504 92.092 69.648C91.896 69.788 91.798 69.974 91.798 70.206C91.798 70.378 91.846 70.522 91.942 70.638C92.042 70.75 92.212 70.854 92.452 70.95C92.692 71.046 93.024 71.152 93.448 71.268C93.86 71.38 94.22 71.512 94.528 71.664C94.836 71.816 95.074 72.016 95.242 72.264C95.414 72.508 95.5 72.83 95.5 73.23C95.5 73.682 95.37 74.05 95.11 74.334C94.85 74.614 94.512 74.82 94.096 74.952C93.684 75.084 93.244 75.15 92.776 75.15C92.2 75.15 91.704 75.066 91.288 74.898C90.876 74.73 90.53 74.524 90.25 74.28L90.886 73.548C91.134 73.752 91.418 73.918 91.738 74.046C92.058 74.17 92.404 74.232 92.776 74.232ZM99.9713 74.232C100.431 74.232 100.793 74.148 101.057 73.98C101.325 73.812 101.459 73.584 101.459 73.296C101.459 73.112 101.423 72.954 101.351 72.822C101.283 72.69 101.139 72.57 100.919 72.462C100.703 72.354 100.375 72.244 99.9353 72.132C99.5073 72.024 99.1333 71.898 98.8133 71.754C98.4933 71.61 98.2453 71.422 98.0693 71.19C97.8973 70.958 97.8113 70.658 97.8113 70.29C97.8113 69.93 97.9113 69.618 98.1113 69.354C98.3153 69.09 98.6013 68.886 98.9693 68.742C99.3413 68.598 99.7733 68.526 100.265 68.526C100.785 68.526 101.237 68.596 101.621 68.736C102.009 68.872 102.337 69.04 102.605 69.24L102.113 69.99C101.869 69.826 101.601 69.692 101.309 69.588C101.021 69.484 100.681 69.432 100.289 69.432C99.8213 69.432 99.4873 69.504 99.2873 69.648C99.0913 69.788 98.9933 69.974 98.9933 70.206C98.9933 70.378 99.0413 70.522 99.1373 70.638C99.2373 70.75 99.4073 70.854 99.6473 70.95C99.8873 71.046 100.219 71.152 100.643 71.268C101.055 71.38 101.415 71.512 101.723 71.664C102.031 71.816 102.269 72.016 102.437 72.264C102.609 72.508 102.695 72.83 102.695 73.23C102.695 73.682 102.565 74.05 102.305 74.334C102.045 74.614 101.707 74.82 101.291 74.952C100.879 75.084 100.439 75.15 99.9713 75.15C99.3953 75.15 98.8993 75.066 98.4833 74.898C98.0713 74.73 97.7253 74.524 97.4453 74.28L98.0813 73.548C98.3293 73.752 98.6133 73.918 98.9333 74.046C99.2533 74.17 99.5993 74.232 99.9713 74.232ZM106.303 74.04C106.303 73.836 106.351 73.652 106.447 73.488C106.543 73.32 106.673 73.188 106.837 73.092C107.005 72.996 107.191 72.948 107.395 72.948C107.607 72.948 107.797 72.996 107.965 73.092C108.133 73.188 108.265 73.32 108.361 73.488C108.457 73.652 108.505 73.836 108.505 74.04C108.505 74.244 108.457 74.432 108.361 74.604C108.265 74.772 108.133 74.904 107.965 75C107.797 75.1 107.607 75.15 107.395 75.15C107.191 75.15 107.005 75.1 106.837 75C106.673 74.904 106.543 74.772 106.447 74.604C106.351 74.432 106.303 74.244 106.303 74.04ZM113.078 72.228C113.102 72.692 113.196 73.072 113.36 73.368C113.524 73.66 113.738 73.876 114.002 74.016C114.266 74.152 114.558 74.22 114.878 74.22C115.194 74.22 115.484 74.172 115.748 74.076C116.012 73.98 116.28 73.84 116.552 73.656L117.074 74.382C116.778 74.618 116.436 74.806 116.048 74.946C115.66 75.082 115.258 75.15 114.842 75.15C114.21 75.15 113.672 75.012 113.228 74.736C112.788 74.456 112.452 74.068 112.22 73.572C111.992 73.076 111.878 72.5 111.878 71.844C111.878 71.208 111.992 70.64 112.22 70.14C112.452 69.64 112.778 69.246 113.198 68.958C113.618 68.67 114.118 68.526 114.698 68.526C115.242 68.526 115.71 68.652 116.102 68.904C116.498 69.156 116.802 69.516 117.014 69.984C117.226 70.448 117.332 71.004 117.332 71.652C117.332 71.76 117.33 71.864 117.326 71.964C117.322 72.064 117.316 72.152 117.308 72.228H113.078ZM114.71 69.426C114.262 69.426 113.888 69.586 113.588 69.906C113.292 70.226 113.122 70.72 113.078 71.388H116.222C116.21 70.748 116.07 70.262 115.802 69.93C115.538 69.594 115.174 69.426 114.71 69.426ZM119.343 75V68.676H120.333L120.417 69.528C120.677 69.204 120.993 68.956 121.365 68.784C121.741 68.612 122.115 68.526 122.487 68.526C123.095 68.526 123.543 68.692 123.831 69.024C124.119 69.352 124.263 69.81 124.263 70.398V75H123.111V71.106C123.111 70.706 123.087 70.382 123.039 70.134C122.995 69.882 122.901 69.7 122.757 69.588C122.613 69.476 122.395 69.42 122.103 69.42C121.875 69.42 121.659 69.47 121.455 69.57C121.251 69.67 121.067 69.796 120.903 69.948C120.743 70.1 120.607 70.258 120.495 70.422V75H119.343ZM131.927 68.676L129.659 75H128.315L126.059 68.676H127.283L129.017 73.998L130.745 68.676H131.927ZM135.084 74.04C135.084 73.836 135.132 73.652 135.228 73.488C135.324 73.32 135.454 73.188 135.618 73.092C135.786 72.996 135.972 72.948 136.176 72.948C136.388 72.948 136.578 72.996 136.746 73.092C136.914 73.188 137.046 73.32 137.142 73.488C137.238 73.652 137.286 73.836 137.286 74.04C137.286 74.244 137.238 74.432 137.142 74.604C137.046 74.772 136.914 74.904 136.746 75C136.578 75.1 136.388 75.15 136.176 75.15C135.972 75.15 135.786 75.1 135.618 75C135.454 74.904 135.324 74.772 135.228 74.604C135.132 74.432 135.084 74.244 135.084 74.04ZM301.68 72.948C301.972 72.948 302.216 73.046 302.412 73.242C302.608 73.438 302.706 73.678 302.706 73.962C302.706 74.122 302.684 74.284 302.64 74.448C302.6 74.608 302.528 74.798 302.424 75.018L301.47 77.202H300.504L301.086 74.802C300.958 74.71 300.856 74.59 300.78 74.442C300.704 74.29 300.666 74.128 300.666 73.956C300.666 73.676 300.762 73.438 300.954 73.242C301.15 73.046 301.392 72.948 301.68 72.948ZM13.8556 92.954C14.1516 92.954 14.3956 93.052 14.5876 93.248C14.7836 93.444 14.8816 93.682 14.8816 93.962C14.8816 94.118 14.8596 94.278 14.8156 94.442C14.7716 94.606 14.6996 94.798 14.5996 95.018L13.6516 97.196H12.6856L13.2616 94.802C12.9816 94.606 12.8416 94.326 12.8416 93.962C12.8416 93.682 12.9396 93.444 13.1356 93.248C13.3316 93.052 13.5716 92.954 13.8556 92.954ZM13.8556 88.814C14.1476 88.814 14.3916 88.914 14.5876 89.114C14.7836 89.31 14.8816 89.548 14.8816 89.828C14.8816 90.104 14.7836 90.344 14.5876 90.548C14.3916 90.748 14.1476 90.848 13.8556 90.848C13.5716 90.848 13.3316 90.748 13.1356 90.548C12.9396 90.344 12.8416 90.104 12.8416 89.828C12.8416 89.636 12.8856 89.464 12.9736 89.312C13.0656 89.16 13.1876 89.04 13.3396 88.952C13.4956 88.86 13.6676 88.814 13.8556 88.814Z" fill="#0369A1"/>
<path d="M116.45 4.968V5.844C116.162 5.844 115.904 5.872 115.676 5.928C115.452 5.984 115.278 6.08 115.154 6.216C115.03 6.348 114.98 6.532 115.004 6.768L115.244 9.12C115.28 9.472 115.254 9.764 115.166 9.996C115.078 10.224 114.936 10.402 114.74 10.53C114.544 10.658 114.298 10.748 114.002 10.8C114.306 10.852 114.556 10.94 114.752 11.064C114.952 11.184 115.092 11.358 115.172 11.586C115.256 11.81 115.28 12.108 115.244 12.48L115.004 14.832C114.98 15.068 115.028 15.254 115.148 15.39C115.272 15.526 115.448 15.62 115.676 15.672C115.908 15.728 116.166 15.756 116.45 15.756V16.632C116.078 16.632 115.732 16.6 115.412 16.536C115.092 16.476 114.814 16.374 114.578 16.23C114.342 16.086 114.166 15.89 114.05 15.642C113.938 15.394 113.902 15.082 113.942 14.706L114.176 12.516C114.204 12.24 114.172 12.01 114.08 11.826C113.992 11.638 113.814 11.498 113.546 11.406C113.278 11.31 112.892 11.262 112.388 11.262V10.338C112.892 10.338 113.278 10.292 113.546 10.2C113.818 10.108 113.998 9.97 114.086 9.786C114.174 9.602 114.204 9.37 114.176 9.09L113.942 6.894C113.902 6.518 113.938 6.206 114.05 5.958C114.166 5.71 114.34 5.514 114.572 5.37C114.808 5.222 115.086 5.118 115.406 5.058C115.73 4.998 116.078 4.968 116.45 4.968ZM227.879 4.968C228.251 4.968 228.597 5 228.917 5.064C229.237 5.124 229.515 5.226 229.751 5.37C229.987 5.514 230.161 5.71 230.273 5.958C230.389 6.206 230.427 6.518 230.387 6.894L230.153 9.09C230.125 9.37 230.163 9.602 230.267 9.786C230.375 9.97 230.563 10.108 230.831 10.2C231.103 10.292 231.473 10.338 231.941 10.338V11.262C231.477 11.262 231.109 11.31 230.837 11.406C230.565 11.498 230.375 11.638 230.267 11.826C230.163 12.01 230.125 12.24 230.153 12.516L230.387 14.706C230.427 15.082 230.389 15.394 230.273 15.642C230.161 15.89 229.987 16.086 229.751 16.23C229.519 16.378 229.241 16.482 228.917 16.542C228.597 16.602 228.251 16.632 227.879 16.632V15.756C228.167 15.756 228.423 15.728 228.647 15.672C228.875 15.62 229.051 15.526 229.175 15.39C229.299 15.254 229.349 15.068 229.325 14.832L229.085 12.48C229.049 12.108 229.075 11.81 229.163 11.586C229.251 11.358 229.401 11.184 229.613 11.064C229.825 10.944 230.101 10.86 230.441 10.812C230.109 10.756 229.835 10.664 229.619 10.536C229.407 10.404 229.255 10.224 229.163 9.996C229.075 9.768 229.049 9.476 229.085 9.12L229.325 6.768C229.349 6.532 229.299 6.348 229.175 6.216C229.051 6.08 228.875 5.984 228.647 5.928C228.423 5.872 228.167 5.844 227.879 5.844V4.968ZM231.575 44.968V45.844C231.287 45.844 231.029 45.872 230.801 45.928C230.577 45.984 230.403 46.08 230.279 46.216C230.155 46.348 230.105 46.532 230.129 46.768L230.369 49.12C230.405 49.472 230.379 49.764 230.291 49.996C230.203 50.224 230.061 50.402 229.865 50.53C229.669 50.658 229.423 50.748 229.127 50.8C229.431 50.852 229.681 50.94 229.877 51.064C230.077 51.184 230.217 51.358 230.297 51.586C230.381 51.81 230.405 52.108 230.369 52.48L230.129 54.832C230.105 55.068 230.153 55.254 230.273 55.39C230.397 55.526 230.573 55.62 230.801 55.672C231.033 55.728 231.291 55.756 231.575 55.756V56.632C231.203 56.632 230.857 56.6 230.537 56.536C230.217 56.476 229.939 56.374 229.703 56.23C229.467 56.086 229.291 55.89 229.175 55.642C229.063 55.394 229.027 55.082 229.067 54.706L229.301 52.516C229.329 52.24 229.297 52.01 229.205 51.826C229.117 51.638 228.939 51.498 228.671 51.406C228.403 51.31 228.017 51.262 227.513 51.262V50.338C228.017 50.338 228.403 50.292 228.671 50.2C228.943 50.108 229.123 49.97 229.211 49.786C229.299 49.602 229.329 49.37 229.301 49.09L229.067 46.894C229.027 46.518 229.063 46.206 229.175 45.958C229.291 45.71 229.465 45.514 229.697 45.37C229.933 45.222 230.211 45.118 230.531 45.058C230.855 44.998 231.203 44.968 231.575 44.968ZM4.82427 84.968C5.19627 84.968 5.54227 85 5.86227 85.064C6.18227 85.124 6.46027 85.226 6.69627 85.37C6.93227 85.514 7.10627 85.71 7.21827 85.958C7.33427 86.206 7.37227 86.518 7.33227 86.894L7.09827 89.09C7.07027 89.37 7.10827 89.602 7.21227 89.786C7.32027 89.97 7.50827 90.108 7.77627 90.2C8.04827 90.292 8.41827 90.338 8.88627 90.338V91.262C8.42227 91.262 8.05427 91.31 7.78227 91.406C7.51027 91.498 7.32027 91.638 7.21227 91.826C7.10827 92.01 7.07027 92.24 7.09827 92.516L7.33227 94.706C7.37227 95.082 7.33427 95.394 7.21827 95.642C7.10627 95.89 6.93227 96.086 6.69627 96.23C6.46427 96.378 6.18627 96.482 5.86227 96.542C5.54227 96.602 5.19627 96.632 4.82427 96.632V95.756C5.11227 95.756 5.36827 95.728 5.59227 95.672C5.82027 95.62 5.99627 95.526 6.12027 95.39C6.24427 95.254 6.29427 95.068 6.27027 94.832L6.03027 92.48C5.99427 92.108 6.02027 91.81 6.10827 91.586C6.19627 91.358 6.34627 91.184 6.55827 91.064C6.77027 90.944 7.04627 90.86 7.38627 90.812C7.05427 90.756 6.78027 90.664 6.56427 90.536C6.35227 90.404 6.20027 90.224 6.10827 89.996C6.02027 89.768 5.99427 89.476 6.03027 89.12L6.27027 86.768C6.29427 86.532 6.24427 86.348 6.12027 86.216C5.99627 86.08 5.82027 85.984 5.59227 85.928C5.36827 85.872 5.11227 85.844 4.82427 85.844V84.968Z" fill="#A16207"/>
<path d="M131.891 12.69C131.891 13.17 131.769 13.596 131.525 13.968C131.285 14.336 130.937 14.626 130.481 14.838C130.025 15.046 129.469 15.15 128.813 15.15C128.181 15.15 127.617 15.054 127.121 14.862C126.625 14.67 126.203 14.406 125.855 14.07L126.533 13.308C126.821 13.576 127.151 13.788 127.523 13.944C127.895 14.1 128.329 14.178 128.825 14.178C129.149 14.178 129.449 14.126 129.725 14.022C130.005 13.914 130.229 13.754 130.397 13.542C130.569 13.326 130.655 13.056 130.655 12.732C130.655 12.472 130.603 12.252 130.499 12.072C130.399 11.892 130.221 11.732 129.965 11.592C129.709 11.452 129.351 11.314 128.891 11.178C128.331 11.01 127.851 10.824 127.451 10.62C127.055 10.412 126.751 10.158 126.539 9.858C126.331 9.558 126.227 9.19 126.227 8.754C126.227 8.326 126.345 7.95 126.581 7.626C126.817 7.298 127.141 7.042 127.553 6.858C127.969 6.674 128.443 6.582 128.975 6.582C129.555 6.582 130.061 6.666 130.493 6.834C130.929 6.998 131.321 7.236 131.669 7.548L131.009 8.292C130.717 8.032 130.401 7.844 130.061 7.728C129.721 7.608 129.377 7.548 129.029 7.548C128.737 7.548 128.471 7.592 128.231 7.68C127.991 7.764 127.799 7.89 127.655 8.058C127.515 8.226 127.445 8.44 127.445 8.7C127.445 8.928 127.507 9.124 127.631 9.288C127.755 9.448 127.965 9.598 128.261 9.738C128.557 9.874 128.959 10.018 129.467 10.17C129.911 10.298 130.317 10.458 130.685 10.65C131.053 10.842 131.345 11.1 131.561 11.424C131.781 11.744 131.891 12.166 131.891 12.69ZM138.87 14.676C138.646 14.82 138.376 14.934 138.06 15.018C137.744 15.106 137.428 15.15 137.112 15.15C136.408 15.15 135.868 14.966 135.492 14.598C135.12 14.23 134.934 13.752 134.934 13.164V9.54H133.5V8.676H134.934V7.248L136.086 7.11V8.676H138.246L138.114 9.54H136.086V13.152C136.086 13.5 136.174 13.762 136.35 13.938C136.53 14.114 136.828 14.202 137.244 14.202C137.48 14.202 137.696 14.174 137.892 14.118C138.088 14.062 138.27 13.99 138.438 13.902L138.87 14.676ZM140.989 15V14.148H141.949V9.528H140.989V8.676H142.831L143.041 10.158C143.281 9.634 143.575 9.232 143.923 8.952C144.275 8.668 144.731 8.526 145.291 8.526C145.475 8.526 145.637 8.54 145.777 8.568C145.921 8.596 146.067 8.632 146.215 8.676L145.873 9.684C145.741 9.644 145.621 9.616 145.513 9.6C145.405 9.584 145.281 9.576 145.141 9.576C144.665 9.576 144.257 9.748 143.917 10.092C143.577 10.436 143.305 10.942 143.101 11.61V14.148H144.385V15H140.989ZM145.147 10.896V9.444L145.279 8.676H146.215L146.035 10.896H145.147ZM152.787 13.548C152.787 13.8 152.827 13.984 152.907 14.1C152.987 14.212 153.113 14.296 153.285 14.352L153.015 15.144C152.727 15.108 152.477 15.022 152.265 14.886C152.053 14.75 151.895 14.542 151.791 14.262C151.563 14.554 151.275 14.776 150.927 14.928C150.579 15.076 150.201 15.15 149.793 15.15C149.157 15.15 148.655 14.97 148.287 14.61C147.919 14.25 147.735 13.776 147.735 13.188C147.735 12.528 147.991 12.022 148.503 11.67C149.019 11.318 149.759 11.142 150.723 11.142H151.641V10.662C151.641 10.226 151.511 9.916 151.251 9.732C150.995 9.548 150.637 9.456 150.177 9.456C149.969 9.456 149.721 9.482 149.433 9.534C149.145 9.586 148.839 9.668 148.515 9.78L148.221 8.94C148.613 8.792 148.987 8.686 149.343 8.622C149.703 8.558 150.039 8.526 150.351 8.526C151.167 8.526 151.777 8.712 152.181 9.084C152.585 9.452 152.787 9.958 152.787 10.602V13.548ZM150.117 14.286C150.413 14.286 150.697 14.21 150.969 14.058C151.241 13.906 151.465 13.694 151.641 13.422V11.892H150.801C150.133 11.892 149.659 12.006 149.379 12.234C149.099 12.458 148.959 12.766 148.959 13.158C148.959 13.526 149.055 13.806 149.247 13.998C149.439 14.19 149.729 14.286 150.117 14.286ZM158.26 8.526C158.82 8.526 159.268 8.664 159.604 8.94C159.94 9.212 160.182 9.596 160.33 10.092C160.478 10.584 160.552 11.164 160.552 11.832C160.552 12.472 160.462 13.042 160.282 13.542C160.102 14.042 159.832 14.436 159.472 14.724C159.112 15.008 158.66 15.15 158.116 15.15C157.432 15.15 156.884 14.91 156.472 14.43V17.424L155.32 17.562V8.676H156.31L156.394 9.528C156.63 9.204 156.908 8.956 157.228 8.784C157.548 8.612 157.892 8.526 158.26 8.526ZM157.966 9.432C157.638 9.432 157.348 9.532 157.096 9.732C156.844 9.928 156.636 10.152 156.472 10.404V13.464C156.632 13.7 156.828 13.886 157.06 14.022C157.292 14.154 157.55 14.22 157.834 14.22C158.33 14.22 158.704 14.028 158.956 13.644C159.208 13.256 159.334 12.652 159.334 11.832C159.334 11.284 159.284 10.834 159.184 10.482C159.084 10.126 158.932 9.862 158.728 9.69C158.528 9.518 158.274 9.432 157.966 9.432ZM165.827 8.676V14.124H167.585V15H162.749V14.124H164.675V9.552H162.809V8.676H165.827ZM164.969 5.652C165.209 5.652 165.401 5.726 165.545 5.874C165.693 6.022 165.767 6.202 165.767 6.414C165.767 6.634 165.693 6.82 165.545 6.972C165.401 7.12 165.209 7.194 164.969 7.194C164.733 7.194 164.541 7.12 164.393 6.972C164.249 6.82 164.177 6.634 164.177 6.414C164.177 6.202 164.249 6.022 164.393 5.874C164.541 5.726 164.733 5.652 164.969 5.652ZM175.254 10.872C175.254 11.712 175.138 12.454 174.906 13.098C174.674 13.742 174.328 14.246 173.868 14.61C173.412 14.97 172.844 15.15 172.164 15.15C171.488 15.15 170.92 14.974 170.46 14.622C170 14.266 169.654 13.768 169.422 13.128C169.19 12.488 169.074 11.74 169.074 10.884C169.074 10.04 169.19 9.296 169.422 8.652C169.654 8.004 170 7.498 170.46 7.134C170.92 6.766 171.488 6.582 172.164 6.582C172.844 6.582 173.412 6.76 173.868 7.116C174.328 7.472 174.674 7.972 174.906 8.616C175.138 9.256 175.254 10.008 175.254 10.872ZM174.012 10.872C174.012 9.784 173.868 8.958 173.58 8.394C173.296 7.83 172.824 7.548 172.164 7.548C171.504 7.548 171.03 7.832 170.742 8.4C170.458 8.968 170.316 9.796 170.316 10.884C170.316 11.968 170.464 12.79 170.76 13.35C171.056 13.906 171.524 14.184 172.164 14.184C172.824 14.184 173.296 13.904 173.58 13.344C173.868 12.784 174.012 11.96 174.012 10.872ZM179.846 8.526C180.406 8.526 180.854 8.664 181.19 8.94C181.526 9.212 181.768 9.596 181.916 10.092C182.064 10.584 182.138 11.164 182.138 11.832C182.138 12.472 182.048 13.042 181.868 13.542C181.688 14.042 181.418 14.436 181.058 14.724C180.698 15.008 180.246 15.15 179.702 15.15C179.018 15.15 178.47 14.91 178.058 14.43V17.424L176.906 17.562V8.676H177.896L177.98 9.528C178.216 9.204 178.494 8.956 178.814 8.784C179.134 8.612 179.478 8.526 179.846 8.526ZM179.552 9.432C179.224 9.432 178.934 9.532 178.682 9.732C178.43 9.928 178.222 10.152 178.058 10.404V13.464C178.218 13.7 178.414 13.886 178.646 14.022C178.878 14.154 179.136 14.22 179.42 14.22C179.916 14.22 180.29 14.028 180.542 13.644C180.794 13.256 180.92 12.652 180.92 11.832C180.92 11.284 180.87 10.834 180.77 10.482C180.67 10.126 180.518 9.862 180.314 9.69C180.114 9.518 179.86 9.432 179.552 9.432ZM189.237 14.676C189.013 14.82 188.743 14.934 188.427 15.018C188.111 15.106 187.795 15.15 187.479 15.15C186.775 15.15 186.235 14.966 185.859 14.598C185.487 14.23 185.301 13.752 185.301 13.164V9.54H183.867V8.676H185.301V7.248L186.453 7.11V8.676H188.613L188.481 9.54H186.453V13.152C186.453 13.5 186.541 13.762 186.717 13.938C186.897 14.114 187.195 14.202 187.611 14.202C187.847 14.202 188.063 14.174 188.259 14.118C188.455 14.062 188.637 13.99 188.805 13.902L189.237 14.676ZM194.608 8.676V14.124H196.366V15H191.53V14.124H193.456V9.552H191.59V8.676H194.608ZM193.75 5.652C193.99 5.652 194.182 5.726 194.326 5.874C194.474 6.022 194.548 6.202 194.548 6.414C194.548 6.634 194.474 6.82 194.326 6.972C194.182 7.12 193.99 7.194 193.75 7.194C193.514 7.194 193.322 7.12 193.174 6.972C193.03 6.82 192.958 6.634 192.958 6.414C192.958 6.202 193.03 6.022 193.174 5.874C193.322 5.726 193.514 5.652 193.75 5.652ZM200.958 8.526C201.562 8.526 202.068 8.662 202.476 8.934C202.888 9.206 203.198 9.59 203.406 10.086C203.618 10.578 203.724 11.16 203.724 11.832C203.724 12.484 203.616 13.06 203.4 13.56C203.188 14.056 202.876 14.446 202.464 14.73C202.052 15.01 201.546 15.15 200.946 15.15C200.346 15.15 199.838 15.014 199.422 14.742C199.01 14.47 198.698 14.086 198.486 13.59C198.274 13.094 198.168 12.512 198.168 11.844C198.168 11.188 198.274 10.612 198.486 10.116C198.702 9.616 199.018 9.226 199.434 8.946C199.85 8.666 200.358 8.526 200.958 8.526ZM200.958 9.444C200.438 9.444 200.046 9.64 199.782 10.032C199.518 10.42 199.386 11.024 199.386 11.844C199.386 12.656 199.516 13.258 199.776 13.65C200.036 14.038 200.426 14.232 200.946 14.232C201.466 14.232 201.856 14.038 202.116 13.65C202.376 13.258 202.506 12.652 202.506 11.832C202.506 11.016 202.376 10.414 202.116 10.026C201.86 9.638 201.474 9.444 200.958 9.444ZM205.687 15V8.676H206.677L206.761 9.528C207.021 9.204 207.337 8.956 207.709 8.784C208.085 8.612 208.459 8.526 208.831 8.526C209.439 8.526 209.887 8.692 210.175 9.024C210.463 9.352 210.607 9.81 210.607 10.398V15H209.455V11.106C209.455 10.706 209.431 10.382 209.383 10.134C209.339 9.882 209.245 9.7 209.101 9.588C208.957 9.476 208.739 9.42 208.447 9.42C208.219 9.42 208.003 9.47 207.799 9.57C207.595 9.67 207.411 9.796 207.247 9.948C207.087 10.1 206.951 10.258 206.839 10.422V15H205.687ZM215.096 14.232C215.556 14.232 215.918 14.148 216.182 13.98C216.45 13.812 216.584 13.584 216.584 13.296C216.584 13.112 216.548 12.954 216.476 12.822C216.408 12.69 216.264 12.57 216.044 12.462C215.828 12.354 215.5 12.244 215.06 12.132C214.632 12.024 214.258 11.898 213.938 11.754C213.618 11.61 213.37 11.422 213.194 11.19C213.022 10.958 212.936 10.658 212.936 10.29C212.936 9.93 213.036 9.618 213.236 9.354C213.44 9.09 213.726 8.886 214.094 8.742C214.466 8.598 214.898 8.526 215.39 8.526C215.91 8.526 216.362 8.596 216.746 8.736C217.134 8.872 217.462 9.04 217.73 9.24L217.238 9.99C216.994 9.826 216.726 9.692 216.434 9.588C216.146 9.484 215.806 9.432 215.414 9.432C214.946 9.432 214.612 9.504 214.412 9.648C214.216 9.788 214.118 9.974 214.118 10.206C214.118 10.378 214.166 10.522 214.262 10.638C214.362 10.75 214.532 10.854 214.772 10.95C215.012 11.046 215.344 11.152 215.768 11.268C216.18 11.38 216.54 11.512 216.848 11.664C217.156 11.816 217.394 12.016 217.562 12.264C217.734 12.508 217.82 12.83 217.82 13.23C217.82 13.682 217.69 14.05 217.43 14.334C217.17 14.614 216.832 14.82 216.416 14.952C216.004 15.084 215.564 15.15 215.096 15.15C214.52 15.15 214.024 15.066 213.608 14.898C213.196 14.73 212.85 14.524 212.57 14.28L213.206 13.548C213.454 13.752 213.738 13.918 214.058 14.046C214.378 14.17 214.724 14.232 215.096 14.232Z" fill="#15803D"/>
<path d="M117.5 52.69C117.5 53.17 117.378 53.596 117.134 53.968C116.894 54.336 116.546 54.626 116.09 54.838C115.634 55.046 115.078 55.15 114.422 55.15C113.79 55.15 113.226 55.054 112.73 54.862C112.234 54.67 111.812 54.406 111.464 54.07L112.142 53.308C112.43 53.576 112.76 53.788 113.132 53.944C113.504 54.1 113.938 54.178 114.434 54.178C114.758 54.178 115.058 54.126 115.334 54.022C115.614 53.914 115.838 53.754 116.006 53.542C116.178 53.326 116.264 53.056 116.264 52.732C116.264 52.472 116.212 52.252 116.108 52.072C116.008 51.892 115.83 51.732 115.574 51.592C115.318 51.452 114.96 51.314 114.5 51.178C113.94 51.01 113.46 50.824 113.06 50.62C112.664 50.412 112.36 50.158 112.148 49.858C111.94 49.558 111.836 49.19 111.836 48.754C111.836 48.326 111.954 47.95 112.19 47.626C112.426 47.298 112.75 47.042 113.162 46.858C113.578 46.674 114.052 46.582 114.584 46.582C115.164 46.582 115.67 46.666 116.102 46.834C116.538 46.998 116.93 47.236 117.278 47.548L116.618 48.292C116.326 48.032 116.01 47.844 115.67 47.728C115.33 47.608 114.986 47.548 114.638 47.548C114.346 47.548 114.08 47.592 113.84 47.68C113.6 47.764 113.408 47.89 113.264 48.058C113.124 48.226 113.054 48.44 113.054 48.7C113.054 48.928 113.116 49.124 113.24 49.288C113.364 49.448 113.574 49.598 113.87 49.738C114.166 49.874 114.568 50.018 115.076 50.17C115.52 50.298 115.926 50.458 116.294 50.65C116.662 50.842 116.954 51.1 117.17 51.424C117.39 51.744 117.5 52.166 117.5 52.69ZM124.479 54.676C124.255 54.82 123.985 54.934 123.669 55.018C123.353 55.106 123.037 55.15 122.721 55.15C122.017 55.15 121.477 54.966 121.101 54.598C120.729 54.23 120.543 53.752 120.543 53.164V49.54H119.109V48.676H120.543V47.248L121.695 47.11V48.676H123.855L123.723 49.54H121.695V53.152C121.695 53.5 121.783 53.762 121.959 53.938C122.139 54.114 122.437 54.202 122.853 54.202C123.089 54.202 123.305 54.174 123.501 54.118C123.697 54.062 123.879 53.99 124.047 53.902L124.479 54.676ZM126.599 55V54.148H127.559V49.528H126.599V48.676H128.441L128.651 50.158C128.891 49.634 129.185 49.232 129.533 48.952C129.885 48.668 130.341 48.526 130.901 48.526C131.085 48.526 131.247 48.54 131.387 48.568C131.531 48.596 131.677 48.632 131.825 48.676L131.483 49.684C131.351 49.644 131.231 49.616 131.123 49.6C131.015 49.584 130.891 49.576 130.751 49.576C130.275 49.576 129.867 49.748 129.527 50.092C129.187 50.436 128.915 50.942 128.711 51.61V54.148H129.995V55H126.599ZM130.757 50.896V49.444L130.889 48.676H131.825L131.645 50.896H130.757ZM138.396 53.548C138.396 53.8 138.436 53.984 138.516 54.1C138.596 54.212 138.722 54.296 138.894 54.352L138.624 55.144C138.336 55.108 138.086 55.022 137.874 54.886C137.662 54.75 137.504 54.542 137.4 54.262C137.172 54.554 136.884 54.776 136.536 54.928C136.188 55.076 135.81 55.15 135.402 55.15C134.766 55.15 134.264 54.97 133.896 54.61C133.528 54.25 133.344 53.776 133.344 53.188C133.344 52.528 133.6 52.022 134.112 51.67C134.628 51.318 135.368 51.142 136.332 51.142H137.25V50.662C137.25 50.226 137.12 49.916 136.86 49.732C136.604 49.548 136.246 49.456 135.786 49.456C135.578 49.456 135.33 49.482 135.042 49.534C134.754 49.586 134.448 49.668 134.124 49.78L133.83 48.94C134.222 48.792 134.596 48.686 134.952 48.622C135.312 48.558 135.648 48.526 135.96 48.526C136.776 48.526 137.386 48.712 137.79 49.084C138.194 49.452 138.396 49.958 138.396 50.602V53.548ZM135.726 54.286C136.022 54.286 136.306 54.21 136.578 54.058C136.85 53.906 137.074 53.694 137.25 53.422V51.892H136.41C135.742 51.892 135.268 52.006 134.988 52.234C134.708 52.458 134.568 52.766 134.568 53.158C134.568 53.526 134.664 53.806 134.856 53.998C135.048 54.19 135.338 54.286 135.726 54.286ZM143.869 48.526C144.429 48.526 144.877 48.664 145.213 48.94C145.549 49.212 145.791 49.596 145.939 50.092C146.087 50.584 146.161 51.164 146.161 51.832C146.161 52.472 146.071 53.042 145.891 53.542C145.711 54.042 145.441 54.436 145.081 54.724C144.721 55.008 144.269 55.15 143.725 55.15C143.041 55.15 142.493 54.91 142.081 54.43V57.424L140.929 57.562V48.676H141.919L142.003 49.528C142.239 49.204 142.517 48.956 142.837 48.784C143.157 48.612 143.501 48.526 143.869 48.526ZM143.575 49.432C143.247 49.432 142.957 49.532 142.705 49.732C142.453 49.928 142.245 50.152 142.081 50.404V53.464C142.241 53.7 142.437 53.886 142.669 54.022C142.901 54.154 143.159 54.22 143.443 54.22C143.939 54.22 144.313 54.028 144.565 53.644C144.817 53.256 144.943 52.652 144.943 51.832C144.943 51.284 144.893 50.834 144.793 50.482C144.693 50.126 144.541 49.862 144.337 49.69C144.137 49.518 143.883 49.432 143.575 49.432ZM151.437 48.676V54.124H153.195V55H148.359V54.124H150.285V49.552H148.419V48.676H151.437ZM150.579 45.652C150.819 45.652 151.011 45.726 151.155 45.874C151.303 46.022 151.377 46.202 151.377 46.414C151.377 46.634 151.303 46.82 151.155 46.972C151.011 47.12 150.819 47.194 150.579 47.194C150.343 47.194 150.151 47.12 150.003 46.972C149.859 46.82 149.787 46.634 149.787 46.414C149.787 46.202 149.859 46.022 150.003 45.874C150.151 45.726 150.343 45.652 150.579 45.652ZM160.864 50.872C160.864 51.712 160.748 52.454 160.516 53.098C160.284 53.742 159.938 54.246 159.478 54.61C159.022 54.97 158.454 55.15 157.774 55.15C157.098 55.15 156.53 54.974 156.07 54.622C155.61 54.266 155.264 53.768 155.032 53.128C154.8 52.488 154.684 51.74 154.684 50.884C154.684 50.04 154.8 49.296 155.032 48.652C155.264 48.004 155.61 47.498 156.07 47.134C156.53 46.766 157.098 46.582 157.774 46.582C158.454 46.582 159.022 46.76 159.478 47.116C159.938 47.472 160.284 47.972 160.516 48.616C160.748 49.256 160.864 50.008 160.864 50.872ZM159.622 50.872C159.622 49.784 159.478 48.958 159.19 48.394C158.906 47.83 158.434 47.548 157.774 47.548C157.114 47.548 156.64 47.832 156.352 48.4C156.068 48.968 155.926 49.796 155.926 50.884C155.926 51.968 156.074 52.79 156.37 53.35C156.666 53.906 157.134 54.184 157.774 54.184C158.434 54.184 158.906 53.904 159.19 53.344C159.478 52.784 159.622 51.96 159.622 50.872ZM165.455 48.526C166.015 48.526 166.463 48.664 166.799 48.94C167.135 49.212 167.377 49.596 167.525 50.092C167.673 50.584 167.747 51.164 167.747 51.832C167.747 52.472 167.657 53.042 167.477 53.542C167.297 54.042 167.027 54.436 166.667 54.724C166.307 55.008 165.855 55.15 165.311 55.15C164.627 55.15 164.079 54.91 163.667 54.43V57.424L162.515 57.562V48.676H163.505L163.589 49.528C163.825 49.204 164.103 48.956 164.423 48.784C164.743 48.612 165.087 48.526 165.455 48.526ZM165.161 49.432C164.833 49.432 164.543 49.532 164.291 49.732C164.039 49.928 163.831 50.152 163.667 50.404V53.464C163.827 53.7 164.023 53.886 164.255 54.022C164.487 54.154 164.745 54.22 165.029 54.22C165.525 54.22 165.899 54.028 166.151 53.644C166.403 53.256 166.529 52.652 166.529 51.832C166.529 51.284 166.479 50.834 166.379 50.482C166.279 50.126 166.127 49.862 165.923 49.69C165.723 49.518 165.469 49.432 165.161 49.432ZM174.846 54.676C174.622 54.82 174.352 54.934 174.036 55.018C173.72 55.106 173.404 55.15 173.088 55.15C172.384 55.15 171.844 54.966 171.468 54.598C171.096 54.23 170.91 53.752 170.91 53.164V49.54H169.476V48.676H170.91V47.248L172.062 47.11V48.676H174.222L174.09 49.54H172.062V53.152C172.062 53.5 172.15 53.762 172.326 53.938C172.506 54.114 172.804 54.202 173.22 54.202C173.456 54.202 173.672 54.174 173.868 54.118C174.064 54.062 174.246 53.99 174.414 53.902L174.846 54.676ZM180.218 48.676V54.124H181.976V55H177.14V54.124H179.066V49.552H177.2V48.676H180.218ZM179.36 45.652C179.6 45.652 179.792 45.726 179.936 45.874C180.084 46.022 180.158 46.202 180.158 46.414C180.158 46.634 180.084 46.82 179.936 46.972C179.792 47.12 179.6 47.194 179.36 47.194C179.124 47.194 178.932 47.12 178.784 46.972C178.64 46.82 178.568 46.634 178.568 46.414C178.568 46.202 178.64 46.022 178.784 45.874C178.932 45.726 179.124 45.652 179.36 45.652ZM186.567 48.526C187.171 48.526 187.677 48.662 188.085 48.934C188.497 49.206 188.807 49.59 189.015 50.086C189.227 50.578 189.333 51.16 189.333 51.832C189.333 52.484 189.225 53.06 189.009 53.56C188.797 54.056 188.485 54.446 188.073 54.73C187.661 55.01 187.155 55.15 186.555 55.15C185.955 55.15 185.447 55.014 185.031 54.742C184.619 54.47 184.307 54.086 184.095 53.59C183.883 53.094 183.777 52.512 183.777 51.844C183.777 51.188 183.883 50.612 184.095 50.116C184.311 49.616 184.627 49.226 185.043 48.946C185.459 48.666 185.967 48.526 186.567 48.526ZM186.567 49.444C186.047 49.444 185.655 49.64 185.391 50.032C185.127 50.42 184.995 51.024 184.995 51.844C184.995 52.656 185.125 53.258 185.385 53.65C185.645 54.038 186.035 54.232 186.555 54.232C187.075 54.232 187.465 54.038 187.725 53.65C187.985 53.258 188.115 52.652 188.115 51.832C188.115 51.016 187.985 50.414 187.725 50.026C187.469 49.638 187.083 49.444 186.567 49.444ZM191.296 55V48.676H192.286L192.37 49.528C192.63 49.204 192.946 48.956 193.318 48.784C193.694 48.612 194.068 48.526 194.44 48.526C195.048 48.526 195.496 48.692 195.784 49.024C196.072 49.352 196.216 49.81 196.216 50.398V55H195.064V51.106C195.064 50.706 195.04 50.382 194.992 50.134C194.948 49.882 194.854 49.7 194.71 49.588C194.566 49.476 194.348 49.42 194.056 49.42C193.828 49.42 193.612 49.47 193.408 49.57C193.204 49.67 193.02 49.796 192.856 49.948C192.696 50.1 192.56 50.258 192.448 50.422V55H191.296ZM200.706 54.232C201.166 54.232 201.528 54.148 201.792 53.98C202.06 53.812 202.194 53.584 202.194 53.296C202.194 53.112 202.158 52.954 202.086 52.822C202.018 52.69 201.874 52.57 201.654 52.462C201.438 52.354 201.11 52.244 200.67 52.132C200.242 52.024 199.868 51.898 199.548 51.754C199.228 51.61 198.98 51.422 198.804 51.19C198.632 50.958 198.546 50.658 198.546 50.29C198.546 49.93 198.646 49.618 198.846 49.354C199.05 49.09 199.336 48.886 199.704 48.742C200.076 48.598 200.508 48.526 201 48.526C201.52 48.526 201.972 48.596 202.356 48.736C202.744 48.872 203.072 49.04 203.34 49.24L202.848 49.99C202.604 49.826 202.336 49.692 202.044 49.588C201.756 49.484 201.416 49.432 201.024 49.432C200.556 49.432 200.222 49.504 200.022 49.648C199.826 49.788 199.728 49.974 199.728 50.206C199.728 50.378 199.776 50.522 199.872 50.638C199.972 50.75 200.142 50.854 200.382 50.95C200.622 51.046 200.954 51.152 201.378 51.268C201.79 51.38 202.15 51.512 202.458 51.664C202.766 51.816 203.004 52.016 203.172 52.264C203.344 52.508 203.43 52.83 203.43 53.23C203.43 53.682 203.3 54.05 203.04 54.334C202.78 54.614 202.442 54.82 202.026 54.952C201.614 55.084 201.174 55.15 200.706 55.15C200.13 55.15 199.634 55.066 199.218 54.898C198.806 54.73 198.46 54.524 198.18 54.28L198.816 53.548C199.064 53.752 199.348 53.918 199.668 54.046C199.988 54.17 200.334 54.232 200.706 54.232ZM144.433 75L141.643 67.83C141.651 67.934 141.663 68.096 141.679 68.316C141.695 68.536 141.713 68.794 141.733 69.09C141.753 69.386 141.769 69.7 141.781 70.032C141.797 70.364 141.805 70.694 141.805 71.022V75H140.725V66.732H142.303L145.123 73.92C145.115 73.784 145.097 73.558 145.069 73.242C145.041 72.922 145.015 72.544 144.991 72.108C144.971 71.668 144.961 71.202 144.961 70.71V66.732H146.041V75H144.433ZM149.613 67.668V70.326H152.649V71.268H149.613V74.07H153.327V75H148.419V66.732H153.237L153.099 67.668H149.613ZM154.708 66.732H156.052L157.774 69.822L159.508 66.732H160.786L158.464 70.536L161.056 75H159.712L157.75 71.358L155.77 75H154.492L157.048 70.596L154.708 66.732ZM165.545 67.722V75H164.357V67.722H161.813V66.732H168.131L168.005 67.722H165.545ZM169.164 77.184V76.206H175.164V77.184H169.164ZM181.22 69.306C181.22 68.898 181.14 68.574 180.98 68.334C180.82 68.09 180.6 67.916 180.32 67.812C180.04 67.704 179.716 67.65 179.348 67.65H178.238V71.046H179.33C179.698 71.046 180.024 70.994 180.308 70.89C180.592 70.786 180.814 70.608 180.974 70.356C181.138 70.1 181.22 69.75 181.22 69.306ZM182.48 69.294C182.48 69.938 182.342 70.458 182.066 70.854C181.794 71.246 181.416 71.532 180.932 71.712C180.452 71.892 179.898 71.982 179.27 71.982H178.238V75H177.044V66.732H179.234C180.242 66.732 181.034 66.942 181.61 67.362C182.19 67.778 182.48 68.422 182.48 69.294ZM189.345 66.732V72.306C189.345 72.866 189.231 73.36 189.003 73.788C188.779 74.212 188.457 74.546 188.037 74.79C187.621 75.03 187.123 75.15 186.543 75.15C185.959 75.15 185.459 75.03 185.043 74.79C184.627 74.55 184.309 74.216 184.089 73.788C183.873 73.36 183.765 72.866 183.765 72.306V66.732H184.953V72.216C184.953 72.864 185.087 73.35 185.355 73.674C185.623 73.998 186.019 74.16 186.543 74.16C187.075 74.16 187.475 73.998 187.743 73.674C188.011 73.35 188.145 72.864 188.145 72.216V66.732H189.345ZM195.436 72.648C195.436 72.252 195.358 71.946 195.202 71.73C195.05 71.51 194.844 71.358 194.584 71.274C194.328 71.19 194.044 71.148 193.732 71.148H192.418V74.046H193.678C193.878 74.046 194.08 74.028 194.284 73.992C194.492 73.956 194.682 73.888 194.854 73.788C195.03 73.688 195.17 73.546 195.274 73.362C195.382 73.178 195.436 72.94 195.436 72.648ZM195.112 68.898C195.112 68.45 194.972 68.132 194.692 67.944C194.416 67.752 194.034 67.656 193.546 67.656H192.418V70.212H193.642C194.122 70.212 194.486 70.108 194.734 69.9C194.986 69.692 195.112 69.358 195.112 68.898ZM196.684 72.63C196.684 73.086 196.594 73.466 196.414 73.77C196.238 74.074 195.998 74.316 195.694 74.496C195.394 74.676 195.056 74.806 194.68 74.886C194.308 74.962 193.926 75 193.534 75H191.23V66.732H193.36C193.732 66.732 194.094 66.766 194.446 66.834C194.798 66.898 195.114 67.01 195.394 67.17C195.678 67.326 195.904 67.54 196.072 67.812C196.24 68.08 196.324 68.416 196.324 68.82C196.324 69.168 196.25 69.466 196.102 69.714C195.958 69.958 195.77 70.156 195.538 70.308C195.306 70.456 195.058 70.56 194.794 70.62C195.098 70.672 195.394 70.768 195.682 70.908C195.974 71.044 196.214 71.25 196.402 71.526C196.59 71.798 196.684 72.166 196.684 72.63ZM198.888 75V66.732H200.082V73.968H203.826L203.694 75H198.888ZM210.559 66.732V67.662H208.741V74.064H210.559V75H205.723V74.064H207.541V67.662H205.723V66.732H210.559ZM216.032 66.582C216.58 66.582 217.04 66.652 217.412 66.792C217.788 66.932 218.14 67.136 218.468 67.404L217.826 68.16C217.57 67.948 217.298 67.794 217.01 67.698C216.726 67.598 216.424 67.548 216.104 67.548C215.672 67.548 215.27 67.654 214.898 67.866C214.53 68.078 214.234 68.426 214.01 68.91C213.786 69.394 213.674 70.044 213.674 70.86C213.674 71.656 213.78 72.296 213.992 72.78C214.208 73.26 214.498 73.61 214.862 73.83C215.23 74.046 215.64 74.154 216.092 74.154C216.548 74.154 216.922 74.084 217.214 73.944C217.51 73.8 217.77 73.636 217.994 73.452L218.588 74.214C218.328 74.466 217.99 74.686 217.574 74.874C217.162 75.058 216.658 75.15 216.062 75.15C215.378 75.15 214.762 74.986 214.214 74.658C213.666 74.33 213.232 73.848 212.912 73.212C212.596 72.572 212.438 71.788 212.438 70.86C212.438 69.932 212.6 69.15 212.924 68.514C213.252 67.878 213.688 67.398 214.232 67.074C214.78 66.746 215.38 66.582 216.032 66.582ZM219.532 77.184V76.206H225.532V77.184H219.532ZM232.625 72.69C232.625 73.17 232.503 73.596 232.259 73.968C232.019 74.336 231.671 74.626 231.215 74.838C230.759 75.046 230.203 75.15 229.547 75.15C228.915 75.15 228.351 75.054 227.855 74.862C227.359 74.67 226.937 74.406 226.589 74.07L227.267 73.308C227.555 73.576 227.885 73.788 228.257 73.944C228.629 74.1 229.063 74.178 229.559 74.178C229.883 74.178 230.183 74.126 230.459 74.022C230.739 73.914 230.963 73.754 231.131 73.542C231.303 73.326 231.389 73.056 231.389 72.732C231.389 72.472 231.337 72.252 231.233 72.072C231.133 71.892 230.955 71.732 230.699 71.592C230.443 71.452 230.085 71.314 229.625 71.178C229.065 71.01 228.585 70.824 228.185 70.62C227.789 70.412 227.485 70.158 227.273 69.858C227.065 69.558 226.961 69.19 226.961 68.754C226.961 68.326 227.079 67.95 227.315 67.626C227.551 67.298 227.875 67.042 228.287 66.858C228.703 66.674 229.177 66.582 229.709 66.582C230.289 66.582 230.795 66.666 231.227 66.834C231.663 66.998 232.055 67.236 232.403 67.548L231.743 68.292C231.451 68.032 231.135 67.844 230.795 67.728C230.455 67.608 230.111 67.548 229.763 67.548C229.471 67.548 229.205 67.592 228.965 67.68C228.725 67.764 228.533 67.89 228.389 68.058C228.249 68.226 228.179 68.44 228.179 68.7C228.179 68.928 228.241 69.124 228.365 69.288C228.489 69.448 228.699 69.598 228.995 69.738C229.291 69.874 229.693 70.018 230.201 70.17C230.645 70.298 231.051 70.458 231.419 70.65C231.787 70.842 232.079 71.1 232.295 71.424C232.515 71.744 232.625 72.166 232.625 72.69ZM237.498 67.722V75H236.31V67.722H233.766V66.732H240.084L239.958 67.722H237.498ZM247.016 69.078C247.016 69.49 246.928 69.848 246.752 70.152C246.58 70.456 246.346 70.71 246.05 70.914C245.754 71.114 245.422 71.262 245.054 71.358L247.46 75H246.05L243.872 71.514H242.846V75H241.652V66.732H243.854C244.894 66.732 245.68 66.93 246.212 67.326C246.748 67.718 247.016 68.302 247.016 69.078ZM245.75 69.078C245.75 68.57 245.602 68.204 245.306 67.98C245.014 67.756 244.564 67.644 243.956 67.644H242.846V70.608H243.968C244.536 70.608 244.974 70.492 245.282 70.26C245.594 70.024 245.75 69.63 245.75 69.078ZM252.849 72.942H249.717L249.093 75H247.899L250.563 66.732H252.063L254.733 75H253.473L252.849 72.942ZM249.993 71.988H252.573L251.289 67.692L249.993 71.988ZM260.368 69.306C260.368 68.898 260.288 68.574 260.128 68.334C259.968 68.09 259.748 67.916 259.468 67.812C259.188 67.704 258.864 67.65 258.496 67.65H257.386V71.046H258.478C258.846 71.046 259.172 70.994 259.456 70.89C259.74 70.786 259.962 70.608 260.122 70.356C260.286 70.1 260.368 69.75 260.368 69.306ZM261.628 69.294C261.628 69.938 261.49 70.458 261.214 70.854C260.942 71.246 260.564 71.532 260.08 71.712C259.6 71.892 259.046 71.982 258.418 71.982H257.386V75H256.192V66.732H258.382C259.39 66.732 260.182 66.942 260.758 67.362C261.338 67.778 261.628 68.422 261.628 69.294ZM268.122 66.732V67.662H266.304V74.064H268.122V75H263.286V74.064H265.104V67.662H263.286V66.732H268.122ZM269.899 77.184V76.206H275.899V77.184H269.899ZM282.884 66.732V72.306C282.884 72.866 282.77 73.36 282.542 73.788C282.318 74.212 281.996 74.546 281.576 74.79C281.16 75.03 280.662 75.15 280.082 75.15C279.498 75.15 278.998 75.03 278.582 74.79C278.166 74.55 277.848 74.216 277.628 73.788C277.412 73.36 277.304 72.866 277.304 72.306V66.732H278.492V72.216C278.492 72.864 278.626 73.35 278.894 73.674C279.162 73.998 279.558 74.16 280.082 74.16C280.614 74.16 281.014 73.998 281.282 73.674C281.55 73.35 281.684 72.864 281.684 72.216V66.732H282.884ZM290.187 69.078C290.187 69.49 290.099 69.848 289.923 70.152C289.751 70.456 289.517 70.71 289.221 70.914C288.925 71.114 288.593 71.262 288.225 71.358L290.631 75H289.221L287.043 71.514H286.017V75H284.823V66.732H287.025C288.065 66.732 288.851 66.93 289.383 67.326C289.919 67.718 290.187 68.302 290.187 69.078ZM288.921 69.078C288.921 68.57 288.773 68.204 288.477 67.98C288.185 67.756 287.735 67.644 287.127 67.644H286.017V70.608H287.139C287.707 70.608 288.145 70.492 288.453 70.26C288.765 70.024 288.921 69.63 288.921 69.078ZM292.427 75V66.732H293.621V73.968H297.365L297.233 75H292.427Z" fill="#1E3A8A"/>
</g>
<defs>
<filter id="filter0_f_519_10513" x="0.128265" y="0.967999" width="392.91" height="100.228" filterUnits="userSpaceOnUse" color-interpolation-filters="sRGB">
<feFlood flood-opacity="0" result="BackgroundImageFix"/>
<feBlend mode="normal" in="SourceGraphic" in2="BackgroundImageFix" result="shape"/>
<feGaussianBlur stdDeviation="2" result="effect1_foregroundBlur_519_10513"/>
</filter>
</defs>
</svg>
