<svg width="202" height="18" viewBox="0 0 202 18" fill="none" xmlns="http://www.w3.org/2000/svg">
<g filter="url(#filter0_f_519_10516)">
<path d="M2.16027 3.448L8.32827 7.256V8.704L2.22427 12.52L1.43227 11.408L7.00827 7.992L1.43227 4.592L2.16027 3.448ZM22.9798 3.224V6.936H27.2278V8.176H22.9798V13H21.3958V1.976H28.0118L27.8278 3.224H22.9798ZM30.4615 13V11.864H31.7415V5.704H30.4615V4.568H32.9175L33.1975 6.544C33.5175 5.84533 33.9095 5.30933 34.3735 4.936C34.8428 4.55733 35.4508 4.368 36.1975 4.368C36.4428 4.368 36.6588 4.38667 36.8455 4.424C37.0375 4.46133 37.2322 4.50933 37.4295 4.568L36.9735 5.912C36.7975 5.85867 36.6375 5.82133 36.4935 5.8C36.3495 5.77867 36.1842 5.768 35.9975 5.768C35.3628 5.768 34.8188 5.99733 34.3655 6.456C33.9122 6.91467 33.5495 7.58933 33.2775 8.48V11.864H34.9895V13H30.4615ZM36.0055 7.528V5.592L36.1815 4.568H37.4295L37.1895 7.528H36.0055ZM43.2633 4.368C44.0686 4.368 44.7433 4.54933 45.2873 4.912C45.8366 5.27467 46.2499 5.78667 46.5273 6.448C46.8099 7.104 46.9513 7.88 46.9513 8.776C46.9513 9.64533 46.8073 10.4133 46.5193 11.08C46.2366 11.7413 45.8206 12.2613 45.2713 12.64C44.7219 13.0133 44.0473 13.2 43.2473 13.2C42.4473 13.2 41.7699 13.0187 41.2153 12.656C40.6659 12.2933 40.2499 11.7813 39.9673 11.12C39.6846 10.4587 39.5433 9.68267 39.5433 8.792C39.5433 7.91733 39.6846 7.14933 39.9673 6.488C40.2553 5.82133 40.6766 5.30133 41.2313 4.928C41.7859 4.55467 42.4633 4.368 43.2633 4.368ZM43.2633 5.592C42.5699 5.592 42.0473 5.85333 41.6953 6.376C41.3433 6.89333 41.1673 7.69867 41.1673 8.792C41.1673 9.87467 41.3406 10.6773 41.6873 11.2C42.0339 11.7173 42.5539 11.976 43.2473 11.976C43.9406 11.976 44.4606 11.7173 44.8073 11.2C45.1539 10.6773 45.3273 9.86933 45.3273 8.776C45.3273 7.688 45.1539 6.88533 44.8073 6.368C44.4659 5.85067 43.9513 5.592 43.2633 5.592ZM49.569 13V4.568H50.889L51.001 5.704C51.3477 5.272 51.769 4.94133 52.265 4.712C52.7663 4.48267 53.265 4.368 53.761 4.368C54.5717 4.368 55.169 4.58933 55.553 5.032C55.937 5.46933 56.129 6.08 56.129 6.864V13H54.593V7.808C54.593 7.27467 54.561 6.84267 54.497 6.512C54.4383 6.176 54.313 5.93333 54.121 5.784C53.929 5.63467 53.6383 5.56 53.249 5.56C52.945 5.56 52.657 5.62667 52.385 5.76C52.113 5.89333 51.8677 6.06133 51.649 6.264C51.4357 6.46667 51.2543 6.67733 51.105 6.896V13H49.569ZM66.0108 12.568C65.7121 12.76 65.3521 12.912 64.9308 13.024C64.5094 13.1413 64.0881 13.2 63.6668 13.2C62.7281 13.2 62.0081 12.9547 61.5068 12.464C61.0108 11.9733 60.7628 11.336 60.7628 10.552V5.72H58.8508V4.568H60.7628V2.664L62.2988 2.48V4.568H65.1788L65.0028 5.72H62.2988V10.536C62.2988 11 62.4161 11.3493 62.6508 11.584C62.8908 11.8187 63.2881 11.936 63.8428 11.936C64.1574 11.936 64.4454 11.8987 64.7068 11.824C64.9681 11.7493 65.2108 11.6533 65.4348 11.536L66.0108 12.568ZM68.7805 9.28V7.984H75.2765V9.28H68.7805ZM79.5903 9.304C79.6223 9.92267 79.7476 10.4293 79.9663 10.824C80.1849 11.2133 80.4703 11.5013 80.8223 11.688C81.1743 11.8693 81.5636 11.96 81.9903 11.96C82.4116 11.96 82.7983 11.896 83.1503 11.768C83.5023 11.64 83.8596 11.4533 84.2223 11.208L84.9183 12.176C84.5236 12.4907 84.0676 12.7413 83.5503 12.928C83.0329 13.1093 82.4969 13.2 81.9423 13.2C81.0996 13.2 80.3823 13.016 79.7903 12.648C79.2036 12.2747 78.7556 11.7573 78.4463 11.096C78.1423 10.4347 77.9903 9.66667 77.9903 8.792C77.9903 7.944 78.1423 7.18667 78.4463 6.52C78.7556 5.85333 79.1903 5.328 79.7503 4.944C80.3103 4.56 80.9769 4.368 81.7503 4.368C82.4756 4.368 83.0996 4.536 83.6223 4.872C84.1503 5.208 84.5556 5.688 84.8383 6.312C85.1209 6.93067 85.2623 7.672 85.2623 8.536C85.2623 8.68 85.2596 8.81867 85.2543 8.952C85.2489 9.08533 85.2409 9.20267 85.2303 9.304H79.5903ZM81.7663 5.568C81.1689 5.568 80.6703 5.78133 80.2703 6.208C79.8756 6.63467 79.6489 7.29333 79.5903 8.184H83.7823C83.7663 7.33067 83.5796 6.68267 83.2223 6.24C82.8703 5.792 82.3849 5.568 81.7663 5.568ZM87.944 13V4.568H89.264L89.376 5.704C89.7227 5.272 90.144 4.94133 90.64 4.712C91.1413 4.48267 91.64 4.368 92.136 4.368C92.9467 4.368 93.544 4.58933 93.928 5.032C94.312 5.46933 94.504 6.08 94.504 6.864V13H92.968V7.808C92.968 7.27467 92.936 6.84267 92.872 6.512C92.8133 6.176 92.688 5.93333 92.496 5.784C92.304 5.63467 92.0133 5.56 91.624 5.56C91.32 5.56 91.032 5.62667 90.76 5.76C90.488 5.89333 90.2427 6.06133 90.024 6.264C89.8107 6.46667 89.6293 6.67733 89.48 6.896V13H87.944ZM102.546 0.992L104.082 1.176V13H102.73L102.602 11.92C102.303 12.3467 101.951 12.6667 101.546 12.88C101.14 13.0933 100.698 13.2 100.218 13.2C99.4924 13.2 98.8924 13.016 98.4178 12.648C97.9484 12.2747 97.5991 11.7573 97.3698 11.096C97.1404 10.4347 97.0258 9.66667 97.0258 8.792C97.0258 7.93867 97.1564 7.18133 97.4178 6.52C97.6844 5.85333 98.0631 5.328 98.5538 4.944C99.0498 4.56 99.6471 4.368 100.346 4.368C100.81 4.368 101.223 4.45067 101.586 4.616C101.948 4.776 102.268 5.01333 102.546 5.328V0.992ZM100.746 5.576C100.09 5.576 99.5804 5.84 99.2178 6.368C98.8551 6.896 98.6738 7.704 98.6738 8.792C98.6738 9.512 98.7484 10.1093 98.8978 10.584C99.0471 11.0587 99.2631 11.4107 99.5458 11.64C99.8284 11.8693 100.175 11.984 100.586 11.984C101.028 11.984 101.41 11.856 101.73 11.6C102.055 11.344 102.327 11.048 102.546 10.712V6.592C102.327 6.272 102.063 6.024 101.754 5.848C101.45 5.66667 101.114 5.576 100.746 5.576ZM121.733 0.992L123.269 1.176V13H121.917L121.789 11.92C121.491 12.3467 121.139 12.6667 120.733 12.88C120.328 13.0933 119.885 13.2 119.405 13.2C118.68 13.2 118.08 13.016 117.605 12.648C117.136 12.2747 116.787 11.7573 116.557 11.096C116.328 10.4347 116.213 9.66667 116.213 8.792C116.213 7.93867 116.344 7.18133 116.605 6.52C116.872 5.85333 117.251 5.328 117.741 4.944C118.237 4.56 118.835 4.368 119.533 4.368C119.997 4.368 120.411 4.45067 120.773 4.616C121.136 4.776 121.456 5.01333 121.733 5.328V0.992ZM119.933 5.576C119.277 5.576 118.768 5.84 118.405 6.368C118.043 6.896 117.861 7.704 117.861 8.792C117.861 9.512 117.936 10.1093 118.085 10.584C118.235 11.0587 118.451 11.4107 118.733 11.64C119.016 11.8693 119.363 11.984 119.773 11.984C120.216 11.984 120.597 11.856 120.917 11.6C121.243 11.344 121.515 11.048 121.733 10.712V6.592C121.515 6.272 121.251 6.024 120.941 5.848C120.637 5.66667 120.301 5.576 119.933 5.576ZM127.559 9.304C127.591 9.92267 127.716 10.4293 127.935 10.824C128.154 11.2133 128.439 11.5013 128.791 11.688C129.143 11.8693 129.532 11.96 129.959 11.96C130.38 11.96 130.767 11.896 131.119 11.768C131.471 11.64 131.828 11.4533 132.191 11.208L132.887 12.176C132.492 12.4907 132.036 12.7413 131.519 12.928C131.002 13.1093 130.466 13.2 129.911 13.2C129.068 13.2 128.351 13.016 127.759 12.648C127.172 12.2747 126.724 11.7573 126.415 11.096C126.111 10.4347 125.959 9.66667 125.959 8.792C125.959 7.944 126.111 7.18667 126.415 6.52C126.724 5.85333 127.159 5.328 127.719 4.944C128.279 4.56 128.946 4.368 129.719 4.368C130.444 4.368 131.068 4.536 131.591 4.872C132.119 5.208 132.524 5.688 132.807 6.312C133.09 6.93067 133.231 7.672 133.231 8.536C133.231 8.68 133.228 8.81867 133.223 8.952C133.218 9.08533 133.21 9.20267 133.199 9.304H127.559ZM129.735 5.568C129.138 5.568 128.639 5.78133 128.239 6.208C127.844 6.63467 127.618 7.29333 127.559 8.184H131.751C131.735 7.33067 131.548 6.68267 131.191 6.24C130.839 5.792 130.354 5.568 129.735 5.568ZM143.097 4.568L140.073 13H138.281L135.273 4.568H136.905L139.217 11.664L141.521 4.568H143.097ZM146.747 9.304C146.779 9.92267 146.904 10.4293 147.123 10.824C147.341 11.2133 147.627 11.5013 147.979 11.688C148.331 11.8693 148.72 11.96 149.147 11.96C149.568 11.96 149.955 11.896 150.307 11.768C150.659 11.64 151.016 11.4533 151.379 11.208L152.075 12.176C151.68 12.4907 151.224 12.7413 150.707 12.928C150.189 13.1093 149.653 13.2 149.099 13.2C148.256 13.2 147.539 13.016 146.947 12.648C146.36 12.2747 145.912 11.7573 145.603 11.096C145.299 10.4347 145.147 9.66667 145.147 8.792C145.147 7.944 145.299 7.18667 145.603 6.52C145.912 5.85333 146.347 5.328 146.907 4.944C147.467 4.56 148.133 4.368 148.907 4.368C149.632 4.368 150.256 4.536 150.779 4.872C151.307 5.208 151.712 5.688 151.995 6.312C152.277 6.93067 152.419 7.672 152.419 8.536C152.419 8.68 152.416 8.81867 152.411 8.952C152.405 9.08533 152.397 9.20267 152.387 9.304H146.747ZM148.923 5.568C148.325 5.568 147.827 5.78133 147.427 6.208C147.032 6.63467 146.805 7.29333 146.747 8.184H150.939C150.923 7.33067 150.736 6.68267 150.379 6.24C150.027 5.792 149.541 5.568 148.923 5.568ZM158.564 1.176V10.824C158.564 11.2293 158.69 11.5173 158.94 11.688C159.191 11.8533 159.514 11.936 159.908 11.936C160.159 11.936 160.396 11.9093 160.62 11.856C160.844 11.8027 161.068 11.7333 161.292 11.648L161.692 12.744C161.458 12.8613 161.164 12.9653 160.812 13.056C160.46 13.152 160.063 13.2 159.62 13.2C158.831 13.2 158.202 12.9787 157.732 12.536C157.263 12.0933 157.028 11.4853 157.028 10.712V2.344H154.46V1.176H158.564ZM167.982 4.368C168.787 4.368 169.462 4.54933 170.006 4.912C170.555 5.27467 170.969 5.78667 171.246 6.448C171.529 7.104 171.67 7.88 171.67 8.776C171.67 9.64533 171.526 10.4133 171.238 11.08C170.955 11.7413 170.539 12.2613 169.99 12.64C169.441 13.0133 168.766 13.2 167.966 13.2C167.166 13.2 166.489 13.0187 165.934 12.656C165.385 12.2933 164.969 11.7813 164.686 11.12C164.403 10.4587 164.262 9.68267 164.262 8.792C164.262 7.91733 164.403 7.14933 164.686 6.488C164.974 5.82133 165.395 5.30133 165.95 4.928C166.505 4.55467 167.182 4.368 167.982 4.368ZM167.982 5.592C167.289 5.592 166.766 5.85333 166.414 6.376C166.062 6.89333 165.886 7.69867 165.886 8.792C165.886 9.87467 166.059 10.6773 166.406 11.2C166.753 11.7173 167.273 11.976 167.966 11.976C168.659 11.976 169.179 11.7173 169.526 11.2C169.873 10.6773 170.046 9.86933 170.046 8.776C170.046 7.688 169.873 6.88533 169.526 6.368C169.185 5.85067 168.67 5.592 167.982 5.592ZM178.208 4.368C178.954 4.368 179.552 4.552 180 4.92C180.448 5.28267 180.77 5.79467 180.968 6.456C181.165 7.112 181.264 7.88533 181.264 8.776C181.264 9.62933 181.144 10.3893 180.904 11.056C180.664 11.7227 180.304 12.248 179.824 12.632C179.344 13.0107 178.741 13.2 178.016 13.2C177.104 13.2 176.373 12.88 175.824 12.24V16.232L174.288 16.416V4.568H175.608L175.72 5.704C176.034 5.272 176.405 4.94133 176.832 4.712C177.258 4.48267 177.717 4.368 178.208 4.368ZM177.816 5.576C177.378 5.576 176.992 5.70933 176.656 5.976C176.32 6.23733 176.042 6.536 175.824 6.872V10.952C176.037 11.2667 176.298 11.5147 176.608 11.696C176.917 11.872 177.261 11.96 177.64 11.96C178.301 11.96 178.8 11.704 179.136 11.192C179.472 10.6747 179.64 9.86933 179.64 8.776C179.64 8.04533 179.573 7.44533 179.44 6.976C179.306 6.50133 179.104 6.14933 178.832 5.92C178.565 5.69067 178.226 5.576 177.816 5.576ZM185.122 9.304C185.154 9.92267 185.279 10.4293 185.498 10.824C185.716 11.2133 186.002 11.5013 186.354 11.688C186.706 11.8693 187.095 11.96 187.522 11.96C187.943 11.96 188.33 11.896 188.682 11.768C189.034 11.64 189.391 11.4533 189.754 11.208L190.45 12.176C190.055 12.4907 189.599 12.7413 189.082 12.928C188.564 13.1093 188.028 13.2 187.474 13.2C186.631 13.2 185.914 13.016 185.322 12.648C184.735 12.2747 184.287 11.7573 183.978 11.096C183.674 10.4347 183.522 9.66667 183.522 8.792C183.522 7.944 183.674 7.18667 183.978 6.52C184.287 5.85333 184.722 5.328 185.282 4.944C185.842 4.56 186.508 4.368 187.282 4.368C188.007 4.368 188.631 4.536 189.154 4.872C189.682 5.208 190.087 5.688 190.37 6.312C190.652 6.93067 190.794 7.672 190.794 8.536C190.794 8.68 190.791 8.81867 190.786 8.952C190.78 9.08533 190.772 9.20267 190.762 9.304H185.122ZM187.298 5.568C186.7 5.568 186.202 5.78133 185.802 6.208C185.407 6.63467 185.18 7.29333 185.122 8.184H189.314C189.298 7.33067 189.111 6.68267 188.754 6.24C188.402 5.792 187.916 5.568 187.298 5.568ZM193.555 13V11.864H194.835V5.704H193.555V4.568H196.011L196.291 6.544C196.611 5.84533 197.003 5.30933 197.467 4.936C197.937 4.55733 198.545 4.368 199.291 4.368C199.537 4.368 199.753 4.38667 199.939 4.424C200.131 4.46133 200.326 4.50933 200.523 4.568L200.067 5.912C199.891 5.85867 199.731 5.82133 199.587 5.8C199.443 5.77867 199.278 5.768 199.091 5.768C198.457 5.768 197.913 5.99733 197.459 6.456C197.006 6.91467 196.643 7.58933 196.371 8.48V11.864H198.083V13H193.555ZM199.099 7.528V5.592L199.275 4.568H200.523L200.283 7.528H199.099Z" fill="#1E3A8A"/>
</g>
<defs>
<filter id="filter0_f_519_10516" x="0.432251" y="-0.00799561" width="201.091" height="17.424" filterUnits="userSpaceOnUse" color-interpolation-filters="sRGB">
<feFlood flood-opacity="0" result="BackgroundImageFix"/>
<feBlend mode="normal" in="SourceGraphic" in2="BackgroundImageFix" result="shape"/>
<feGaussianBlur stdDeviation="0.5" result="effect1_foregroundBlur_519_10516"/>
</filter>
</defs>
</svg>
