<svg width="311" height="19" viewBox="0 0 311 19" fill="none" xmlns="http://www.w3.org/2000/svg">
<g opacity="0.75" filter="url(#filter0_f_519_10514)">
<path d="M5.83927 13.041C6.1986 13.041 6.53227 12.9803 6.84027 12.859C7.15293 12.7377 7.4446 12.5837 7.71527 12.397L8.35927 13.272C8.03727 13.5473 7.6476 13.7667 7.19027 13.93C6.73293 14.0933 6.2756 14.175 5.81827 14.175C5.07627 14.175 4.4416 14.0163 3.91427 13.699C3.3916 13.3817 2.9926 12.936 2.71727 12.362C2.44193 11.788 2.30427 11.116 2.30427 10.346C2.30427 9.59933 2.44193 8.932 2.71727 8.344C2.99727 7.756 3.40093 7.294 3.92827 6.958C4.4556 6.61733 5.0926 6.447 5.83927 6.447C6.3246 6.447 6.77493 6.52167 7.19027 6.671C7.61027 6.81567 7.99527 7.03033 8.34527 7.315L7.70827 8.19C7.40493 7.98 7.09927 7.82133 6.79127 7.714C6.48327 7.602 6.16827 7.546 5.84627 7.546C5.23027 7.546 4.72627 7.77467 4.33427 8.232C3.94227 8.68933 3.74627 9.394 3.74627 10.346C3.74627 10.9807 3.83493 11.4963 4.01227 11.893C4.19427 12.2897 4.44393 12.5813 4.76127 12.768C5.0786 12.95 5.43793 13.041 5.83927 13.041ZM13.6808 6.447C14.3855 6.447 14.9758 6.60567 15.4518 6.923C15.9325 7.24033 16.2941 7.68833 16.5368 8.267C16.7841 8.841 16.9078 9.52 16.9078 10.304C16.9078 11.0647 16.7818 11.7367 16.5298 12.32C16.2825 12.8987 15.9185 13.3537 15.4378 13.685C14.9571 14.0117 14.3668 14.175 13.6668 14.175C12.9668 14.175 12.3741 14.0163 11.8888 13.699C11.4081 13.3817 11.0441 12.9337 10.7968 12.355C10.5495 11.7763 10.4258 11.0973 10.4258 10.318C10.4258 9.55267 10.5495 8.88067 10.7968 8.302C11.0488 7.71867 11.4175 7.26367 11.9028 6.937C12.3881 6.61033 12.9808 6.447 13.6808 6.447ZM13.6808 7.518C13.0741 7.518 12.6168 7.74667 12.3088 8.204C12.0008 8.65667 11.8468 9.36133 11.8468 10.318C11.8468 11.2653 11.9985 11.9677 12.3018 12.425C12.6051 12.8777 13.0601 13.104 13.6668 13.104C14.2735 13.104 14.7285 12.8777 15.0318 12.425C15.3351 11.9677 15.4868 11.2607 15.4868 10.304C15.4868 9.352 15.3351 8.64967 15.0318 8.197C14.7331 7.74433 14.2828 7.518 13.6808 7.518ZM19.1983 14V6.622H20.3533L20.4513 7.616C20.7547 7.238 21.1233 6.94867 21.5573 6.748C21.996 6.54733 22.4323 6.447 22.8663 6.447C23.5757 6.447 24.0983 6.64067 24.4343 7.028C24.7703 7.41067 24.9383 7.945 24.9383 8.631V14H23.5943V9.457C23.5943 8.99033 23.5663 8.61233 23.5103 8.323C23.459 8.029 23.3493 7.81667 23.1813 7.686C23.0133 7.55533 22.759 7.49 22.4183 7.49C22.1523 7.49 21.9003 7.54833 21.6623 7.665C21.4243 7.78167 21.2097 7.92867 21.0183 8.106C20.8317 8.28333 20.673 8.46767 20.5423 8.659V14H19.1983ZM30.1759 13.104C30.7125 13.104 31.1349 13.006 31.4429 12.81C31.7555 12.614 31.9119 12.348 31.9119 12.012C31.9119 11.7973 31.8699 11.613 31.7859 11.459C31.7065 11.305 31.5385 11.165 31.2819 11.039C31.0299 10.913 30.6472 10.7847 30.1339 10.654C29.6345 10.528 29.1982 10.381 28.8249 10.213C28.4515 10.045 28.1622 9.82567 27.9569 9.555C27.7562 9.28433 27.6559 8.93433 27.6559 8.505C27.6559 8.085 27.7725 7.721 28.0059 7.413C28.2439 7.105 28.5775 6.867 29.0069 6.699C29.4409 6.531 29.9449 6.447 30.5189 6.447C31.1255 6.447 31.6529 6.52867 32.1009 6.692C32.5535 6.85067 32.9362 7.04667 33.2489 7.28L32.6749 8.155C32.3902 7.96367 32.0775 7.80733 31.7369 7.686C31.4009 7.56467 31.0042 7.504 30.5469 7.504C30.0009 7.504 29.6112 7.588 29.3779 7.756C29.1492 7.91933 29.0349 8.13633 29.0349 8.407C29.0349 8.60767 29.0909 8.77567 29.2029 8.911C29.3195 9.04167 29.5179 9.163 29.7979 9.275C30.0779 9.387 30.4652 9.51067 30.9599 9.646C31.4405 9.77667 31.8605 9.93067 32.2199 10.108C32.5792 10.2853 32.8569 10.5187 33.0529 10.808C33.2535 11.0927 33.3539 11.4683 33.3539 11.935C33.3539 12.4623 33.2022 12.8917 32.8989 13.223C32.5955 13.5497 32.2012 13.79 31.7159 13.944C31.2352 14.098 30.7219 14.175 30.1759 14.175C29.5039 14.175 28.9252 14.077 28.4399 13.881C27.9592 13.685 27.5555 13.4447 27.2289 13.16L27.9709 12.306C28.2602 12.544 28.5915 12.7377 28.9649 12.887C29.3382 13.0317 29.7419 13.104 30.1759 13.104ZM41.9794 13.622C41.7181 13.79 41.4031 13.923 41.0344 14.021C40.6657 14.1237 40.2971 14.175 39.9284 14.175C39.1071 14.175 38.4771 13.9603 38.0384 13.531C37.6044 13.1017 37.3874 12.544 37.3874 11.858V7.63H35.7144V6.622H37.3874V4.956L38.7314 4.795V6.622H41.2514L41.0974 7.63H38.7314V11.844C38.7314 12.25 38.8341 12.5557 39.0394 12.761C39.2494 12.9663 39.5971 13.069 40.0824 13.069C40.3577 13.069 40.6097 13.0363 40.8384 12.971C41.0671 12.9057 41.2794 12.8217 41.4754 12.719L41.9794 13.622ZM195.483 14V6.622H196.638L196.736 7.616C197.04 7.238 197.408 6.94867 197.842 6.748C198.281 6.54733 198.717 6.447 199.151 6.447C199.861 6.447 200.383 6.64067 200.719 7.028C201.055 7.41067 201.223 7.945 201.223 8.631V14H199.879V9.457C199.879 8.99033 199.851 8.61233 199.795 8.323C199.744 8.029 199.634 7.81667 199.466 7.686C199.298 7.55533 199.044 7.49 198.703 7.49C198.437 7.49 198.185 7.54833 197.947 7.665C197.709 7.78167 197.495 7.92867 197.303 8.106C197.117 8.28333 196.958 8.46767 196.827 8.659V14H195.483ZM204.963 10.766C204.991 11.3073 205.101 11.7507 205.292 12.096C205.483 12.4367 205.733 12.6887 206.041 12.852C206.349 13.0107 206.69 13.09 207.063 13.09C207.432 13.09 207.77 13.034 208.078 12.922C208.386 12.81 208.699 12.6467 209.016 12.432L209.625 13.279C209.28 13.5543 208.881 13.7737 208.428 13.937C207.975 14.0957 207.506 14.175 207.021 14.175C206.284 14.175 205.656 14.014 205.138 13.692C204.625 13.3653 204.233 12.9127 203.962 12.334C203.696 11.7553 203.563 11.0833 203.563 10.318C203.563 9.576 203.696 8.91333 203.962 8.33C204.233 7.74667 204.613 7.287 205.103 6.951C205.593 6.615 206.176 6.447 206.853 6.447C207.488 6.447 208.034 6.594 208.491 6.888C208.953 7.182 209.308 7.602 209.555 8.148C209.802 8.68933 209.926 9.338 209.926 10.094C209.926 10.22 209.924 10.3413 209.919 10.458C209.914 10.5747 209.907 10.6773 209.898 10.766H204.963ZM206.867 7.497C206.344 7.497 205.908 7.68367 205.558 8.057C205.213 8.43033 205.014 9.00667 204.963 9.786H208.631C208.617 9.03933 208.454 8.47233 208.141 8.085C207.833 7.693 207.408 7.497 206.867 7.497ZM217.873 14H216.081L215.178 8.659L214.205 14H212.455L211.146 6.622H212.483L213.351 13.167L214.464 7.56H215.934L216.977 13.167L217.845 6.622H219.126L217.873 14Z" fill="#1E3A8A"/>
<path d="M55.3595 13.104C55.8961 13.104 56.3185 13.006 56.6265 12.81C56.9391 12.614 57.0955 12.348 57.0955 12.012C57.0955 11.7973 57.0535 11.613 56.9695 11.459C56.8901 11.305 56.7221 11.165 56.4655 11.039C56.2135 10.913 55.8308 10.7847 55.3175 10.654C54.8181 10.528 54.3818 10.381 54.0085 10.213C53.6351 10.045 53.3458 9.82567 53.1405 9.555C52.9398 9.28433 52.8395 8.93433 52.8395 8.505C52.8395 8.085 52.9561 7.721 53.1895 7.413C53.4275 7.105 53.7611 6.867 54.1905 6.699C54.6245 6.531 55.1285 6.447 55.7025 6.447C56.3091 6.447 56.8365 6.52867 57.2845 6.692C57.7371 6.85067 58.1198 7.04667 58.4325 7.28L57.8585 8.155C57.5738 7.96367 57.2611 7.80733 56.9205 7.686C56.5845 7.56467 56.1878 7.504 55.7305 7.504C55.1845 7.504 54.7948 7.588 54.5615 7.756C54.3328 7.91933 54.2185 8.13633 54.2185 8.407C54.2185 8.60767 54.2745 8.77567 54.3865 8.911C54.5031 9.04167 54.7015 9.163 54.9815 9.275C55.2615 9.387 55.6488 9.51067 56.1435 9.646C56.6241 9.77667 57.0441 9.93067 57.4035 10.108C57.7628 10.2853 58.0405 10.5187 58.2365 10.808C58.4371 11.0927 58.5375 11.4683 58.5375 11.935C58.5375 12.4623 58.3858 12.8917 58.0825 13.223C57.7791 13.5497 57.3848 13.79 56.8995 13.944C56.4188 14.098 55.9055 14.175 55.3595 14.175C54.6875 14.175 54.1088 14.077 53.6235 13.881C53.1428 13.685 52.7391 13.4447 52.4125 13.16L53.1545 12.306C53.4438 12.544 53.7751 12.7377 54.1485 12.887C54.5218 13.0317 54.9255 13.104 55.3595 13.104ZM67.163 13.622C66.9017 13.79 66.5867 13.923 66.218 14.021C65.8493 14.1237 65.4807 14.175 65.112 14.175C64.2907 14.175 63.6607 13.9603 63.222 13.531C62.788 13.1017 62.571 12.544 62.571 11.858V7.63H60.898V6.622H62.571V4.956L63.915 4.795V6.622H66.435L66.281 7.63H63.915V11.844C63.915 12.25 64.0177 12.5557 64.223 12.761C64.433 12.9663 64.7807 13.069 65.266 13.069C65.5413 13.069 65.7933 13.0363 66.022 12.971C66.2507 12.9057 66.463 12.8217 66.659 12.719L67.163 13.622ZM69.6355 14V13.006H70.7555V7.616H69.6355V6.622H71.7845L72.0295 8.351C72.3095 7.73967 72.6525 7.27067 73.0585 6.944C73.4692 6.61267 74.0012 6.447 74.6545 6.447C74.8692 6.447 75.0582 6.46333 75.2215 6.496C75.3895 6.52867 75.5598 6.57067 75.7325 6.622L75.3335 7.798C75.1795 7.75133 75.0395 7.71867 74.9135 7.7C74.7875 7.68133 74.6428 7.672 74.4795 7.672C73.9242 7.672 73.4482 7.87267 73.0515 8.274C72.6548 8.67533 72.3375 9.26567 72.0995 10.045V13.006H73.5975V14H69.6355ZM74.4865 9.212V7.518L74.6405 6.622H75.7325L75.5225 9.212H74.4865ZM83.399 12.306C83.399 12.6 83.4457 12.8147 83.539 12.95C83.6324 13.0807 83.7794 13.1787 83.98 13.244L83.665 14.168C83.329 14.126 83.0374 14.0257 82.79 13.867C82.5427 13.7083 82.3584 13.4657 82.237 13.139C81.971 13.4797 81.635 13.7387 81.229 13.916C80.823 14.0887 80.382 14.175 79.906 14.175C79.164 14.175 78.5784 13.965 78.149 13.545C77.7197 13.125 77.505 12.572 77.505 11.886C77.505 11.116 77.8037 10.5257 78.401 10.115C79.003 9.70433 79.8664 9.499 80.991 9.499H82.062V8.939C82.062 8.43033 81.9104 8.06867 81.607 7.854C81.3084 7.63933 80.8907 7.532 80.354 7.532C80.1114 7.532 79.822 7.56233 79.486 7.623C79.15 7.68367 78.793 7.77933 78.415 7.91L78.072 6.93C78.5294 6.75733 78.9657 6.63367 79.381 6.559C79.801 6.48433 80.193 6.447 80.557 6.447C81.509 6.447 82.2207 6.664 82.692 7.098C83.1634 7.52733 83.399 8.11767 83.399 8.869V12.306ZM80.284 13.167C80.6294 13.167 80.9607 13.0783 81.278 12.901C81.5954 12.7237 81.8567 12.4763 82.062 12.159V10.374H81.082C80.3027 10.374 79.7497 10.507 79.423 10.773C79.0964 11.0343 78.933 11.3937 78.933 11.851C78.933 12.2803 79.045 12.607 79.269 12.831C79.493 13.055 79.8314 13.167 80.284 13.167ZM89.7846 6.447C90.4379 6.447 90.9606 6.608 91.3526 6.93C91.7446 7.24733 92.0269 7.69533 92.1996 8.274C92.3722 8.848 92.4586 9.52467 92.4586 10.304C92.4586 11.0507 92.3536 11.7157 92.1436 12.299C91.9336 12.8823 91.6186 13.342 91.1986 13.678C90.7786 14.0093 90.2512 14.175 89.6166 14.175C88.8186 14.175 88.1792 13.895 87.6986 13.335V16.828L86.3546 16.989V6.622H87.5096L87.6076 7.616C87.8829 7.238 88.2072 6.94867 88.5806 6.748C88.9539 6.54733 89.3552 6.447 89.7846 6.447ZM89.4416 7.504C89.0589 7.504 88.7206 7.62067 88.4266 7.854C88.1326 8.08267 87.8899 8.344 87.6986 8.638V12.208C87.8852 12.4833 88.1139 12.7003 88.3846 12.859C88.6552 13.013 88.9562 13.09 89.2876 13.09C89.8662 13.09 90.3026 12.866 90.5966 12.418C90.8906 11.9653 91.0376 11.2607 91.0376 10.304C91.0376 9.66467 90.9792 9.13967 90.8626 8.729C90.7459 8.31367 90.5686 8.00567 90.3306 7.805C90.0972 7.60433 89.8009 7.504 89.4416 7.504ZM98.6131 6.622V12.978H100.664V14H95.0221V12.978H97.2691V7.644H95.0921V6.622H98.6131ZM97.6121 3.094C97.8921 3.094 98.1161 3.18033 98.2841 3.353C98.4568 3.52567 98.5431 3.73567 98.5431 3.983C98.5431 4.23967 98.4568 4.45667 98.2841 4.634C98.1161 4.80667 97.8921 4.893 97.6121 4.893C97.3368 4.893 97.1128 4.80667 96.9401 4.634C96.7721 4.45667 96.6881 4.23967 96.6881 3.983C96.6881 3.73567 96.7721 3.52567 96.9401 3.353C97.1128 3.18033 97.3368 3.094 97.6121 3.094ZM104.81 12.978C104.81 12.6607 104.924 12.3853 105.153 12.152C105.381 11.9187 105.661 11.802 105.993 11.802C106.333 11.802 106.618 11.9187 106.847 12.152C107.075 12.3853 107.19 12.6607 107.19 12.978C107.19 13.3093 107.075 13.5917 106.847 13.825C106.618 14.0583 106.333 14.175 105.993 14.175C105.661 14.175 105.381 14.0583 105.153 13.825C104.924 13.5917 104.81 13.3093 104.81 12.978ZM104.81 7.966C104.81 7.742 104.861 7.54133 104.964 7.364C105.071 7.18667 105.213 7.04667 105.391 6.944C105.573 6.83667 105.773 6.783 105.993 6.783C106.333 6.783 106.618 6.89967 106.847 7.133C107.075 7.36167 107.19 7.63933 107.19 7.966C107.19 8.288 107.075 8.568 106.847 8.806C106.618 9.03933 106.333 9.156 105.993 9.156C105.661 9.156 105.381 9.03933 105.153 8.806C104.924 8.568 104.81 8.288 104.81 7.966ZM184.357 7.728V8.862H178.757V7.728H184.357ZM184.357 10.43V11.564H178.757V10.43H184.357ZM293.815 13.622C293.554 13.79 293.239 13.923 292.87 14.021C292.502 14.1237 292.133 14.175 291.764 14.175C290.943 14.175 290.313 13.9603 289.874 13.531C289.44 13.1017 289.223 12.544 289.223 11.858V7.63H287.55V6.622H289.223V4.956L290.567 4.795V6.622H293.087L292.933 7.63H290.567V11.844C290.567 12.25 290.67 12.5557 290.875 12.761C291.085 12.9663 291.433 13.069 291.918 13.069C292.194 13.069 292.446 13.0363 292.674 12.971C292.903 12.9057 293.115 12.8217 293.311 12.719L293.815 13.622ZM307.461 11.613C307.807 11.613 308.091 11.7273 308.315 11.956C308.544 12.1847 308.658 12.4623 308.658 12.789C308.658 12.971 308.633 13.1577 308.581 13.349C308.53 13.5403 308.446 13.7643 308.329 14.021L307.223 16.562H306.096L306.768 13.769C306.442 13.5403 306.278 13.2137 306.278 12.789C306.278 12.4623 306.393 12.1847 306.621 11.956C306.85 11.7273 307.13 11.613 307.461 11.613ZM307.461 6.783C307.802 6.783 308.087 6.89967 308.315 7.133C308.544 7.36167 308.658 7.63933 308.658 7.966C308.658 8.288 308.544 8.568 308.315 8.806C308.087 9.03933 307.802 9.156 307.461 9.156C307.13 9.156 306.85 9.03933 306.621 8.806C306.393 8.568 306.278 8.288 306.278 7.966C306.278 7.742 306.33 7.54133 306.432 7.364C306.54 7.18667 306.682 7.04667 306.859 6.944C307.041 6.83667 307.242 6.783 307.461 6.783Z" fill="#0369A1"/>
<path d="M126.177 11.305C126.177 11.865 126.034 12.362 125.75 12.796C125.47 13.2253 125.064 13.5637 124.532 13.811C124 14.0537 123.351 14.175 122.586 14.175C121.848 14.175 121.19 14.063 120.612 13.839C120.033 13.615 119.541 13.307 119.135 12.915L119.926 12.026C120.262 12.3387 120.647 12.586 121.081 12.768C121.515 12.95 122.021 13.041 122.6 13.041C122.978 13.041 123.328 12.9803 123.65 12.859C123.976 12.733 124.238 12.5463 124.434 12.299C124.634 12.047 124.735 11.732 124.735 11.354C124.735 11.0507 124.674 10.794 124.553 10.584C124.436 10.374 124.228 10.1873 123.93 10.024C123.631 9.86067 123.213 9.69967 122.677 9.541C122.023 9.345 121.463 9.128 120.997 8.89C120.535 8.64733 120.18 8.351 119.933 8.001C119.69 7.651 119.569 7.22167 119.569 6.713C119.569 6.21367 119.706 5.775 119.982 5.397C120.257 5.01433 120.635 4.71567 121.116 4.501C121.601 4.28633 122.154 4.179 122.775 4.179C123.451 4.179 124.042 4.277 124.546 4.473C125.054 4.66433 125.512 4.942 125.918 5.306L125.148 6.174C124.807 5.87067 124.438 5.65133 124.042 5.516C123.645 5.376 123.244 5.306 122.838 5.306C122.497 5.306 122.187 5.35733 121.907 5.46C121.627 5.558 121.403 5.705 121.235 5.901C121.071 6.097 120.99 6.34667 120.99 6.65C120.99 6.916 121.062 7.14467 121.207 7.336C121.351 7.52267 121.596 7.69767 121.942 7.861C122.287 8.01967 122.756 8.18767 123.349 8.365C123.867 8.51433 124.34 8.701 124.77 8.925C125.199 9.149 125.54 9.45 125.792 9.828C126.048 10.2013 126.177 10.6937 126.177 11.305ZM134.319 13.622C134.058 13.79 133.743 13.923 133.374 14.021C133.006 14.1237 132.637 14.175 132.268 14.175C131.447 14.175 130.817 13.9603 130.378 13.531C129.944 13.1017 129.727 12.544 129.727 11.858V7.63H128.054V6.622H129.727V4.956L131.071 4.795V6.622H133.591L133.437 7.63H131.071V11.844C131.071 12.25 131.174 12.5557 131.379 12.761C131.589 12.9663 131.937 13.069 132.422 13.069C132.698 13.069 132.95 13.0363 133.178 12.971C133.407 12.9057 133.619 12.8217 133.815 12.719L134.319 13.622ZM136.792 14V13.006H137.912V7.616H136.792V6.622H138.941L139.186 8.351C139.466 7.73967 139.809 7.27067 140.215 6.944C140.625 6.61267 141.157 6.447 141.811 6.447C142.025 6.447 142.214 6.46333 142.378 6.496C142.546 6.52867 142.716 6.57067 142.889 6.622L142.49 7.798C142.336 7.75133 142.196 7.71867 142.07 7.7C141.944 7.68133 141.799 7.672 141.636 7.672C141.08 7.672 140.604 7.87267 140.208 8.274C139.811 8.67533 139.494 9.26567 139.256 10.045V13.006H140.754V14H136.792ZM141.643 9.212V7.518L141.797 6.622H142.889L142.679 9.212H141.643ZM150.555 12.306C150.555 12.6 150.602 12.8147 150.695 12.95C150.789 13.0807 150.936 13.1787 151.136 13.244L150.821 14.168C150.485 14.126 150.194 14.0257 149.946 13.867C149.699 13.7083 149.515 13.4657 149.393 13.139C149.127 13.4797 148.791 13.7387 148.385 13.916C147.979 14.0887 147.538 14.175 147.062 14.175C146.32 14.175 145.735 13.965 145.305 13.545C144.876 13.125 144.661 12.572 144.661 11.886C144.661 11.116 144.96 10.5257 145.557 10.115C146.159 9.70433 147.023 9.499 148.147 9.499H149.218V8.939C149.218 8.43033 149.067 8.06867 148.763 7.854C148.465 7.63933 148.047 7.532 147.51 7.532C147.268 7.532 146.978 7.56233 146.642 7.623C146.306 7.68367 145.949 7.77933 145.571 7.91L145.228 6.93C145.686 6.75733 146.122 6.63367 146.537 6.559C146.957 6.48433 147.349 6.447 147.713 6.447C148.665 6.447 149.377 6.664 149.848 7.098C150.32 7.52733 150.555 8.11767 150.555 8.869V12.306ZM147.44 13.167C147.786 13.167 148.117 13.0783 148.434 12.901C148.752 12.7237 149.013 12.4763 149.218 12.159V10.374H148.238C147.459 10.374 146.906 10.507 146.579 10.773C146.253 11.0343 146.089 11.3937 146.089 11.851C146.089 12.2803 146.201 12.607 146.425 12.831C146.649 13.055 146.988 13.167 147.44 13.167ZM156.941 6.447C157.594 6.447 158.117 6.608 158.509 6.93C158.901 7.24733 159.183 7.69533 159.356 8.274C159.528 8.848 159.615 9.52467 159.615 10.304C159.615 11.0507 159.51 11.7157 159.3 12.299C159.09 12.8823 158.775 13.342 158.355 13.678C157.935 14.0093 157.407 14.175 156.773 14.175C155.975 14.175 155.335 13.895 154.855 13.335V16.828L153.511 16.989V6.622H154.666L154.764 7.616C155.039 7.238 155.363 6.94867 155.737 6.748C156.11 6.54733 156.511 6.447 156.941 6.447ZM156.598 7.504C156.215 7.504 155.877 7.62067 155.583 7.854C155.289 8.08267 155.046 8.344 154.855 8.638V12.208C155.041 12.4833 155.27 12.7003 155.541 12.859C155.811 13.013 156.112 13.09 156.444 13.09C157.022 13.09 157.459 12.866 157.753 12.418C158.047 11.9653 158.194 11.2607 158.194 10.304C158.194 9.66467 158.135 9.13967 158.019 8.729C157.902 8.31367 157.725 8.00567 157.487 7.805C157.253 7.60433 156.957 7.504 156.598 7.504ZM165.769 6.622V12.978H167.82V14H162.178V12.978H164.425V7.644H162.248V6.622H165.769ZM164.768 3.094C165.048 3.094 165.272 3.18033 165.44 3.353C165.613 3.52567 165.699 3.73567 165.699 3.983C165.699 4.23967 165.613 4.45667 165.44 4.634C165.272 4.80667 165.048 4.893 164.768 4.893C164.493 4.893 164.269 4.80667 164.096 4.634C163.928 4.45667 163.844 4.23967 163.844 3.983C163.844 3.73567 163.928 3.52567 164.096 3.353C164.269 3.18033 164.493 3.094 164.768 3.094Z" fill="#15803D"/>
<path d="M235.306 11.305C235.306 11.865 235.163 12.362 234.879 12.796C234.599 13.2253 234.193 13.5637 233.661 13.811C233.129 14.0537 232.48 14.175 231.715 14.175C230.977 14.175 230.319 14.063 229.741 13.839C229.162 13.615 228.67 13.307 228.264 12.915L229.055 12.026C229.391 12.3387 229.776 12.586 230.21 12.768C230.644 12.95 231.15 13.041 231.729 13.041C232.107 13.041 232.457 12.9803 232.779 12.859C233.105 12.733 233.367 12.5463 233.563 12.299C233.763 12.047 233.864 11.732 233.864 11.354C233.864 11.0507 233.803 10.794 233.682 10.584C233.565 10.374 233.357 10.1873 233.059 10.024C232.76 9.86067 232.342 9.69967 231.806 9.541C231.152 9.345 230.592 9.128 230.126 8.89C229.664 8.64733 229.309 8.351 229.062 8.001C228.819 7.651 228.698 7.22167 228.698 6.713C228.698 6.21367 228.835 5.775 229.111 5.397C229.386 5.01433 229.764 4.71567 230.245 4.501C230.73 4.28633 231.283 4.179 231.904 4.179C232.58 4.179 233.171 4.277 233.675 4.473C234.183 4.66433 234.641 4.942 235.047 5.306L234.277 6.174C233.936 5.87067 233.567 5.65133 233.171 5.516C232.774 5.376 232.373 5.306 231.967 5.306C231.626 5.306 231.316 5.35733 231.036 5.46C230.756 5.558 230.532 5.705 230.364 5.901C230.2 6.097 230.119 6.34667 230.119 6.65C230.119 6.916 230.191 7.14467 230.336 7.336C230.48 7.52267 230.725 7.69767 231.071 7.861C231.416 8.01967 231.885 8.18767 232.478 8.365C232.996 8.51433 233.469 8.701 233.899 8.925C234.328 9.149 234.669 9.45 234.921 9.828C235.177 10.2013 235.306 10.6937 235.306 11.305ZM243.448 13.622C243.187 13.79 242.872 13.923 242.503 14.021C242.134 14.1237 241.766 14.175 241.397 14.175C240.576 14.175 239.946 13.9603 239.507 13.531C239.073 13.1017 238.856 12.544 238.856 11.858V7.63H237.183V6.622H238.856V4.956L240.2 4.795V6.622H242.72L242.566 7.63H240.2V11.844C240.2 12.25 240.303 12.5557 240.508 12.761C240.718 12.9663 241.066 13.069 241.551 13.069C241.826 13.069 242.078 13.0363 242.307 12.971C242.536 12.9057 242.748 12.8217 242.944 12.719L243.448 13.622ZM245.921 14V13.006H247.041V7.616H245.921V6.622H248.07L248.315 8.351C248.595 7.73967 248.938 7.27067 249.344 6.944C249.754 6.61267 250.286 6.447 250.94 6.447C251.154 6.447 251.343 6.46333 251.507 6.496C251.675 6.52867 251.845 6.57067 252.018 6.622L251.619 7.798C251.465 7.75133 251.325 7.71867 251.199 7.7C251.073 7.68133 250.928 7.672 250.765 7.672C250.209 7.672 249.733 7.87267 249.337 8.274C248.94 8.67533 248.623 9.26567 248.385 10.045V13.006H249.883V14H245.921ZM250.772 9.212V7.518L250.926 6.622H252.018L251.808 9.212H250.772ZM259.684 12.306C259.684 12.6 259.731 12.8147 259.824 12.95C259.918 13.0807 260.065 13.1787 260.265 13.244L259.95 14.168C259.614 14.126 259.323 14.0257 259.075 13.867C258.828 13.7083 258.644 13.4657 258.522 13.139C258.256 13.4797 257.92 13.7387 257.514 13.916C257.108 14.0887 256.667 14.175 256.191 14.175C255.449 14.175 254.864 13.965 254.434 13.545C254.005 13.125 253.79 12.572 253.79 11.886C253.79 11.116 254.089 10.5257 254.686 10.115C255.288 9.70433 256.152 9.499 257.276 9.499H258.347V8.939C258.347 8.43033 258.196 8.06867 257.892 7.854C257.594 7.63933 257.176 7.532 256.639 7.532C256.397 7.532 256.107 7.56233 255.771 7.623C255.435 7.68367 255.078 7.77933 254.7 7.91L254.357 6.93C254.815 6.75733 255.251 6.63367 255.666 6.559C256.086 6.48433 256.478 6.447 256.842 6.447C257.794 6.447 258.506 6.664 258.977 7.098C259.449 7.52733 259.684 8.11767 259.684 8.869V12.306ZM256.569 13.167C256.915 13.167 257.246 13.0783 257.563 12.901C257.881 12.7237 258.142 12.4763 258.347 12.159V10.374H257.367C256.588 10.374 256.035 10.507 255.708 10.773C255.382 11.0343 255.218 11.3937 255.218 11.851C255.218 12.2803 255.33 12.607 255.554 12.831C255.778 13.055 256.117 13.167 256.569 13.167ZM266.07 6.447C266.723 6.447 267.246 6.608 267.638 6.93C268.03 7.24733 268.312 7.69533 268.485 8.274C268.657 8.848 268.744 9.52467 268.744 10.304C268.744 11.0507 268.639 11.7157 268.429 12.299C268.219 12.8823 267.904 13.342 267.484 13.678C267.064 14.0093 266.536 14.175 265.902 14.175C265.104 14.175 264.464 13.895 263.984 13.335V16.828L262.64 16.989V6.622H263.795L263.893 7.616C264.168 7.238 264.492 6.94867 264.866 6.748C265.239 6.54733 265.64 6.447 266.07 6.447ZM265.727 7.504C265.344 7.504 265.006 7.62067 264.712 7.854C264.418 8.08267 264.175 8.344 263.984 8.638V12.208C264.17 12.4833 264.399 12.7003 264.67 12.859C264.94 13.013 265.241 13.09 265.573 13.09C266.151 13.09 266.588 12.866 266.882 12.418C267.176 11.9653 267.323 11.2607 267.323 10.304C267.323 9.66467 267.264 9.13967 267.148 8.729C267.031 8.31367 266.854 8.00567 266.616 7.805C266.382 7.60433 266.086 7.504 265.727 7.504ZM274.898 6.622V12.978H276.949V14H271.307V12.978H273.554V7.644H271.377V6.622H274.898ZM273.897 3.094C274.177 3.094 274.401 3.18033 274.569 3.353C274.742 3.52567 274.828 3.73567 274.828 3.983C274.828 4.23967 274.742 4.45667 274.569 4.634C274.401 4.80667 274.177 4.893 273.897 4.893C273.622 4.893 273.398 4.80667 273.225 4.634C273.057 4.45667 272.973 4.23967 272.973 3.983C272.973 3.73567 273.057 3.52567 273.225 3.353C273.398 3.18033 273.622 3.094 273.897 3.094ZM281.179 9.1C281.179 9.80467 281.237 10.4393 281.354 11.004C281.475 11.564 281.655 12.082 281.893 12.558C282.135 13.0293 282.441 13.4843 282.81 13.923C283.183 14.3617 283.619 14.812 284.119 15.274L283.391 16.002C282.639 15.3813 281.993 14.742 281.452 14.084C280.91 13.426 280.495 12.6957 280.206 11.893C279.921 11.0857 279.779 10.1547 279.779 9.1C279.779 8.04067 279.921 7.10967 280.206 6.307C280.495 5.50433 280.91 4.774 281.452 4.116C281.993 3.458 282.639 2.81867 283.391 2.198L284.119 2.926C283.619 3.38333 283.185 3.83133 282.817 4.27C282.448 4.70867 282.142 5.166 281.9 5.642C281.657 6.11333 281.475 6.63133 281.354 7.196C281.237 7.756 281.179 8.39067 281.179 9.1ZM300.194 9.1C300.194 8.39067 300.133 7.756 300.012 7.196C299.895 6.63133 299.716 6.11333 299.473 5.642C299.23 5.166 298.925 4.70867 298.556 4.27C298.187 3.83133 297.753 3.38333 297.254 2.926L297.982 2.198C298.738 2.81867 299.384 3.458 299.921 4.116C300.462 4.774 300.875 5.50433 301.16 6.307C301.449 7.10967 301.594 8.04067 301.594 9.1C301.594 10.1547 301.449 11.0857 301.16 11.893C300.875 12.6957 300.462 13.426 299.921 14.084C299.384 14.742 298.738 15.3813 297.982 16.002L297.254 15.274C297.753 14.812 298.187 14.3617 298.556 13.923C298.929 13.4843 299.235 13.0293 299.473 12.558C299.716 12.082 299.895 11.564 300.012 11.004C300.133 10.4393 300.194 9.80467 300.194 9.1Z" fill="#A16207"/>
</g>
<defs>
<filter id="filter0_f_519_10514" x="0.30426" y="0.197998" width="310.354" height="18.791" filterUnits="userSpaceOnUse" color-interpolation-filters="sRGB">
<feFlood flood-opacity="0" result="BackgroundImageFix"/>
<feBlend mode="normal" in="SourceGraphic" in2="BackgroundImageFix" result="shape"/>
<feGaussianBlur stdDeviation="1" result="effect1_foregroundBlur_519_10514"/>
</filter>
</defs>
</svg>
