<svg width="431" height="24" viewBox="0 0 431 24" fill="none" xmlns="http://www.w3.org/2000/svg">
<g filter="url(#filter0_f_519_10509)">
<path d="M4.809 14.901C5.15433 14.901 5.47633 14.8427 5.775 14.726C6.07367 14.6047 6.35833 14.4483 6.629 14.257L7.357 15.265C7.035 15.5403 6.643 15.7643 6.181 15.937C5.72367 16.105 5.25 16.189 4.76 16.189C4.004 16.189 3.35767 16.0303 2.821 15.713C2.28433 15.391 1.87367 14.9407 1.589 14.362C1.30433 13.7833 1.162 13.109 1.162 12.339C1.162 11.5877 1.30433 10.918 1.589 10.33C1.87833 9.73733 2.29367 9.27067 2.835 8.93C3.37633 8.58467 4.02733 8.412 4.788 8.412C5.292 8.412 5.75633 8.48667 6.181 8.636C6.60567 8.78533 6.99533 9.007 7.35 9.301L6.629 10.288C6.33967 10.0873 6.04333 9.93567 5.74 9.833C5.44133 9.72567 5.13333 9.672 4.816 9.672C4.23267 9.672 3.75433 9.88667 3.381 10.316C3.01233 10.7453 2.828 11.4197 2.828 12.339C2.828 12.955 2.912 13.452 3.08 13.83C3.25267 14.2033 3.48833 14.4763 3.787 14.649C4.08567 14.817 4.42633 14.901 4.809 14.901ZM12.6015 8.412C13.3249 8.412 13.9339 8.573 14.4285 8.895C14.9232 9.217 15.2965 9.66733 15.5485 10.246C15.8052 10.8247 15.9335 11.506 15.9335 12.29C15.9335 13.0693 15.8029 13.753 15.5415 14.341C15.2849 14.9243 14.9069 15.3793 14.4075 15.706C13.9129 16.028 13.3085 16.189 12.5945 16.189C11.8805 16.189 11.2739 16.0327 10.7745 15.72C10.2799 15.4027 9.90186 14.9523 9.64053 14.369C9.38386 13.7857 9.25553 13.0973 9.25553 12.304C9.25553 11.534 9.38386 10.8573 9.64053 10.274C9.90186 9.69067 10.2822 9.23567 10.7815 8.909C11.2809 8.57767 11.8875 8.412 12.6015 8.412ZM12.6015 9.63C12.0369 9.63 11.6122 9.847 11.3275 10.281C11.0429 10.7103 10.9005 11.3847 10.9005 12.304C10.9005 13.2187 11.0405 13.893 11.3205 14.327C11.6052 14.761 12.0299 14.978 12.5945 14.978C13.1592 14.978 13.5815 14.761 13.8615 14.327C14.1462 13.893 14.2885 13.214 14.2885 12.29C14.2885 11.38 14.1485 10.7103 13.8685 10.281C13.5885 9.847 13.1662 9.63 12.6015 9.63ZM18.0351 16V8.608H19.3861L19.5051 9.567C19.8131 9.189 20.1771 8.902 20.5971 8.706C21.0171 8.51 21.4487 8.412 21.8921 8.412C22.5827 8.412 23.0984 8.60567 23.4391 8.993C23.7844 9.37567 23.9571 9.91467 23.9571 10.61V16H22.3891V11.387C22.3891 10.9577 22.3634 10.6123 22.3121 10.351C22.2607 10.0897 22.1581 9.90067 22.0041 9.784C21.8547 9.66733 21.6307 9.609 21.3321 9.609C21.0941 9.609 20.8677 9.66033 20.6531 9.763C20.4384 9.86567 20.2424 10.001 20.0651 10.169C19.8877 10.3323 19.7337 10.5073 19.6031 10.694V16H18.0351ZM29.1176 14.985C29.6076 14.985 29.9973 14.8987 30.2866 14.726C30.5759 14.5487 30.7206 14.306 30.7206 13.998C30.7206 13.7973 30.6786 13.627 30.5946 13.487C30.5106 13.3423 30.3426 13.2117 30.0906 13.095C29.8386 12.9737 29.4559 12.8477 28.9426 12.717C28.4573 12.591 28.0303 12.4417 27.6616 12.269C27.2976 12.0963 27.0153 11.8723 26.8146 11.597C26.6139 11.3217 26.5136 10.967 26.5136 10.533C26.5136 10.1083 26.6326 9.73733 26.8706 9.42C27.1086 9.10267 27.4493 8.85533 27.8926 8.678C28.3406 8.50067 28.8656 8.412 29.4676 8.412C30.0883 8.412 30.6296 8.49367 31.0916 8.657C31.5536 8.82033 31.9479 9.02333 32.2746 9.266L31.6166 10.253C31.3273 10.0617 31.0099 9.90533 30.6646 9.784C30.3239 9.66267 29.9389 9.602 29.5096 9.602C29.0103 9.602 28.6509 9.67667 28.4316 9.826C28.2169 9.97533 28.1096 10.1737 28.1096 10.421C28.1096 10.603 28.1633 10.757 28.2706 10.883C28.3826 11.0043 28.5739 11.1187 28.8446 11.226C29.1153 11.3287 29.4979 11.45 29.9926 11.59C30.4733 11.7207 30.8909 11.8747 31.2456 12.052C31.6049 12.2293 31.8826 12.465 32.0786 12.759C32.2793 13.0483 32.3796 13.4263 32.3796 13.893C32.3796 14.425 32.2256 14.8613 31.9176 15.202C31.6143 15.538 31.2129 15.7877 30.7136 15.951C30.2189 16.1097 29.6869 16.189 29.1176 16.189C28.4316 16.189 27.8389 16.091 27.3396 15.895C26.8403 15.6943 26.4203 15.4447 26.0796 15.146L26.9126 14.194C27.2019 14.4273 27.5333 14.6187 27.9066 14.768C28.2799 14.9127 28.6836 14.985 29.1176 14.985ZM40.9981 15.608C40.7275 15.7807 40.4031 15.9207 40.0251 16.028C39.6471 16.1353 39.2528 16.189 38.8421 16.189C37.9835 16.189 37.3301 15.9673 36.8821 15.524C36.4388 15.076 36.2171 14.488 36.2171 13.76V9.749H34.5721V8.608H36.2171V6.956L37.7851 6.767V8.608H40.2771L40.1021 9.749H37.7851V13.746C37.7851 14.1427 37.8831 14.439 38.0791 14.635C38.2798 14.8263 38.6065 14.922 39.0591 14.922C39.3298 14.922 39.5795 14.8893 39.8081 14.824C40.0368 14.7587 40.2445 14.6747 40.4311 14.572L40.9981 15.608Z" fill="#1E3A8A"/>
<path d="M149.805 9.623V10.904H144.009V9.623H149.805ZM149.805 12.388V13.669H144.009V12.388H149.805Z" fill="#0F172A"/>
<path d="M57.8362 7.67L58.2562 8.972C57.9622 9.07 57.6379 9.13533 57.2832 9.168C56.9332 9.20067 56.5412 9.217 56.1072 9.217C56.5505 9.413 56.8842 9.665 57.1082 9.973C57.3322 10.2763 57.4442 10.6497 57.4442 11.093C57.4442 11.5737 57.3275 12.003 57.0942 12.381C56.8609 12.759 56.5272 13.0553 56.0932 13.27C55.6592 13.4847 55.1389 13.592 54.5322 13.592C54.3175 13.592 54.1309 13.5827 53.9722 13.564C53.8182 13.5453 53.6665 13.515 53.5172 13.473C53.4239 13.5383 53.3445 13.627 53.2792 13.739C53.2185 13.8463 53.1882 13.9607 53.1882 14.082C53.1882 14.2313 53.2489 14.362 53.3702 14.474C53.4962 14.5813 53.7435 14.635 54.1122 14.635H55.4002C55.9275 14.635 56.3919 14.726 56.7932 14.908C57.1992 15.0853 57.5165 15.3303 57.7452 15.643C57.9785 15.951 58.0952 16.301 58.0952 16.693C58.0952 17.4303 57.7779 18.002 57.1432 18.408C56.5085 18.814 55.5939 19.017 54.3992 19.017C53.5545 19.017 52.8919 18.9307 52.4112 18.758C51.9305 18.5853 51.5922 18.3287 51.3962 17.988C51.2002 17.6473 51.1022 17.2297 51.1022 16.735H52.5092C52.5092 16.9917 52.5582 17.204 52.6562 17.372C52.7589 17.54 52.9479 17.666 53.2232 17.75C53.4985 17.834 53.8952 17.876 54.4132 17.876C54.9312 17.876 55.3419 17.8317 55.6452 17.743C55.9532 17.659 56.1749 17.5353 56.3102 17.372C56.4502 17.2133 56.5202 17.022 56.5202 16.798C56.5202 16.4993 56.3895 16.2683 56.1282 16.105C55.8669 15.9417 55.5169 15.86 55.0782 15.86H53.8112C53.1112 15.86 52.5979 15.7177 52.2712 15.433C51.9492 15.1483 51.7882 14.817 51.7882 14.439C51.7882 14.187 51.8582 13.9443 51.9982 13.711C52.1429 13.4777 52.3482 13.2747 52.6142 13.102C52.1709 12.8687 51.8465 12.5863 51.6412 12.255C51.4405 11.919 51.3402 11.513 51.3402 11.037C51.3402 10.5143 51.4709 10.057 51.7322 9.665C51.9935 9.273 52.3552 8.96733 52.8172 8.748C53.2839 8.52867 53.8205 8.419 54.4272 8.419C55.0199 8.419 55.5145 8.38867 55.9112 8.328C56.3079 8.26267 56.6532 8.17167 56.9472 8.055C57.2459 7.93833 57.5422 7.81 57.8362 7.67ZM54.4412 9.497C53.9419 9.497 53.5662 9.63933 53.3142 9.924C53.0622 10.204 52.9362 10.5703 52.9362 11.023C52.9362 11.4897 53.0645 11.8653 53.3212 12.15C53.5825 12.43 53.9629 12.57 54.4622 12.57C54.9242 12.57 55.2765 12.4347 55.5192 12.164C55.7665 11.8933 55.8902 11.5083 55.8902 11.009C55.8902 10.505 55.7689 10.127 55.5262 9.875C55.2835 9.623 54.9219 9.497 54.4412 9.497ZM64.0467 8.608V14.852H66.0557V16H60.2667V14.852H62.4787V9.756H60.3367V8.608H64.0467ZM62.9547 4.989C63.2627 4.989 63.5101 5.08233 63.6967 5.269C63.8881 5.45567 63.9837 5.689 63.9837 5.969C63.9837 6.249 63.8881 6.48467 63.6967 6.676C63.5101 6.86733 63.2627 6.963 62.9547 6.963C62.6561 6.963 62.4111 6.86733 62.2197 6.676C62.0284 6.48467 61.9327 6.249 61.9327 5.969C61.9327 5.689 62.0284 5.45567 62.2197 5.269C62.4111 5.08233 62.6561 4.989 62.9547 4.989ZM74.5763 15.608C74.3056 15.7807 73.9813 15.9207 73.6033 16.028C73.2253 16.1353 72.8309 16.189 72.4203 16.189C71.5616 16.189 70.9083 15.9673 70.4603 15.524C70.0169 15.076 69.7953 14.488 69.7953 13.76V9.749H68.1503V8.608H69.7953V6.956L71.3633 6.767V8.608H73.8553L73.6803 9.749H71.3633V13.746C71.3633 14.1427 71.4613 14.439 71.6573 14.635C71.8579 14.8263 72.1846 14.922 72.6373 14.922C72.9079 14.922 73.1576 14.8893 73.3863 14.824C73.6149 14.7587 73.8226 14.6747 74.0093 14.572L74.5763 15.608ZM78.3648 5.486V9.511C78.6634 9.147 79.0134 8.874 79.4148 8.692C79.8161 8.50533 80.2291 8.412 80.6538 8.412C81.3491 8.412 81.8671 8.60567 82.2078 8.993C82.5484 9.37567 82.7188 9.91467 82.7188 10.61V16H81.1508V10.855C81.1508 10.4117 81.0668 10.0943 80.8988 9.903C80.7308 9.707 80.4601 9.609 80.0868 9.609C79.8534 9.609 79.6294 9.66267 79.4148 9.77C79.2048 9.87267 79.0088 10.008 78.8268 10.176C78.6494 10.344 78.4954 10.5237 78.3648 10.715V16H76.7968V5.654L78.3648 5.486ZM86.7593 8.608V13.774C86.7593 14.2127 86.8456 14.5253 87.0183 14.712C87.1956 14.8987 87.4616 14.992 87.8163 14.992C88.1523 14.992 88.4766 14.8917 88.7893 14.691C89.102 14.4903 89.3493 14.2453 89.5313 13.956V8.608H91.0993V16H89.7483L89.6503 15.055C89.375 15.4237 89.0273 15.706 88.6073 15.902C88.1873 16.0933 87.758 16.189 87.3193 16.189C86.6053 16.189 86.071 15.993 85.7163 15.601C85.3663 15.2043 85.1913 14.6607 85.1913 13.97V8.608H86.7593ZM95.1538 9.49C95.4105 9.154 95.7092 8.89033 96.0498 8.699C96.3952 8.50767 96.7732 8.412 97.1838 8.412C97.8325 8.412 98.3575 8.573 98.7588 8.895C99.1648 9.21233 99.4612 9.66267 99.6478 10.246C99.8392 10.8247 99.9348 11.506 99.9348 12.29C99.9348 13.0413 99.8228 13.711 99.5988 14.299C99.3748 14.887 99.0435 15.349 98.6048 15.685C98.1708 16.021 97.6342 16.189 96.9948 16.189C96.1688 16.189 95.5202 15.8833 95.0488 15.272L94.9648 16H93.5858V5.64L95.1538 5.465V9.49ZM96.6028 14.992C97.1348 14.992 97.5455 14.775 97.8348 14.341C98.1288 13.907 98.2758 13.2257 98.2758 12.297C98.2758 11.667 98.2175 11.156 98.1008 10.764C97.9842 10.3673 97.8115 10.078 97.5828 9.896C97.3588 9.714 97.0835 9.623 96.7568 9.623C96.4068 9.623 96.0988 9.728 95.8328 9.938C95.5668 10.148 95.3405 10.3953 95.1538 10.68V14.138C95.3265 14.404 95.5342 14.614 95.7768 14.768C96.0242 14.9173 96.2995 14.992 96.6028 14.992ZM102.407 16V6.34H104.031V14.642H108.357L108.182 16H102.407ZM114.414 8.608V14.852H116.423V16H110.634V14.852H112.846V9.756H110.704V8.608H114.414ZM113.322 4.989C113.63 4.989 113.877 5.08233 114.064 5.269C114.255 5.45567 114.351 5.689 114.351 5.969C114.351 6.249 114.255 6.48467 114.064 6.676C113.877 6.86733 113.63 6.963 113.322 6.963C113.023 6.963 112.778 6.86733 112.587 6.676C112.396 6.48467 112.3 6.249 112.3 5.969C112.3 5.689 112.396 5.45567 112.587 5.269C112.778 5.08233 113.023 4.989 113.322 4.989ZM118.769 16V8.608H120.12L120.239 9.567C120.547 9.189 120.911 8.902 121.331 8.706C121.751 8.51 122.183 8.412 122.626 8.412C123.317 8.412 123.833 8.60567 124.173 8.993C124.519 9.37567 124.691 9.91467 124.691 10.61V16H123.123V11.387C123.123 10.9577 123.098 10.6123 123.046 10.351C122.995 10.0897 122.892 9.90067 122.738 9.784C122.589 9.66733 122.365 9.609 122.066 9.609C121.828 9.609 121.602 9.66033 121.387 9.763C121.173 9.86567 120.977 10.001 120.799 10.169C120.622 10.3323 120.468 10.5073 120.337 10.694V16H118.769ZM133.674 8.608L130.685 11.912L133.989 16H132.071L128.893 11.954L131.847 8.608H133.674ZM128.781 5.465V16H127.213V5.64L128.781 5.465Z" fill="#15803D"/>
<path d="M163.22 8.37C163.22 8.68267 163.106 8.94633 162.877 9.161C162.653 9.37567 162.38 9.483 162.058 9.483C161.727 9.483 161.451 9.37567 161.232 9.161C161.017 8.94633 160.91 8.68267 160.91 8.37C160.91 8.22067 160.931 8.062 160.973 7.894C161.015 7.726 161.099 7.509 161.225 7.243L162.31 4.954H163.36L162.779 7.488C162.91 7.58133 163.015 7.705 163.094 7.859C163.178 8.00833 163.22 8.17867 163.22 8.37ZM166.335 8.37C166.335 8.68267 166.221 8.94633 165.992 9.161C165.763 9.37567 165.49 9.483 165.173 9.483C164.851 9.483 164.578 9.37567 164.354 9.161C164.135 8.94633 164.025 8.68267 164.025 8.37C164.025 8.22067 164.046 8.062 164.088 7.894C164.13 7.726 164.216 7.509 164.347 7.243L165.439 4.954H166.482L165.894 7.488C166.029 7.58133 166.137 7.705 166.216 7.859C166.295 8.00833 166.335 8.17867 166.335 8.37ZM170.705 5.486V9.511C171.003 9.147 171.353 8.874 171.755 8.692C172.156 8.50533 172.569 8.412 172.994 8.412C173.689 8.412 174.207 8.60567 174.548 8.993C174.888 9.37567 175.059 9.91467 175.059 10.61V16H173.491V10.855C173.491 10.4117 173.407 10.0943 173.239 9.903C173.071 9.707 172.8 9.609 172.427 9.609C172.193 9.609 171.969 9.66267 171.755 9.77C171.545 9.87267 171.349 10.008 171.167 10.176C170.989 10.344 170.835 10.5237 170.705 10.715V16H169.137V5.654L170.705 5.486ZM183.705 15.608C183.434 15.7807 183.11 15.9207 182.732 16.028C182.354 16.1353 181.96 16.189 181.549 16.189C180.69 16.189 180.037 15.9673 179.589 15.524C179.146 15.076 178.924 14.488 178.924 13.76V9.749H177.279V8.608H178.924V6.956L180.492 6.767V8.608H182.984L182.809 9.749H180.492V13.746C180.492 14.1427 180.59 14.439 180.786 14.635C180.987 14.8263 181.313 14.922 181.766 14.922C182.037 14.922 182.286 14.8893 182.515 14.824C182.744 14.7587 182.951 14.6747 183.138 14.572L183.705 15.608ZM192.1 15.608C191.829 15.7807 191.505 15.9207 191.127 16.028C190.749 16.1353 190.354 16.189 189.944 16.189C189.085 16.189 188.432 15.9673 187.984 15.524C187.54 15.076 187.319 14.488 187.319 13.76V9.749H185.674V8.608H187.319V6.956L188.887 6.767V8.608H191.379L191.204 9.749H188.887V13.746C188.887 14.1427 188.985 14.439 189.181 14.635C189.381 14.8263 189.708 14.922 190.161 14.922C190.431 14.922 190.681 14.8893 190.91 14.824C191.138 14.7587 191.346 14.6747 191.533 14.572L192.1 15.608ZM197.925 8.412C198.579 8.412 199.101 8.573 199.493 8.895C199.885 9.21233 200.17 9.66267 200.347 10.246C200.525 10.8247 200.613 11.506 200.613 12.29C200.613 13.0413 200.506 13.711 200.291 14.299C200.077 14.887 199.757 15.349 199.332 15.685C198.912 16.021 198.39 16.189 197.764 16.189C196.99 16.189 196.364 15.916 195.888 15.37V18.842L194.32 19.017V8.608H195.685L195.783 9.56C196.063 9.17733 196.388 8.89033 196.756 8.699C197.13 8.50767 197.519 8.412 197.925 8.412ZM197.491 9.623C197.141 9.623 196.833 9.728 196.567 9.938C196.301 10.148 196.075 10.3953 195.888 10.68V14.138C196.066 14.404 196.276 14.6093 196.518 14.754C196.766 14.894 197.043 14.964 197.351 14.964C197.879 14.964 198.28 14.7517 198.555 14.327C198.831 13.9023 198.968 13.2257 198.968 12.297C198.968 11.667 198.912 11.156 198.8 10.764C198.693 10.3673 198.53 10.078 198.31 9.896C198.096 9.714 197.823 9.623 197.491 9.623ZM205.403 14.985C205.893 14.985 206.282 14.8987 206.572 14.726C206.861 14.5487 207.006 14.306 207.006 13.998C207.006 13.7973 206.964 13.627 206.88 13.487C206.796 13.3423 206.628 13.2117 206.376 13.095C206.124 12.9737 205.741 12.8477 205.228 12.717C204.742 12.591 204.315 12.4417 203.947 12.269C203.583 12.0963 203.3 11.8723 203.1 11.597C202.899 11.3217 202.799 10.967 202.799 10.533C202.799 10.1083 202.918 9.73733 203.156 9.42C203.394 9.10267 203.734 8.85533 204.178 8.678C204.626 8.50067 205.151 8.412 205.753 8.412C206.373 8.412 206.915 8.49367 207.377 8.657C207.839 8.82033 208.233 9.02333 208.56 9.266L207.902 10.253C207.612 10.0617 207.295 9.90533 206.95 9.784C206.609 9.66267 206.224 9.602 205.795 9.602C205.295 9.602 204.936 9.67667 204.717 9.826C204.502 9.97533 204.395 10.1737 204.395 10.421C204.395 10.603 204.448 10.757 204.556 10.883C204.668 11.0043 204.859 11.1187 205.13 11.226C205.4 11.3287 205.783 11.45 206.278 11.59C206.758 11.7207 207.176 11.8747 207.531 12.052C207.89 12.2293 208.168 12.465 208.364 12.759C208.564 13.0483 208.665 13.4263 208.665 13.893C208.665 14.425 208.511 14.8613 208.203 15.202C207.899 15.538 207.498 15.7877 206.999 15.951C206.504 16.1097 205.972 16.189 205.403 16.189C204.717 16.189 204.124 16.091 203.625 15.895C203.125 15.6943 202.705 15.4447 202.365 15.146L203.198 14.194C203.487 14.4273 203.818 14.6187 204.192 14.768C204.565 14.9127 204.969 14.985 205.403 14.985ZM212.796 14.922C212.796 14.5813 212.918 14.2897 213.16 14.047C213.403 13.7997 213.702 13.676 214.056 13.676C214.416 13.676 214.714 13.7997 214.952 14.047C215.195 14.2897 215.316 14.5813 215.316 14.922C215.316 15.272 215.195 15.5707 214.952 15.818C214.714 16.0653 214.416 16.189 214.056 16.189C213.702 16.189 213.403 16.0653 213.16 15.818C212.918 15.5707 212.796 15.272 212.796 14.922ZM212.796 9.952C212.796 9.72333 212.852 9.51333 212.964 9.322C213.076 9.13067 213.228 8.979 213.419 8.867C213.611 8.755 213.823 8.699 214.056 8.699C214.416 8.699 214.714 8.82267 214.952 9.07C215.195 9.31267 215.316 9.60667 215.316 9.952C215.316 10.2973 215.195 10.596 214.952 10.848C214.714 11.0953 214.416 11.219 214.056 11.219C213.702 11.219 213.403 11.0953 213.16 10.848C212.918 10.596 212.796 10.2973 212.796 9.952ZM220.807 17.491L219.561 16.931L225.511 4.632L226.743 5.213L220.807 17.491ZM227.807 17.491L226.561 16.931L232.511 4.632L233.743 5.213L227.807 17.491ZM242.516 7.67L242.936 8.972C242.642 9.07 242.318 9.13533 241.963 9.168C241.613 9.20067 241.221 9.217 240.787 9.217C241.23 9.413 241.564 9.665 241.788 9.973C242.012 10.2763 242.124 10.6497 242.124 11.093C242.124 11.5737 242.007 12.003 241.774 12.381C241.541 12.759 241.207 13.0553 240.773 13.27C240.339 13.4847 239.819 13.592 239.212 13.592C238.997 13.592 238.811 13.5827 238.652 13.564C238.498 13.5453 238.346 13.515 238.197 13.473C238.104 13.5383 238.024 13.627 237.959 13.739C237.898 13.8463 237.868 13.9607 237.868 14.082C237.868 14.2313 237.929 14.362 238.05 14.474C238.176 14.5813 238.423 14.635 238.792 14.635H240.08C240.607 14.635 241.072 14.726 241.473 14.908C241.879 15.0853 242.196 15.3303 242.425 15.643C242.658 15.951 242.775 16.301 242.775 16.693C242.775 17.4303 242.458 18.002 241.823 18.408C241.188 18.814 240.274 19.017 239.079 19.017C238.234 19.017 237.572 18.9307 237.091 18.758C236.61 18.5853 236.272 18.3287 236.076 17.988C235.88 17.6473 235.782 17.2297 235.782 16.735H237.189C237.189 16.9917 237.238 17.204 237.336 17.372C237.439 17.54 237.628 17.666 237.903 17.75C238.178 17.834 238.575 17.876 239.093 17.876C239.611 17.876 240.022 17.8317 240.325 17.743C240.633 17.659 240.855 17.5353 240.99 17.372C241.13 17.2133 241.2 17.022 241.2 16.798C241.2 16.4993 241.069 16.2683 240.808 16.105C240.547 15.9417 240.197 15.86 239.758 15.86H238.491C237.791 15.86 237.278 15.7177 236.951 15.433C236.629 15.1483 236.468 14.817 236.468 14.439C236.468 14.187 236.538 13.9443 236.678 13.711C236.823 13.4777 237.028 13.2747 237.294 13.102C236.851 12.8687 236.526 12.5863 236.321 12.255C236.12 11.919 236.02 11.513 236.02 11.037C236.02 10.5143 236.151 10.057 236.412 9.665C236.673 9.273 237.035 8.96733 237.497 8.748C237.964 8.52867 238.5 8.419 239.107 8.419C239.7 8.419 240.194 8.38867 240.591 8.328C240.988 8.26267 241.333 8.17167 241.627 8.055C241.926 7.93833 242.222 7.81 242.516 7.67ZM239.121 9.497C238.622 9.497 238.246 9.63933 237.994 9.924C237.742 10.204 237.616 10.5703 237.616 11.023C237.616 11.4897 237.744 11.8653 238.001 12.15C238.262 12.43 238.643 12.57 239.142 12.57C239.604 12.57 239.956 12.4347 240.199 12.164C240.446 11.8933 240.57 11.5083 240.57 11.009C240.57 10.505 240.449 10.127 240.206 9.875C239.963 9.623 239.602 9.497 239.121 9.497ZM248.726 8.608V14.852H250.735V16H244.946V14.852H247.158V9.756H245.016V8.608H248.726ZM247.634 4.989C247.942 4.989 248.19 5.08233 248.376 5.269C248.568 5.45567 248.663 5.689 248.663 5.969C248.663 6.249 248.568 6.48467 248.376 6.676C248.19 6.86733 247.942 6.963 247.634 6.963C247.336 6.963 247.091 6.86733 246.899 6.676C246.708 6.48467 246.612 6.249 246.612 5.969C246.612 5.689 246.708 5.45567 246.899 5.269C247.091 5.08233 247.336 4.989 247.634 4.989ZM259.256 15.608C258.985 15.7807 258.661 15.9207 258.283 16.028C257.905 16.1353 257.511 16.189 257.1 16.189C256.241 16.189 255.588 15.9673 255.14 15.524C254.697 15.076 254.475 14.488 254.475 13.76V9.749H252.83V8.608H254.475V6.956L256.043 6.767V8.608H258.535L258.36 9.749H256.043V13.746C256.043 14.1427 256.141 14.439 256.337 14.635C256.538 14.8263 256.864 14.922 257.317 14.922C257.588 14.922 257.837 14.8893 258.066 14.824C258.295 14.7587 258.502 14.6747 258.689 14.572L259.256 15.608ZM263.044 5.486V9.511C263.343 9.147 263.693 8.874 264.094 8.692C264.496 8.50533 264.909 8.412 265.333 8.412C266.029 8.412 266.547 8.60567 266.887 8.993C267.228 9.37567 267.398 9.91467 267.398 10.61V16H265.83V10.855C265.83 10.4117 265.746 10.0943 265.578 9.903C265.41 9.707 265.14 9.609 264.766 9.609C264.533 9.609 264.309 9.66267 264.094 9.77C263.884 9.87267 263.688 10.008 263.506 10.176C263.329 10.344 263.175 10.5237 263.044 10.715V16H261.476V5.654L263.044 5.486ZM271.439 8.608V13.774C271.439 14.2127 271.525 14.5253 271.698 14.712C271.875 14.8987 272.141 14.992 272.496 14.992C272.832 14.992 273.156 14.8917 273.469 14.691C273.782 14.4903 274.029 14.2453 274.211 13.956V8.608H275.779V16H274.428L274.33 15.055C274.055 15.4237 273.707 15.706 273.287 15.902C272.867 16.0933 272.438 16.189 271.999 16.189C271.285 16.189 270.751 15.993 270.396 15.601C270.046 15.2043 269.871 14.6607 269.871 13.97V8.608H271.439ZM279.834 9.49C280.09 9.154 280.389 8.89033 280.73 8.699C281.075 8.50767 281.453 8.412 281.864 8.412C282.512 8.412 283.037 8.573 283.439 8.895C283.845 9.21233 284.141 9.66267 284.328 10.246C284.519 10.8247 284.615 11.506 284.615 12.29C284.615 13.0413 284.503 13.711 284.279 14.299C284.055 14.887 283.723 15.349 283.285 15.685C282.851 16.021 282.314 16.189 281.675 16.189C280.849 16.189 280.2 15.8833 279.729 15.272L279.645 16H278.266V5.64L279.834 5.465V9.49ZM281.283 14.992C281.815 14.992 282.225 14.775 282.515 14.341C282.809 13.907 282.956 13.2257 282.956 12.297C282.956 11.667 282.897 11.156 282.781 10.764C282.664 10.3673 282.491 10.078 282.263 9.896C282.039 9.714 281.763 9.623 281.437 9.623C281.087 9.623 280.779 9.728 280.513 9.938C280.247 10.148 280.02 10.3953 279.834 10.68V14.138C280.006 14.404 280.214 14.614 280.457 14.768C280.704 14.9173 280.979 14.992 281.283 14.992ZM288.256 14.831C288.256 14.579 288.314 14.3527 288.431 14.152C288.552 13.9467 288.716 13.7833 288.921 13.662C289.126 13.5407 289.355 13.48 289.607 13.48C289.864 13.48 290.095 13.5407 290.3 13.662C290.505 13.7833 290.666 13.9467 290.783 14.152C290.904 14.3527 290.965 14.579 290.965 14.831C290.965 15.0783 290.904 15.307 290.783 15.517C290.666 15.7223 290.505 15.8857 290.3 16.007C290.095 16.1283 289.864 16.189 289.607 16.189C289.355 16.189 289.126 16.1283 288.921 16.007C288.716 15.8857 288.552 15.7223 288.431 15.517C288.314 15.307 288.256 15.0783 288.256 14.831ZM298.618 14.901C298.963 14.901 299.285 14.8427 299.584 14.726C299.882 14.6047 300.167 14.4483 300.438 14.257L301.166 15.265C300.844 15.5403 300.452 15.7643 299.99 15.937C299.532 16.105 299.059 16.189 298.569 16.189C297.813 16.189 297.166 16.0303 296.63 15.713C296.093 15.391 295.682 14.9407 295.398 14.362C295.113 13.7833 294.971 13.109 294.971 12.339C294.971 11.5877 295.113 10.918 295.398 10.33C295.687 9.73733 296.102 9.27067 296.644 8.93C297.185 8.58467 297.836 8.412 298.597 8.412C299.101 8.412 299.565 8.48667 299.99 8.636C300.414 8.78533 300.804 9.007 301.159 9.301L300.438 10.288C300.148 10.0873 299.852 9.93567 299.549 9.833C299.25 9.72567 298.942 9.672 298.625 9.672C298.041 9.672 297.563 9.88667 297.19 10.316C296.821 10.7453 296.637 11.4197 296.637 12.339C296.637 12.955 296.721 13.452 296.889 13.83C297.061 14.2033 297.297 14.4763 297.596 14.649C297.894 14.817 298.235 14.901 298.618 14.901ZM306.41 8.412C307.133 8.412 307.742 8.573 308.237 8.895C308.732 9.217 309.105 9.66733 309.357 10.246C309.614 10.8247 309.742 11.506 309.742 12.29C309.742 13.0693 309.611 13.753 309.35 14.341C309.093 14.9243 308.715 15.3793 308.216 15.706C307.721 16.028 307.117 16.189 306.403 16.189C305.689 16.189 305.082 16.0327 304.583 15.72C304.088 15.4027 303.71 14.9523 303.449 14.369C303.192 13.7857 303.064 13.0973 303.064 12.304C303.064 11.534 303.192 10.8573 303.449 10.274C303.71 9.69067 304.091 9.23567 304.59 8.909C305.089 8.57767 305.696 8.412 306.41 8.412ZM306.41 9.63C305.845 9.63 305.421 9.847 305.136 10.281C304.851 10.7103 304.709 11.3847 304.709 12.304C304.709 13.2187 304.849 13.893 305.129 14.327C305.414 14.761 305.838 14.978 306.403 14.978C306.968 14.978 307.39 14.761 307.67 14.327C307.955 13.893 308.097 13.214 308.097 12.29C308.097 11.38 307.957 10.7103 307.677 10.281C307.397 9.847 306.975 9.63 306.41 9.63ZM316.94 8.412C317.22 8.412 317.472 8.47267 317.696 8.594C317.92 8.71533 318.095 8.92767 318.221 9.231C318.351 9.53433 318.417 9.959 318.417 10.505V16H317.024V10.722C317.024 10.3347 316.996 10.057 316.94 9.889C316.888 9.721 316.751 9.637 316.527 9.637C316.349 9.637 316.17 9.693 315.988 9.805C315.806 9.91233 315.621 10.099 315.435 10.365V16H314.168V10.722C314.168 10.3347 314.14 10.057 314.084 9.889C314.032 9.721 313.895 9.637 313.671 9.637C313.489 9.637 313.307 9.693 313.125 9.805C312.947 9.91233 312.765 10.099 312.579 10.365V16H311.179V8.608H312.362L312.467 9.406C312.677 9.112 312.905 8.874 313.153 8.692C313.4 8.50533 313.699 8.412 314.049 8.412C314.329 8.412 314.583 8.482 314.812 8.622C315.04 8.762 315.208 9.007 315.316 9.357C315.521 9.077 315.754 8.85067 316.016 8.678C316.277 8.50067 316.585 8.412 316.94 8.412ZM320.847 17.491L319.601 16.931L325.551 4.632L326.783 5.213L320.847 17.491ZM329.935 12.808C329.967 13.312 330.075 13.725 330.257 14.047C330.439 14.3643 330.677 14.5977 330.971 14.747C331.269 14.8963 331.596 14.971 331.951 14.971C332.315 14.971 332.651 14.915 332.959 14.803C333.267 14.691 333.577 14.5323 333.89 14.327L334.569 15.265C334.223 15.545 333.82 15.769 333.358 15.937C332.896 16.105 332.401 16.189 331.874 16.189C331.108 16.189 330.46 16.0257 329.928 15.699C329.4 15.3723 328.999 14.9173 328.724 14.334C328.448 13.7507 328.311 13.0763 328.311 12.311C328.311 11.569 328.446 10.9063 328.717 10.323C328.987 9.735 329.375 9.27067 329.879 8.93C330.383 8.58467 330.985 8.412 331.685 8.412C332.343 8.412 332.907 8.56133 333.379 8.86C333.855 9.15867 334.221 9.58333 334.478 10.134C334.739 10.68 334.87 11.338 334.87 12.108C334.87 12.234 334.865 12.36 334.856 12.486C334.851 12.6073 334.844 12.7147 334.835 12.808H329.935ZM331.699 9.574C331.209 9.574 330.803 9.749 330.481 10.099C330.163 10.449 329.979 10.995 329.928 11.737H333.351C333.337 11.0417 333.187 10.5073 332.903 10.134C332.623 9.76067 332.221 9.574 331.699 9.574ZM338.119 16H336.383L339.036 12.101L336.677 8.608H338.483L339.995 11.212L341.507 8.608H343.229L340.919 12.038L343.579 16H341.738L339.925 12.983L338.119 16ZM351.071 14.187C351.071 14.4763 351.115 14.6887 351.204 14.824C351.292 14.9547 351.435 15.0527 351.631 15.118L351.281 16.182C350.917 16.14 350.604 16.0397 350.343 15.881C350.081 15.7223 349.883 15.482 349.748 15.16C349.477 15.5007 349.134 15.7573 348.719 15.93C348.303 16.1027 347.86 16.189 347.389 16.189C346.642 16.189 346.049 15.979 345.611 15.559C345.177 15.1343 344.96 14.579 344.96 13.893C344.96 13.1137 345.263 12.514 345.87 12.094C346.476 11.674 347.344 11.464 348.474 11.464H349.531V10.981C349.531 10.505 349.386 10.162 349.097 9.952C348.812 9.742 348.408 9.637 347.886 9.637C347.643 9.637 347.349 9.66967 347.004 9.735C346.658 9.79567 346.297 9.89133 345.919 10.022L345.534 8.916C345.996 8.74333 346.448 8.61733 346.892 8.538C347.335 8.454 347.746 8.412 348.124 8.412C349.113 8.412 349.85 8.63133 350.336 9.07C350.826 9.50867 351.071 10.1153 351.071 10.89V14.187ZM347.865 15.034C348.182 15.034 348.492 14.95 348.796 14.782C349.099 14.614 349.344 14.3783 349.531 14.075V12.444H348.663C347.925 12.444 347.398 12.5677 347.081 12.815C346.763 13.0577 346.605 13.3937 346.605 13.823C346.605 14.215 346.71 14.516 346.92 14.726C347.134 14.9313 347.449 15.034 347.865 15.034ZM358.912 8.412C359.192 8.412 359.444 8.47267 359.668 8.594C359.892 8.71533 360.067 8.92767 360.193 9.231C360.324 9.53433 360.389 9.959 360.389 10.505V16H358.996V10.722C358.996 10.3347 358.968 10.057 358.912 9.889C358.861 9.721 358.723 9.637 358.499 9.637C358.322 9.637 358.142 9.693 357.96 9.805C357.778 9.91233 357.594 10.099 357.407 10.365V16H356.14V10.722C356.14 10.3347 356.112 10.057 356.056 9.889C356.005 9.721 355.867 9.637 355.643 9.637C355.461 9.637 355.279 9.693 355.097 9.805C354.92 9.91233 354.738 10.099 354.551 10.365V16H353.151V8.608H354.334L354.439 9.406C354.649 9.112 354.878 8.874 355.125 8.692C355.373 8.50533 355.671 8.412 356.021 8.412C356.301 8.412 356.556 8.482 356.784 8.622C357.013 8.762 357.181 9.007 357.288 9.357C357.494 9.077 357.727 8.85067 357.988 8.678C358.25 8.50067 358.558 8.412 358.912 8.412ZM365.816 8.412C366.469 8.412 366.992 8.573 367.384 8.895C367.776 9.21233 368.061 9.66267 368.238 10.246C368.415 10.8247 368.504 11.506 368.504 12.29C368.504 13.0413 368.397 13.711 368.182 14.299C367.967 14.887 367.648 15.349 367.223 15.685C366.803 16.021 366.28 16.189 365.655 16.189C364.88 16.189 364.255 15.916 363.779 15.37V18.842L362.211 19.017V8.608H363.576L363.674 9.56C363.954 9.17733 364.278 8.89033 364.647 8.699C365.02 8.50767 365.41 8.412 365.816 8.412ZM365.382 9.623C365.032 9.623 364.724 9.728 364.458 9.938C364.192 10.148 363.966 10.3953 363.779 10.68V14.138C363.956 14.404 364.166 14.6093 364.409 14.754C364.656 14.894 364.934 14.964 365.242 14.964C365.769 14.964 366.171 14.7517 366.446 14.327C366.721 13.9023 366.859 13.2257 366.859 12.297C366.859 11.667 366.803 11.156 366.691 10.764C366.584 10.3673 366.42 10.078 366.201 9.896C365.986 9.714 365.713 9.623 365.382 9.623ZM373.853 5.64V13.984C373.853 14.3247 373.956 14.5673 374.161 14.712C374.371 14.852 374.642 14.922 374.973 14.922C375.188 14.922 375.391 14.8987 375.582 14.852C375.774 14.8053 375.96 14.747 376.142 14.677L376.541 15.769C376.322 15.881 376.051 15.979 375.729 16.063C375.412 16.147 375.048 16.189 374.637 16.189C373.895 16.189 373.317 15.9813 372.901 15.566C372.491 15.146 372.285 14.572 372.285 13.844V6.795H370.052V5.64H373.853ZM380.302 12.808C380.335 13.312 380.442 13.725 380.624 14.047C380.806 14.3643 381.044 14.5977 381.338 14.747C381.637 14.8963 381.963 14.971 382.318 14.971C382.682 14.971 383.018 14.915 383.326 14.803C383.634 14.691 383.944 14.5323 384.257 14.327L384.936 15.265C384.591 15.545 384.187 15.769 383.725 15.937C383.263 16.105 382.768 16.189 382.241 16.189C381.476 16.189 380.827 16.0257 380.295 15.699C379.768 15.3723 379.366 14.9173 379.091 14.334C378.816 13.7507 378.678 13.0763 378.678 12.311C378.678 11.569 378.813 10.9063 379.084 10.323C379.355 9.735 379.742 9.27067 380.246 8.93C380.75 8.58467 381.352 8.412 382.052 8.412C382.71 8.412 383.275 8.56133 383.746 8.86C384.222 9.15867 384.588 9.58333 384.845 10.134C385.106 10.68 385.237 11.338 385.237 12.108C385.237 12.234 385.232 12.36 385.223 12.486C385.218 12.6073 385.211 12.7147 385.202 12.808H380.302ZM382.066 9.574C381.576 9.574 381.17 9.749 380.848 10.099C380.531 10.449 380.346 10.995 380.295 11.737H383.718C383.704 11.0417 383.555 10.5073 383.27 10.134C382.99 9.76067 382.589 9.574 382.066 9.574ZM388.003 17.491L386.757 16.931L392.707 4.632L393.939 5.213L388.003 17.491ZM397.357 8.608V13.774C397.357 14.2127 397.443 14.5253 397.616 14.712C397.793 14.8987 398.059 14.992 398.414 14.992C398.75 14.992 399.074 14.8917 399.387 14.691C399.7 14.4903 399.947 14.2453 400.129 13.956V8.608H401.697V16H400.346L400.248 15.055C399.973 15.4237 399.625 15.706 399.205 15.902C398.785 16.0933 398.356 16.189 397.917 16.189C397.203 16.189 396.669 15.993 396.314 15.601C395.964 15.2043 395.789 14.6607 395.789 13.97V8.608H397.357ZM404.254 16V14.88H405.339V9.721H404.254V8.608H406.535L406.823 10.323C407.098 9.70233 407.439 9.231 407.845 8.909C408.255 8.58233 408.783 8.419 409.427 8.419C409.646 8.419 409.842 8.43767 410.015 8.475C410.192 8.50767 410.367 8.552 410.54 8.608L410.071 9.952C409.921 9.91 409.781 9.87967 409.651 9.861C409.52 9.83767 409.375 9.826 409.217 9.826C408.68 9.826 408.216 10.0267 407.824 10.428C407.436 10.8293 407.131 11.3987 406.907 12.136V14.88H408.398V16H404.254ZM409.154 11.331V9.511L409.35 8.608H410.54L410.274 11.331H409.154ZM415.826 5.64V13.984C415.826 14.3247 415.929 14.5673 416.134 14.712C416.344 14.852 416.615 14.922 416.946 14.922C417.161 14.922 417.364 14.8987 417.555 14.852C417.746 14.8053 417.933 14.747 418.115 14.677L418.514 15.769C418.295 15.881 418.024 15.979 417.702 16.063C417.385 16.147 417.021 16.189 416.61 16.189C415.868 16.189 415.289 15.9813 414.874 15.566C414.463 15.146 414.258 14.572 414.258 13.844V6.795H412.025V5.64H415.826ZM421.281 6.032C421.281 5.71933 421.395 5.45567 421.624 5.241C421.852 5.02633 422.125 4.919 422.443 4.919C422.765 4.919 423.038 5.02633 423.262 5.241C423.486 5.45567 423.598 5.71933 423.598 6.032C423.598 6.19067 423.572 6.35167 423.521 6.515C423.474 6.67367 423.385 6.88833 423.255 7.159L422.177 9.448H421.134L421.708 6.907C421.577 6.81367 421.472 6.69233 421.393 6.543C421.318 6.39367 421.281 6.22333 421.281 6.032ZM424.389 6.032C424.389 5.71933 424.503 5.45567 424.732 5.241C424.965 5.02633 425.238 4.919 425.551 4.919C425.877 4.919 426.153 5.02633 426.377 5.241C426.601 5.45567 426.713 5.71933 426.713 6.032C426.713 6.19067 426.689 6.35167 426.643 6.515C426.596 6.67367 426.51 6.88833 426.384 7.159L425.292 9.448H424.249L424.83 6.907C424.699 6.81367 424.592 6.69233 424.508 6.543C424.428 6.39367 424.389 6.22333 424.389 6.032Z" fill="#A21CAF"/>
<path d="M167.891 16.875H176.291V17.225H167.891V16.875ZM176.285 16.875H184.685V17.225H176.285V16.875ZM184.68 16.875H193.08V17.225H184.68V16.875ZM193.074 16.875H201.474V17.225H193.074V16.875ZM201.469 16.875H209.869V17.225H201.469V16.875ZM209.863 16.875H218.263V17.225H209.863V16.875ZM218.258 16.875H226.658V17.225H218.258V16.875ZM226.652 16.875H235.052V17.225H226.652V16.875ZM235.047 16.875H243.447V17.225H235.047V16.875ZM243.441 16.875H251.841V17.225H243.441V16.875ZM251.836 16.875H260.236V17.225H251.836V16.875ZM260.23 16.875H268.63V17.225H260.23V16.875ZM268.625 16.875H277.025V17.225H268.625V16.875ZM277.02 16.875H285.42V17.225H277.02V16.875ZM285.414 16.875H293.814V17.225H285.414V16.875ZM293.809 16.875H302.209V17.225H293.809V16.875ZM302.203 16.875H310.603V17.225H302.203V16.875ZM310.598 16.875H318.998V17.225H310.598V16.875ZM318.992 16.875H327.392V17.225H318.992V16.875ZM327.387 16.875H335.787V17.225H327.387V16.875ZM335.781 16.875H344.181V17.225H335.781V16.875ZM344.176 16.875H352.576V17.225H344.176V16.875ZM352.57 16.875H360.97V17.225H352.57V16.875ZM360.965 16.875H369.365V17.225H360.965V16.875ZM369.359 16.875H377.759V17.225H369.359V16.875ZM377.754 16.875H386.154V17.225H377.754V16.875ZM386.148 16.875H394.548V17.225H386.148V16.875ZM394.543 16.875H402.943V17.225H394.543V16.875ZM402.938 16.875H411.337V17.225H402.938V16.875ZM411.332 16.875H419.732V17.225H411.332V16.875Z" fill="#A21CAF"/>
</g>
<defs>
<filter id="filter0_f_519_10509" x="-2.83801" y="0.632019" width="433.551" height="22.385" filterUnits="userSpaceOnUse" color-interpolation-filters="sRGB">
<feFlood flood-opacity="0" result="BackgroundImageFix"/>
<feBlend mode="normal" in="SourceGraphic" in2="BackgroundImageFix" result="shape"/>
<feGaussianBlur stdDeviation="2" result="effect1_foregroundBlur_519_10509"/>
</filter>
</defs>
</svg>
