<svg width="322" height="21" viewBox="0 0 322 21" fill="none" xmlns="http://www.w3.org/2000/svg">
<g filter="url(#filter0_f_519_10510)">
<path d="M7.19427 13.058C7.49027 13.058 7.76627 13.008 8.02227 12.908C8.27827 12.804 8.52227 12.67 8.75427 12.506L9.37827 13.37C9.10227 13.606 8.76627 13.798 8.37027 13.946C7.97827 14.09 7.57227 14.162 7.15227 14.162C6.50427 14.162 5.95027 14.026 5.49027 13.754C5.03027 13.478 4.67827 13.092 4.43427 12.596C4.19027 12.1 4.06827 11.522 4.06827 10.862C4.06827 10.218 4.19027 9.644 4.43427 9.14C4.68227 8.632 5.03827 8.232 5.50227 7.94C5.96627 7.644 6.52427 7.496 7.17627 7.496C7.60827 7.496 8.00627 7.56 8.37027 7.688C8.73427 7.816 9.06827 8.006 9.37227 8.258L8.75427 9.104C8.50627 8.932 8.25227 8.802 7.99227 8.714C7.73627 8.622 7.47227 8.576 7.20027 8.576C6.70027 8.576 6.29027 8.76 5.97027 9.128C5.65427 9.496 5.49627 10.074 5.49627 10.862C5.49627 11.39 5.56827 11.816 5.71227 12.14C5.86027 12.46 6.06227 12.694 6.31827 12.842C6.57427 12.986 6.86627 13.058 7.19427 13.058ZM13.8736 7.496C14.4936 7.496 15.0156 7.634 15.4396 7.91C15.8636 8.186 16.1836 8.572 16.3996 9.068C16.6196 9.564 16.7296 10.148 16.7296 10.82C16.7296 11.488 16.6176 12.074 16.3936 12.578C16.1736 13.078 15.8496 13.468 15.4216 13.748C14.9976 14.024 14.4796 14.162 13.8676 14.162C13.2556 14.162 12.7356 14.028 12.3076 13.76C11.8836 13.488 11.5596 13.102 11.3356 12.602C11.1156 12.102 11.0056 11.512 11.0056 10.832C11.0056 10.172 11.1156 9.592 11.3356 9.092C11.5596 8.592 11.8856 8.202 12.3136 7.922C12.7416 7.638 13.2616 7.496 13.8736 7.496ZM13.8736 8.54C13.3896 8.54 13.0256 8.726 12.7816 9.098C12.5376 9.466 12.4156 10.044 12.4156 10.832C12.4156 11.616 12.5356 12.194 12.7756 12.566C13.0196 12.938 13.3836 13.124 13.8676 13.124C14.3516 13.124 14.7136 12.938 14.9536 12.566C15.1976 12.194 15.3196 11.612 15.3196 10.82C15.3196 10.04 15.1996 9.466 14.9596 9.098C14.7196 8.726 14.3576 8.54 13.8736 8.54ZM18.5309 14V7.664H19.6889L19.7909 8.486C20.0549 8.162 20.3669 7.916 20.7269 7.748C21.0869 7.58 21.4569 7.496 21.8369 7.496C22.4289 7.496 22.8709 7.662 23.1629 7.994C23.4589 8.322 23.6069 8.784 23.6069 9.38V14H22.2629V10.046C22.2629 9.678 22.2409 9.382 22.1969 9.158C22.1529 8.934 22.0649 8.772 21.9329 8.672C21.8049 8.572 21.6129 8.522 21.3569 8.522C21.1529 8.522 20.9589 8.566 20.7749 8.654C20.5909 8.742 20.4229 8.858 20.2709 9.002C20.1189 9.142 19.9869 9.292 19.8749 9.452V14H18.5309ZM28.0302 13.13C28.4502 13.13 28.7842 13.056 29.0322 12.908C29.2802 12.756 29.4042 12.548 29.4042 12.284C29.4042 12.112 29.3682 11.966 29.2962 11.846C29.2242 11.722 29.0802 11.61 28.8642 11.51C28.6482 11.406 28.3202 11.298 27.8802 11.186C27.4642 11.078 27.0982 10.95 26.7822 10.802C26.4702 10.654 26.2282 10.462 26.0562 10.226C25.8842 9.99 25.7982 9.686 25.7982 9.314C25.7982 8.95 25.9002 8.632 26.1042 8.36C26.3082 8.088 26.6002 7.876 26.9802 7.724C27.3642 7.572 27.8142 7.496 28.3302 7.496C28.8622 7.496 29.3262 7.566 29.7222 7.706C30.1182 7.846 30.4562 8.02 30.7362 8.228L30.1722 9.074C29.9242 8.91 29.6522 8.776 29.3562 8.672C29.0642 8.568 28.7342 8.516 28.3662 8.516C27.9382 8.516 27.6302 8.58 27.4422 8.708C27.2582 8.836 27.1662 9.006 27.1662 9.218C27.1662 9.374 27.2122 9.506 27.3042 9.614C27.4002 9.718 27.5642 9.816 27.7962 9.908C28.0282 9.996 28.3562 10.1 28.7802 10.22C29.1922 10.332 29.5502 10.464 29.8542 10.616C30.1622 10.768 30.4002 10.97 30.5682 11.222C30.7402 11.47 30.8262 11.794 30.8262 12.194C30.8262 12.65 30.6942 13.024 30.4302 13.316C30.1702 13.604 29.8262 13.818 29.3982 13.958C28.9742 14.094 28.5182 14.162 28.0302 14.162C27.4422 14.162 26.9342 14.078 26.5062 13.91C26.0782 13.738 25.7182 13.524 25.4262 13.268L26.1402 12.452C26.3882 12.652 26.6722 12.816 26.9922 12.944C27.3122 13.068 27.6582 13.13 28.0302 13.13ZM38.2135 13.664C37.9815 13.812 37.7035 13.932 37.3795 14.024C37.0555 14.116 36.7175 14.162 36.3655 14.162C35.6295 14.162 35.0695 13.972 34.6855 13.592C34.3055 13.208 34.1155 12.704 34.1155 12.08V8.642H32.7055V7.664H34.1155V6.248L35.4595 6.086V7.664H37.5955L37.4455 8.642H35.4595V12.068C35.4595 12.408 35.5435 12.662 35.7115 12.83C35.8835 12.994 36.1635 13.076 36.5515 13.076C36.7835 13.076 36.9975 13.048 37.1935 12.992C37.3895 12.936 37.5675 12.864 37.7275 12.776L38.2135 13.664Z" fill="#1E3A8A"/>
<path d="M131.477 8.534V9.632H126.509V8.534H131.477ZM131.477 10.904V12.002H126.509V10.904H131.477Z" fill="#0F172A"/>
<path d="M52.6461 6.86L53.0061 7.976C52.7541 8.06 52.4761 8.116 52.1721 8.144C51.8721 8.172 51.5361 8.186 51.1641 8.186C51.5441 8.354 51.8301 8.57 52.0221 8.834C52.2141 9.094 52.3101 9.414 52.3101 9.794C52.3101 10.206 52.2101 10.574 52.0101 10.898C51.8101 11.222 51.5241 11.476 51.1521 11.66C50.7801 11.844 50.3341 11.936 49.8141 11.936C49.6301 11.936 49.4701 11.928 49.3341 11.912C49.2021 11.896 49.0721 11.87 48.9441 11.834C48.8641 11.89 48.7961 11.966 48.7401 12.062C48.6881 12.154 48.6621 12.252 48.6621 12.356C48.6621 12.484 48.7141 12.596 48.8181 12.692C48.9261 12.784 49.1381 12.83 49.4541 12.83H50.5581C51.0101 12.83 51.4081 12.908 51.7521 13.064C52.1001 13.216 52.3721 13.426 52.5681 13.694C52.7681 13.958 52.8681 14.258 52.8681 14.594C52.8681 15.226 52.5961 15.716 52.0521 16.064C51.5081 16.412 50.7241 16.586 49.7001 16.586C48.9761 16.586 48.4081 16.512 47.9961 16.364C47.5841 16.216 47.2941 15.996 47.1261 15.704C46.9581 15.412 46.8741 15.054 46.8741 14.63H48.0801C48.0801 14.85 48.1221 15.032 48.2061 15.176C48.2941 15.32 48.4561 15.428 48.6921 15.5C48.9281 15.572 49.2681 15.608 49.7121 15.608C50.1561 15.608 50.5081 15.57 50.7681 15.494C51.0321 15.422 51.2221 15.316 51.3381 15.176C51.4581 15.04 51.5181 14.876 51.5181 14.684C51.5181 14.428 51.4061 14.23 51.1821 14.09C50.9581 13.95 50.6581 13.88 50.2821 13.88H49.1961C48.5961 13.88 48.1561 13.758 47.8761 13.514C47.6001 13.27 47.4621 12.986 47.4621 12.662C47.4621 12.446 47.5221 12.238 47.6421 12.038C47.7661 11.838 47.9421 11.664 48.1701 11.516C47.7901 11.316 47.5121 11.074 47.3361 10.79C47.1641 10.502 47.0781 10.154 47.0781 9.746C47.0781 9.298 47.1901 8.906 47.4141 8.57C47.6381 8.234 47.9481 7.972 48.3441 7.784C48.7441 7.596 49.2041 7.502 49.7241 7.502C50.2321 7.502 50.6561 7.476 50.9961 7.424C51.3361 7.368 51.6321 7.29 51.8841 7.19C52.1401 7.09 52.3941 6.98 52.6461 6.86ZM49.7361 8.426C49.3081 8.426 48.9861 8.548 48.7701 8.792C48.5541 9.032 48.4461 9.346 48.4461 9.734C48.4461 10.134 48.5561 10.456 48.7761 10.7C49.0001 10.94 49.3261 11.06 49.7541 11.06C50.1501 11.06 50.4521 10.944 50.6601 10.712C50.8721 10.48 50.9781 10.15 50.9781 9.722C50.9781 9.29 50.8741 8.966 50.6661 8.75C50.4581 8.534 50.1481 8.426 49.7361 8.426ZM57.9695 7.664V13.016H59.6915V14H54.7295V13.016H56.6255V8.648H54.7895V7.664H57.9695ZM57.0335 4.562C57.2975 4.562 57.5095 4.642 57.6695 4.802C57.8335 4.962 57.9155 5.162 57.9155 5.402C57.9155 5.642 57.8335 5.844 57.6695 6.008C57.5095 6.172 57.2975 6.254 57.0335 6.254C56.7775 6.254 56.5675 6.172 56.4035 6.008C56.2395 5.844 56.1575 5.642 56.1575 5.402C56.1575 5.162 56.2395 4.962 56.4035 4.802C56.5675 4.642 56.7775 4.562 57.0335 4.562ZM66.9948 13.664C66.7628 13.812 66.4848 13.932 66.1608 14.024C65.8368 14.116 65.4988 14.162 65.1468 14.162C64.4108 14.162 63.8508 13.972 63.4668 13.592C63.0868 13.208 62.8968 12.704 62.8968 12.08V8.642H61.4868V7.664H62.8968V6.248L64.2408 6.086V7.664H66.3768L66.2268 8.642H64.2408V12.068C64.2408 12.408 64.3248 12.662 64.4928 12.83C64.6648 12.994 64.9448 13.076 65.3328 13.076C65.5648 13.076 65.7788 13.048 65.9748 12.992C66.1708 12.936 66.3488 12.864 66.5088 12.776L66.9948 13.664ZM70.2421 4.988V8.438C70.4981 8.126 70.7981 7.892 71.1421 7.736C71.4861 7.576 71.8401 7.496 72.2041 7.496C72.8001 7.496 73.2441 7.662 73.5361 7.994C73.8281 8.322 73.9741 8.784 73.9741 9.38V14H72.6301V9.59C72.6301 9.21 72.5581 8.938 72.4141 8.774C72.2701 8.606 72.0381 8.522 71.7181 8.522C71.5181 8.522 71.3261 8.568 71.1421 8.66C70.9621 8.748 70.7941 8.864 70.6381 9.008C70.4861 9.152 70.3541 9.306 70.2421 9.47V14H68.8981V5.132L70.2421 4.988ZM77.4374 7.664V12.092C77.4374 12.468 77.5114 12.736 77.6594 12.896C77.8114 13.056 78.0394 13.136 78.3434 13.136C78.6314 13.136 78.9094 13.05 79.1774 12.878C79.4454 12.706 79.6574 12.496 79.8134 12.248V7.664H81.1574V14H79.9994L79.9154 13.19C79.6794 13.506 79.3814 13.748 79.0214 13.916C78.6614 14.08 78.2934 14.162 77.9174 14.162C77.3054 14.162 76.8474 13.994 76.5434 13.658C76.2434 13.318 76.0934 12.852 76.0934 12.26V7.664H77.4374ZM84.6327 8.42C84.8527 8.132 85.1087 7.906 85.4007 7.742C85.6967 7.578 86.0207 7.496 86.3727 7.496C86.9287 7.496 87.3787 7.634 87.7227 7.91C88.0707 8.182 88.3247 8.568 88.4847 9.068C88.6487 9.564 88.7307 10.148 88.7307 10.82C88.7307 11.464 88.6347 12.038 88.4427 12.542C88.2507 13.046 87.9667 13.442 87.5907 13.73C87.2187 14.018 86.7587 14.162 86.2107 14.162C85.5027 14.162 84.9467 13.9 84.5427 13.376L84.4707 14H83.2887V5.12L84.6327 4.97V8.42ZM85.8747 13.136C86.3307 13.136 86.6827 12.95 86.9307 12.578C87.1827 12.206 87.3087 11.622 87.3087 10.826C87.3087 10.286 87.2587 9.848 87.1587 9.512C87.0587 9.172 86.9107 8.924 86.7147 8.768C86.5227 8.612 86.2867 8.534 86.0067 8.534C85.7067 8.534 85.4427 8.624 85.2147 8.804C84.9867 8.984 84.7927 9.196 84.6327 9.44V12.404C84.7807 12.632 84.9587 12.812 85.1667 12.944C85.3787 13.072 85.6147 13.136 85.8747 13.136ZM90.85 14V5.72H92.242V12.836H95.95L95.8 14H90.85ZM101.141 7.664V13.016H102.863V14H97.9013V13.016H99.7973V8.648H97.9613V7.664H101.141ZM100.205 4.562C100.469 4.562 100.681 4.642 100.841 4.802C101.005 4.962 101.087 5.162 101.087 5.402C101.087 5.642 101.005 5.844 100.841 6.008C100.681 6.172 100.469 6.254 100.205 6.254C99.9493 6.254 99.7393 6.172 99.5753 6.008C99.4113 5.844 99.3293 5.642 99.3293 5.402C99.3293 5.162 99.4113 4.962 99.5753 4.802C99.7393 4.642 99.9493 4.562 100.205 4.562ZM104.875 14V7.664H106.033L106.135 8.486C106.399 8.162 106.711 7.916 107.071 7.748C107.431 7.58 107.801 7.496 108.181 7.496C108.773 7.496 109.215 7.662 109.507 7.994C109.803 8.322 109.951 8.784 109.951 9.38V14H108.607V10.046C108.607 9.678 108.585 9.382 108.541 9.158C108.497 8.934 108.409 8.772 108.277 8.672C108.149 8.572 107.957 8.522 107.701 8.522C107.497 8.522 107.303 8.566 107.119 8.654C106.935 8.742 106.767 8.858 106.615 9.002C106.463 9.142 106.331 9.292 106.219 9.452V14H104.875ZM117.65 7.664L115.088 10.496L117.92 14H116.276L113.552 10.532L116.084 7.664H117.65ZM113.456 4.97V14H112.112V5.12L113.456 4.97Z" fill="#15803D"/>
<path d="M142.975 7.46C142.975 7.728 142.877 7.954 142.681 8.138C142.489 8.322 142.255 8.414 141.979 8.414C141.695 8.414 141.459 8.322 141.271 8.138C141.087 7.954 140.995 7.728 140.995 7.46C140.995 7.332 141.013 7.196 141.049 7.052C141.085 6.908 141.157 6.722 141.265 6.494L142.195 4.532H143.095L142.597 6.704C142.709 6.784 142.799 6.89 142.867 7.022C142.939 7.15 142.975 7.296 142.975 7.46ZM145.645 7.46C145.645 7.728 145.547 7.954 145.351 8.138C145.155 8.322 144.921 8.414 144.649 8.414C144.373 8.414 144.139 8.322 143.947 8.138C143.759 7.954 143.665 7.728 143.665 7.46C143.665 7.332 143.683 7.196 143.719 7.052C143.755 6.908 143.829 6.722 143.941 6.494L144.877 4.532H145.771L145.267 6.704C145.383 6.784 145.475 6.89 145.543 7.022C145.611 7.15 145.645 7.296 145.645 7.46ZM149.391 4.988V8.438C149.647 8.126 149.947 7.892 150.291 7.736C150.635 7.576 150.989 7.496 151.353 7.496C151.949 7.496 152.393 7.662 152.685 7.994C152.977 8.322 153.123 8.784 153.123 9.38V14H151.779V9.59C151.779 9.21 151.707 8.938 151.563 8.774C151.419 8.606 151.187 8.522 150.867 8.522C150.667 8.522 150.475 8.568 150.291 8.66C150.111 8.748 149.943 8.864 149.787 9.008C149.635 9.152 149.503 9.306 149.391 9.47V14H148.047V5.132L149.391 4.988ZM160.534 13.664C160.302 13.812 160.024 13.932 159.7 14.024C159.376 14.116 159.038 14.162 158.686 14.162C157.95 14.162 157.39 13.972 157.006 13.592C156.626 13.208 156.436 12.704 156.436 12.08V8.642H155.026V7.664H156.436V6.248L157.78 6.086V7.664H159.916L159.766 8.642H157.78V12.068C157.78 12.408 157.864 12.662 158.032 12.83C158.204 12.994 158.484 13.076 158.872 13.076C159.104 13.076 159.318 13.048 159.514 12.992C159.71 12.936 159.888 12.864 160.048 12.776L160.534 13.664ZM167.729 13.664C167.497 13.812 167.219 13.932 166.895 14.024C166.571 14.116 166.233 14.162 165.881 14.162C165.145 14.162 164.585 13.972 164.201 13.592C163.821 13.208 163.631 12.704 163.631 12.08V8.642H162.221V7.664H163.631V6.248L164.975 6.086V7.664H167.111L166.961 8.642H164.975V12.068C164.975 12.408 165.059 12.662 165.227 12.83C165.399 12.994 165.679 13.076 166.067 13.076C166.299 13.076 166.513 13.048 166.709 12.992C166.905 12.936 167.083 12.864 167.243 12.776L167.729 13.664ZM172.722 7.496C173.282 7.496 173.73 7.634 174.066 7.91C174.402 8.182 174.646 8.568 174.798 9.068C174.95 9.564 175.026 10.148 175.026 10.82C175.026 11.464 174.934 12.038 174.75 12.542C174.566 13.046 174.292 13.442 173.928 13.73C173.568 14.018 173.12 14.162 172.584 14.162C171.92 14.162 171.384 13.928 170.976 13.46V16.436L169.632 16.586V7.664H170.802L170.886 8.48C171.126 8.152 171.404 7.906 171.72 7.742C172.04 7.578 172.374 7.496 172.722 7.496ZM172.35 8.534C172.05 8.534 171.786 8.624 171.558 8.804C171.33 8.984 171.136 9.196 170.976 9.44V12.404C171.128 12.632 171.308 12.808 171.516 12.932C171.728 13.052 171.966 13.112 172.23 13.112C172.682 13.112 173.026 12.93 173.262 12.566C173.498 12.202 173.616 11.622 173.616 10.826C173.616 10.286 173.568 9.848 173.472 9.512C173.38 9.172 173.24 8.924 173.052 8.768C172.868 8.612 172.634 8.534 172.35 8.534ZM179.132 13.13C179.552 13.13 179.886 13.056 180.134 12.908C180.382 12.756 180.506 12.548 180.506 12.284C180.506 12.112 180.47 11.966 180.398 11.846C180.326 11.722 180.182 11.61 179.966 11.51C179.75 11.406 179.422 11.298 178.982 11.186C178.566 11.078 178.2 10.95 177.884 10.802C177.572 10.654 177.33 10.462 177.158 10.226C176.986 9.99 176.9 9.686 176.9 9.314C176.9 8.95 177.002 8.632 177.206 8.36C177.41 8.088 177.702 7.876 178.082 7.724C178.466 7.572 178.916 7.496 179.432 7.496C179.964 7.496 180.428 7.566 180.824 7.706C181.22 7.846 181.558 8.02 181.838 8.228L181.274 9.074C181.026 8.91 180.754 8.776 180.458 8.672C180.166 8.568 179.836 8.516 179.468 8.516C179.04 8.516 178.732 8.58 178.544 8.708C178.36 8.836 178.268 9.006 178.268 9.218C178.268 9.374 178.314 9.506 178.406 9.614C178.502 9.718 178.666 9.816 178.898 9.908C179.13 9.996 179.458 10.1 179.882 10.22C180.294 10.332 180.652 10.464 180.956 10.616C181.264 10.768 181.502 10.97 181.67 11.222C181.842 11.47 181.928 11.794 181.928 12.194C181.928 12.65 181.796 13.024 181.532 13.316C181.272 13.604 180.928 13.818 180.5 13.958C180.076 14.094 179.62 14.162 179.132 14.162C178.544 14.162 178.036 14.078 177.608 13.91C177.18 13.738 176.82 13.524 176.528 13.268L177.242 12.452C177.49 12.652 177.774 12.816 178.094 12.944C178.414 13.068 178.76 13.13 179.132 13.13ZM185.469 13.076C185.469 12.784 185.573 12.534 185.781 12.326C185.989 12.114 186.245 12.008 186.549 12.008C186.857 12.008 187.113 12.114 187.317 12.326C187.525 12.534 187.629 12.784 187.629 13.076C187.629 13.376 187.525 13.632 187.317 13.844C187.113 14.056 186.857 14.162 186.549 14.162C186.245 14.162 185.989 14.056 185.781 13.844C185.573 13.632 185.469 13.376 185.469 13.076ZM185.469 8.816C185.469 8.62 185.517 8.44 185.613 8.276C185.709 8.112 185.839 7.982 186.003 7.886C186.167 7.79 186.349 7.742 186.549 7.742C186.857 7.742 187.113 7.848 187.317 8.06C187.525 8.268 187.629 8.52 187.629 8.816C187.629 9.112 187.525 9.368 187.317 9.584C187.113 9.796 186.857 9.902 186.549 9.902C186.245 9.902 185.989 9.796 185.781 9.584C185.573 9.368 185.469 9.112 185.469 8.816ZM192.336 15.278L191.268 14.798L196.368 4.256L197.424 4.754L192.336 15.278ZM198.336 15.278L197.268 14.798L202.368 4.256L203.424 4.754L198.336 15.278ZM210.943 6.86L211.303 7.976C211.051 8.06 210.773 8.116 210.469 8.144C210.169 8.172 209.833 8.186 209.461 8.186C209.841 8.354 210.127 8.57 210.319 8.834C210.511 9.094 210.607 9.414 210.607 9.794C210.607 10.206 210.507 10.574 210.307 10.898C210.107 11.222 209.821 11.476 209.449 11.66C209.077 11.844 208.631 11.936 208.111 11.936C207.927 11.936 207.767 11.928 207.631 11.912C207.499 11.896 207.369 11.87 207.241 11.834C207.161 11.89 207.093 11.966 207.037 12.062C206.985 12.154 206.959 12.252 206.959 12.356C206.959 12.484 207.011 12.596 207.115 12.692C207.223 12.784 207.435 12.83 207.751 12.83H208.855C209.307 12.83 209.705 12.908 210.049 13.064C210.397 13.216 210.669 13.426 210.865 13.694C211.065 13.958 211.165 14.258 211.165 14.594C211.165 15.226 210.893 15.716 210.349 16.064C209.805 16.412 209.021 16.586 207.997 16.586C207.273 16.586 206.705 16.512 206.293 16.364C205.881 16.216 205.591 15.996 205.423 15.704C205.255 15.412 205.171 15.054 205.171 14.63H206.377C206.377 14.85 206.419 15.032 206.503 15.176C206.591 15.32 206.753 15.428 206.989 15.5C207.225 15.572 207.565 15.608 208.009 15.608C208.453 15.608 208.805 15.57 209.065 15.494C209.329 15.422 209.519 15.316 209.635 15.176C209.755 15.04 209.815 14.876 209.815 14.684C209.815 14.428 209.703 14.23 209.479 14.09C209.255 13.95 208.955 13.88 208.579 13.88H207.493C206.893 13.88 206.453 13.758 206.173 13.514C205.897 13.27 205.759 12.986 205.759 12.662C205.759 12.446 205.819 12.238 205.939 12.038C206.063 11.838 206.239 11.664 206.467 11.516C206.087 11.316 205.809 11.074 205.633 10.79C205.461 10.502 205.375 10.154 205.375 9.746C205.375 9.298 205.487 8.906 205.711 8.57C205.935 8.234 206.245 7.972 206.641 7.784C207.041 7.596 207.501 7.502 208.021 7.502C208.529 7.502 208.953 7.476 209.293 7.424C209.633 7.368 209.929 7.29 210.181 7.19C210.437 7.09 210.691 6.98 210.943 6.86ZM208.033 8.426C207.605 8.426 207.283 8.548 207.067 8.792C206.851 9.032 206.743 9.346 206.743 9.734C206.743 10.134 206.853 10.456 207.073 10.7C207.297 10.94 207.623 11.06 208.051 11.06C208.447 11.06 208.749 10.944 208.957 10.712C209.169 10.48 209.275 10.15 209.275 9.722C209.275 9.29 209.171 8.966 208.963 8.75C208.755 8.534 208.445 8.426 208.033 8.426ZM216.266 7.664V13.016H217.988V14H213.026V13.016H214.922V8.648H213.086V7.664H216.266ZM215.33 4.562C215.594 4.562 215.806 4.642 215.966 4.802C216.13 4.962 216.212 5.162 216.212 5.402C216.212 5.642 216.13 5.844 215.966 6.008C215.806 6.172 215.594 6.254 215.33 6.254C215.074 6.254 214.864 6.172 214.7 6.008C214.536 5.844 214.454 5.642 214.454 5.402C214.454 5.162 214.536 4.962 214.7 4.802C214.864 4.642 215.074 4.562 215.33 4.562ZM225.292 13.664C225.06 13.812 224.782 13.932 224.458 14.024C224.134 14.116 223.796 14.162 223.444 14.162C222.708 14.162 222.148 13.972 221.764 13.592C221.384 13.208 221.194 12.704 221.194 12.08V8.642H219.784V7.664H221.194V6.248L222.538 6.086V7.664H224.674L224.524 8.642H222.538V12.068C222.538 12.408 222.622 12.662 222.79 12.83C222.962 12.994 223.242 13.076 223.63 13.076C223.862 13.076 224.076 13.048 224.272 12.992C224.468 12.936 224.646 12.864 224.806 12.776L225.292 13.664ZM228.539 4.988V8.438C228.795 8.126 229.095 7.892 229.439 7.736C229.783 7.576 230.137 7.496 230.501 7.496C231.097 7.496 231.541 7.662 231.833 7.994C232.125 8.322 232.271 8.784 232.271 9.38V14H230.927V9.59C230.927 9.21 230.855 8.938 230.711 8.774C230.567 8.606 230.335 8.522 230.015 8.522C229.815 8.522 229.623 8.568 229.439 8.66C229.259 8.748 229.091 8.864 228.935 9.008C228.783 9.152 228.651 9.306 228.539 9.47V14H227.195V5.132L228.539 4.988ZM235.734 7.664V12.092C235.734 12.468 235.808 12.736 235.956 12.896C236.108 13.056 236.336 13.136 236.64 13.136C236.928 13.136 237.206 13.05 237.474 12.878C237.742 12.706 237.954 12.496 238.11 12.248V7.664H239.454V14H238.296L238.212 13.19C237.976 13.506 237.678 13.748 237.318 13.916C236.958 14.08 236.59 14.162 236.214 14.162C235.602 14.162 235.144 13.994 234.84 13.658C234.54 13.318 234.39 12.852 234.39 12.26V7.664H235.734ZM242.93 8.42C243.15 8.132 243.406 7.906 243.698 7.742C243.994 7.578 244.318 7.496 244.67 7.496C245.226 7.496 245.676 7.634 246.02 7.91C246.368 8.182 246.622 8.568 246.782 9.068C246.946 9.564 247.028 10.148 247.028 10.82C247.028 11.464 246.932 12.038 246.74 12.542C246.548 13.046 246.264 13.442 245.888 13.73C245.516 14.018 245.056 14.162 244.508 14.162C243.8 14.162 243.244 13.9 242.84 13.376L242.768 14H241.586V5.12L242.93 4.97V8.42ZM244.172 13.136C244.628 13.136 244.98 12.95 245.228 12.578C245.48 12.206 245.606 11.622 245.606 10.826C245.606 10.286 245.556 9.848 245.456 9.512C245.356 9.172 245.208 8.924 245.012 8.768C244.82 8.612 244.584 8.534 244.304 8.534C244.004 8.534 243.74 8.624 243.512 8.804C243.284 8.984 243.09 9.196 242.93 9.44V12.404C243.078 12.632 243.256 12.812 243.464 12.944C243.676 13.072 243.912 13.136 244.172 13.136ZM250.149 12.998C250.149 12.782 250.199 12.588 250.299 12.416C250.403 12.24 250.543 12.1 250.719 11.996C250.895 11.892 251.091 11.84 251.307 11.84C251.527 11.84 251.725 11.892 251.901 11.996C252.077 12.1 252.215 12.24 252.315 12.416C252.419 12.588 252.471 12.782 252.471 12.998C252.471 13.21 252.419 13.406 252.315 13.586C252.215 13.762 252.077 13.902 251.901 14.006C251.725 14.11 251.527 14.162 251.307 14.162C251.091 14.162 250.895 14.11 250.719 14.006C250.543 13.902 250.403 13.762 250.299 13.586C250.199 13.406 250.149 13.21 250.149 12.998ZM259.03 13.058C259.326 13.058 259.602 13.008 259.858 12.908C260.114 12.804 260.358 12.67 260.59 12.506L261.214 13.37C260.938 13.606 260.602 13.798 260.206 13.946C259.814 14.09 259.408 14.162 258.988 14.162C258.34 14.162 257.786 14.026 257.326 13.754C256.866 13.478 256.514 13.092 256.27 12.596C256.026 12.1 255.904 11.522 255.904 10.862C255.904 10.218 256.026 9.644 256.27 9.14C256.518 8.632 256.874 8.232 257.338 7.94C257.802 7.644 258.36 7.496 259.012 7.496C259.444 7.496 259.842 7.56 260.206 7.688C260.57 7.816 260.904 8.006 261.208 8.258L260.59 9.104C260.342 8.932 260.088 8.802 259.828 8.714C259.572 8.622 259.308 8.576 259.036 8.576C258.536 8.576 258.126 8.76 257.806 9.128C257.49 9.496 257.332 10.074 257.332 10.862C257.332 11.39 257.404 11.816 257.548 12.14C257.696 12.46 257.898 12.694 258.154 12.842C258.41 12.986 258.702 13.058 259.03 13.058ZM265.71 7.496C266.33 7.496 266.852 7.634 267.276 7.91C267.7 8.186 268.02 8.572 268.236 9.068C268.456 9.564 268.566 10.148 268.566 10.82C268.566 11.488 268.454 12.074 268.23 12.578C268.01 13.078 267.686 13.468 267.258 13.748C266.834 14.024 266.316 14.162 265.704 14.162C265.092 14.162 264.572 14.028 264.144 13.76C263.72 13.488 263.396 13.102 263.172 12.602C262.952 12.102 262.842 11.512 262.842 10.832C262.842 10.172 262.952 9.592 263.172 9.092C263.396 8.592 263.722 8.202 264.15 7.922C264.578 7.638 265.098 7.496 265.71 7.496ZM265.71 8.54C265.226 8.54 264.862 8.726 264.618 9.098C264.374 9.466 264.252 10.044 264.252 10.832C264.252 11.616 264.372 12.194 264.612 12.566C264.856 12.938 265.22 13.124 265.704 13.124C266.188 13.124 266.55 12.938 266.79 12.566C267.034 12.194 267.156 11.612 267.156 10.82C267.156 10.04 267.036 9.466 266.796 9.098C266.556 8.726 266.194 8.54 265.71 8.54ZM274.735 7.496C274.975 7.496 275.191 7.548 275.383 7.652C275.575 7.756 275.725 7.938 275.833 8.198C275.945 8.458 276.001 8.822 276.001 9.29V14H274.807V9.476C274.807 9.144 274.783 8.906 274.735 8.762C274.691 8.618 274.573 8.546 274.381 8.546C274.229 8.546 274.075 8.594 273.919 8.69C273.763 8.782 273.605 8.942 273.445 9.17V14H272.359V9.476C272.359 9.144 272.335 8.906 272.287 8.762C272.243 8.618 272.125 8.546 271.933 8.546C271.777 8.546 271.621 8.594 271.465 8.69C271.313 8.782 271.157 8.942 270.997 9.17V14H269.797V7.664H270.811L270.901 8.348C271.081 8.096 271.277 7.892 271.489 7.736C271.701 7.576 271.957 7.496 272.257 7.496C272.497 7.496 272.715 7.556 272.911 7.676C273.107 7.796 273.251 8.006 273.343 8.306C273.519 8.066 273.719 7.872 273.943 7.724C274.167 7.572 274.431 7.496 274.735 7.496ZM278.084 15.278L277.016 14.798L282.116 4.256L283.172 4.754L278.084 15.278ZM285.873 11.264C285.901 11.696 285.993 12.05 286.149 12.326C286.305 12.598 286.509 12.798 286.761 12.926C287.017 13.054 287.297 13.118 287.601 13.118C287.913 13.118 288.201 13.07 288.465 12.974C288.729 12.878 288.995 12.742 289.263 12.566L289.845 13.37C289.549 13.61 289.203 13.802 288.807 13.946C288.411 14.09 287.987 14.162 287.535 14.162C286.879 14.162 286.323 14.022 285.867 13.742C285.415 13.462 285.071 13.072 284.835 12.572C284.599 12.072 284.481 11.494 284.481 10.838C284.481 10.202 284.597 9.634 284.829 9.134C285.061 8.63 285.393 8.232 285.825 7.94C286.257 7.644 286.773 7.496 287.373 7.496C287.937 7.496 288.421 7.624 288.825 7.88C289.233 8.136 289.547 8.5 289.767 8.972C289.991 9.44 290.103 10.004 290.103 10.664C290.103 10.772 290.099 10.88 290.091 10.988C290.087 11.092 290.081 11.184 290.073 11.264H285.873ZM287.385 8.492C286.965 8.492 286.617 8.642 286.341 8.942C286.069 9.242 285.911 9.71 285.867 10.346H288.801C288.789 9.75 288.661 9.292 288.417 8.972C288.177 8.652 287.833 8.492 287.385 8.492ZM292.889 14H291.401L293.675 10.658L291.653 7.664H293.201L294.497 9.896L295.793 7.664H297.269L295.289 10.604L297.569 14H295.991L294.437 11.414L292.889 14ZM303.99 12.446C303.99 12.694 304.028 12.876 304.104 12.992C304.18 13.104 304.302 13.188 304.47 13.244L304.17 14.156C303.858 14.12 303.59 14.034 303.366 13.898C303.142 13.762 302.972 13.556 302.856 13.28C302.624 13.572 302.33 13.792 301.974 13.94C301.618 14.088 301.238 14.162 300.834 14.162C300.194 14.162 299.686 13.982 299.31 13.622C298.938 13.258 298.752 12.782 298.752 12.194C298.752 11.526 299.012 11.012 299.532 10.652C300.052 10.292 300.796 10.112 301.764 10.112H302.67V9.698C302.67 9.29 302.546 8.996 302.298 8.816C302.054 8.636 301.708 8.546 301.26 8.546C301.052 8.546 300.8 8.574 300.504 8.63C300.208 8.682 299.898 8.764 299.574 8.876L299.244 7.928C299.64 7.78 300.028 7.672 300.408 7.604C300.788 7.532 301.14 7.496 301.464 7.496C302.312 7.496 302.944 7.684 303.36 8.06C303.78 8.436 303.99 8.956 303.99 9.62V12.446ZM301.242 13.172C301.514 13.172 301.78 13.1 302.04 12.956C302.3 12.812 302.51 12.61 302.67 12.35V10.952H301.926C301.294 10.952 300.842 11.058 300.57 11.27C300.298 11.478 300.162 11.766 300.162 12.134C300.162 12.47 300.252 12.728 300.432 12.908C300.616 13.084 300.886 13.172 301.242 13.172ZM310.711 7.496C310.951 7.496 311.167 7.548 311.359 7.652C311.551 7.756 311.701 7.938 311.809 8.198C311.921 8.458 311.977 8.822 311.977 9.29V14H310.783V9.476C310.783 9.144 310.759 8.906 310.711 8.762C310.667 8.618 310.549 8.546 310.357 8.546C310.205 8.546 310.051 8.594 309.895 8.69C309.739 8.782 309.581 8.942 309.421 9.17V14H308.335V9.476C308.335 9.144 308.311 8.906 308.263 8.762C308.219 8.618 308.101 8.546 307.909 8.546C307.753 8.546 307.597 8.594 307.441 8.69C307.289 8.782 307.133 8.942 306.973 9.17V14H305.773V7.664H306.787L306.877 8.348C307.057 8.096 307.253 7.892 307.465 7.736C307.677 7.576 307.933 7.496 308.233 7.496C308.473 7.496 308.691 7.556 308.887 7.676C309.083 7.796 309.227 8.006 309.319 8.306C309.495 8.066 309.695 7.872 309.919 7.724C310.143 7.572 310.407 7.496 310.711 7.496ZM316.629 7.496C317.189 7.496 317.637 7.634 317.973 7.91C318.309 8.182 318.553 8.568 318.705 9.068C318.857 9.564 318.933 10.148 318.933 10.82C318.933 11.464 318.841 12.038 318.657 12.542C318.473 13.046 318.199 13.442 317.835 13.73C317.475 14.018 317.027 14.162 316.491 14.162C315.827 14.162 315.291 13.928 314.883 13.46V16.436L313.539 16.586V7.664H314.709L314.793 8.48C315.033 8.152 315.311 7.906 315.627 7.742C315.947 7.578 316.281 7.496 316.629 7.496ZM316.257 8.534C315.957 8.534 315.693 8.624 315.465 8.804C315.237 8.984 315.043 9.196 314.883 9.44V12.404C315.035 12.632 315.215 12.808 315.423 12.932C315.635 13.052 315.873 13.112 316.137 13.112C316.589 13.112 316.933 12.93 317.169 12.566C317.405 12.202 317.523 11.622 317.523 10.826C317.523 10.286 317.475 9.848 317.379 9.512C317.287 9.172 317.147 8.924 316.959 8.768C316.775 8.612 316.541 8.534 316.257 8.534ZM323.518 5.12V12.272C323.518 12.564 323.606 12.772 323.782 12.896C323.962 13.016 324.194 13.076 324.478 13.076C324.662 13.076 324.836 13.056 325 13.016C325.164 12.976 325.324 12.926 325.48 12.866L325.822 13.802C325.634 13.898 325.402 13.982 325.126 14.054C324.854 14.126 324.542 14.162 324.19 14.162C323.554 14.162 323.058 13.984 322.702 13.628C322.35 13.268 322.174 12.776 322.174 12.152V6.11H320.26V5.12H323.518ZM329.045 11.264C329.073 11.696 329.165 12.05 329.321 12.326C329.477 12.598 329.681 12.798 329.933 12.926C330.189 13.054 330.469 13.118 330.773 13.118C331.085 13.118 331.373 13.07 331.637 12.974C331.901 12.878 332.167 12.742 332.435 12.566L333.017 13.37C332.721 13.61 332.375 13.802 331.979 13.946C331.583 14.09 331.159 14.162 330.707 14.162C330.051 14.162 329.495 14.022 329.039 13.742C328.587 13.462 328.243 13.072 328.007 12.572C327.771 12.072 327.653 11.494 327.653 10.838C327.653 10.202 327.769 9.634 328.001 9.134C328.233 8.63 328.565 8.232 328.997 7.94C329.429 7.644 329.945 7.496 330.545 7.496C331.109 7.496 331.593 7.624 331.997 7.88C332.405 8.136 332.719 8.5 332.939 8.972C333.163 9.44 333.275 10.004 333.275 10.664C333.275 10.772 333.271 10.88 333.263 10.988C333.259 11.092 333.253 11.184 333.245 11.264H329.045ZM330.557 8.492C330.137 8.492 329.789 8.642 329.513 8.942C329.241 9.242 329.083 9.71 329.039 10.346H331.973C331.961 9.75 331.833 9.292 331.589 8.972C331.349 8.652 331.005 8.492 330.557 8.492ZM335.647 15.278L334.579 14.798L339.679 4.256L340.735 4.754L335.647 15.278ZM343.664 7.664V12.092C343.664 12.468 343.738 12.736 343.886 12.896C344.038 13.056 344.266 13.136 344.57 13.136C344.858 13.136 345.136 13.05 345.404 12.878C345.672 12.706 345.884 12.496 346.04 12.248V7.664H347.384V14H346.226L346.142 13.19C345.906 13.506 345.608 13.748 345.248 13.916C344.888 14.08 344.52 14.162 344.144 14.162C343.532 14.162 343.074 13.994 342.77 13.658C342.47 13.318 342.32 12.852 342.32 12.26V7.664H343.664ZM349.575 14V13.04H350.505V8.618H349.575V7.664H351.531L351.777 9.134C352.013 8.602 352.305 8.198 352.653 7.922C353.005 7.642 353.457 7.502 354.009 7.502C354.197 7.502 354.365 7.518 354.513 7.55C354.665 7.578 354.815 7.616 354.963 7.664L354.561 8.816C354.433 8.78 354.313 8.754 354.201 8.738C354.089 8.718 353.965 8.708 353.829 8.708C353.369 8.708 352.971 8.88 352.635 9.224C352.303 9.568 352.041 10.056 351.849 10.688V13.04H353.127V14H349.575ZM353.775 9.998V8.438L353.943 7.664H354.963L354.735 9.998H353.775ZM359.495 5.12V12.272C359.495 12.564 359.583 12.772 359.759 12.896C359.939 13.016 360.171 13.076 360.455 13.076C360.639 13.076 360.813 13.056 360.977 13.016C361.141 12.976 361.301 12.926 361.457 12.866L361.799 13.802C361.611 13.898 361.379 13.982 361.103 14.054C360.831 14.126 360.519 14.162 360.167 14.162C359.531 14.162 359.035 13.984 358.679 13.628C358.327 13.268 358.151 12.776 358.151 12.152V6.11H356.237V5.12H359.495ZM364.17 5.456C364.17 5.188 364.268 4.962 364.464 4.778C364.66 4.594 364.894 4.502 365.166 4.502C365.442 4.502 365.676 4.594 365.868 4.778C366.06 4.962 366.156 5.188 366.156 5.456C366.156 5.592 366.134 5.73 366.09 5.87C366.05 6.006 365.974 6.19 365.862 6.422L364.938 8.384H364.044L364.536 6.206C364.424 6.126 364.334 6.022 364.266 5.894C364.202 5.766 364.17 5.62 364.17 5.456ZM366.834 5.456C366.834 5.188 366.932 4.962 367.128 4.778C367.328 4.594 367.562 4.502 367.83 4.502C368.11 4.502 368.346 4.594 368.538 4.778C368.73 4.962 368.826 5.188 368.826 5.456C368.826 5.592 368.806 5.73 368.766 5.87C368.726 6.006 368.652 6.19 368.544 6.422L367.608 8.384H366.714L367.212 6.206C367.1 6.126 367.008 6.022 366.936 5.894C366.868 5.766 366.834 5.62 366.834 5.456Z" fill="#A21CAF"/>
<path d="M146.979 14.75H154.179V15.05H146.979V14.75ZM154.174 14.75H161.374V15.05H154.174V14.75ZM161.369 14.75H168.569V15.05H161.369V14.75ZM168.564 14.75H175.764V15.05H168.564V14.75ZM175.76 14.75H182.96V15.05H175.76V14.75ZM182.955 14.75H190.155V15.05H182.955V14.75ZM190.15 14.75H197.35V15.05H190.15V14.75ZM197.346 14.75H204.546V15.05H197.346V14.75ZM204.541 14.75H211.741V15.05H204.541V14.75ZM211.736 14.75H218.936V15.05H211.736V14.75ZM218.932 14.75H226.132V15.05H218.932V14.75ZM226.127 14.75H233.327V15.05H226.127V14.75ZM233.322 14.75H240.522V15.05H233.322V14.75ZM240.518 14.75H247.718V15.05H240.518V14.75ZM247.713 14.75H254.913V15.05H247.713V14.75ZM254.908 14.75H262.108V15.05H254.908V14.75ZM262.104 14.75H269.304V15.05H262.104V14.75ZM269.299 14.75H276.499V15.05H269.299V14.75ZM276.494 14.75H283.694V15.05H276.494V14.75ZM283.689 14.75H290.889V15.05H283.689V14.75ZM290.885 14.75H298.085V15.05H290.885V14.75ZM298.08 14.75H305.28V15.05H298.08V14.75ZM305.275 14.75H312.475V15.05H305.275V14.75ZM312.471 14.75H319.671V15.05H312.471V14.75ZM319.666 14.75H326.866V15.05H319.666V14.75ZM326.861 14.75H334.061V15.05H326.861V14.75ZM334.057 14.75H341.257V15.05H334.057V14.75ZM341.252 14.75H348.452V15.05H341.252V14.75ZM348.447 14.75H355.647V15.05H348.447V14.75ZM355.643 14.75H362.843V15.05H355.643V14.75Z" fill="#A21CAF"/>
</g>
<defs>
<filter id="filter0_f_519_10510" x="0.0682678" y="0.256012" width="372.758" height="20.33" filterUnits="userSpaceOnUse" color-interpolation-filters="sRGB">
<feFlood flood-opacity="0" result="BackgroundImageFix"/>
<feBlend mode="normal" in="SourceGraphic" in2="BackgroundImageFix" result="shape"/>
<feGaussianBlur stdDeviation="2" result="effect1_foregroundBlur_519_10510"/>
</filter>
</defs>
</svg>
