<svg width="194" height="20" viewBox="0 0 194 20" fill="none" xmlns="http://www.w3.org/2000/svg">
<g filter="url(#filter0_f_519_10511)">
<path d="M3.16027 4.448L9.32827 8.256V9.704L3.22427 13.52L2.43227 12.408L8.00827 8.992L2.43227 5.592L3.16027 4.448ZM27.3078 10.864C27.3078 10.336 27.2038 9.928 26.9958 9.64C26.7931 9.34667 26.5184 9.144 26.1718 9.032C25.8304 8.92 25.4518 8.864 25.0358 8.864H23.2838V12.728H24.9638C25.2304 12.728 25.4998 12.704 25.7718 12.656C26.0491 12.608 26.3024 12.5173 26.5318 12.384C26.7664 12.2507 26.9531 12.0613 27.0918 11.816C27.2358 11.5707 27.3078 11.2533 27.3078 10.864ZM26.8758 5.864C26.8758 5.26667 26.6891 4.84267 26.3158 4.592C25.9478 4.336 25.4384 4.208 24.7878 4.208H23.2838V7.616H24.9158C25.5558 7.616 26.0411 7.47733 26.3718 7.2C26.7078 6.92267 26.8758 6.47733 26.8758 5.864ZM28.9718 10.84C28.9718 11.448 28.8518 11.9547 28.6118 12.36C28.3771 12.7653 28.0571 13.088 27.6518 13.328C27.2518 13.568 26.8011 13.7413 26.2998 13.848C25.8038 13.9493 25.2944 14 24.7718 14H21.6998V2.976H24.5398C25.0358 2.976 25.5184 3.02133 25.9878 3.112C26.4571 3.19733 26.8784 3.34667 27.2518 3.56C27.6304 3.768 27.9318 4.05333 28.1558 4.416C28.3798 4.77333 28.4918 5.22133 28.4918 5.76C28.4918 6.224 28.3931 6.62133 28.1958 6.952C28.0038 7.27733 27.7531 7.54133 27.4438 7.744C27.1344 7.94133 26.8038 8.08 26.4518 8.16C26.8571 8.22933 27.2518 8.35733 27.6358 8.544C28.0251 8.72533 28.3451 9 28.5958 9.368C28.8464 9.73067 28.9718 10.2213 28.9718 10.84ZM37.5975 12.064C37.5975 12.4 37.6508 12.6453 37.7575 12.8C37.8642 12.9493 38.0322 13.0613 38.2615 13.136L37.9015 14.192C37.5175 14.144 37.1842 14.0293 36.9015 13.848C36.6188 13.6667 36.4082 13.3893 36.2695 13.016C35.9655 13.4053 35.5815 13.7013 35.1175 13.904C34.6535 14.1013 34.1495 14.2 33.6055 14.2C32.7575 14.2 32.0882 13.96 31.5975 13.48C31.1068 13 30.8615 12.368 30.8615 11.584C30.8615 10.704 31.2028 10.0293 31.8855 9.56C32.5735 9.09067 33.5602 8.856 34.8455 8.856H36.0695V8.216C36.0695 7.63467 35.8962 7.22133 35.5495 6.976C35.2082 6.73067 34.7308 6.608 34.1175 6.608C33.8402 6.608 33.5095 6.64267 33.1255 6.712C32.7415 6.78133 32.3335 6.89067 31.9015 7.04L31.5095 5.92C32.0322 5.72267 32.5308 5.58133 33.0055 5.496C33.4855 5.41067 33.9335 5.368 34.3495 5.368C35.4375 5.368 36.2508 5.616 36.7895 6.112C37.3282 6.60267 37.5975 7.27733 37.5975 8.136V12.064ZM34.0375 13.048C34.4322 13.048 34.8108 12.9467 35.1735 12.744C35.5362 12.5413 35.8348 12.2587 36.0695 11.896V9.856H34.9495C34.0588 9.856 33.4268 10.008 33.0535 10.312C32.6802 10.6107 32.4935 11.0213 32.4935 11.544C32.4935 12.0347 32.6215 12.408 32.8775 12.664C33.1335 12.92 33.5202 13.048 34.0375 13.048ZM44.8953 12.904C45.3059 12.904 45.6873 12.8347 46.0393 12.696C46.3966 12.5573 46.7299 12.3813 47.0393 12.168L47.7753 13.168C47.4073 13.4827 46.9619 13.7333 46.4393 13.92C45.9166 14.1067 45.3939 14.2 44.8713 14.2C44.0233 14.2 43.2979 14.0187 42.6953 13.656C42.0979 13.2933 41.6419 12.784 41.3273 12.128C41.0126 11.472 40.8553 10.704 40.8553 9.824C40.8553 8.97067 41.0126 8.208 41.3273 7.536C41.6473 6.864 42.1086 6.336 42.7113 5.952C43.3139 5.56267 44.0419 5.368 44.8953 5.368C45.4499 5.368 45.9646 5.45333 46.4393 5.624C46.9193 5.78933 47.3593 6.03467 47.7593 6.36L47.0313 7.36C46.6846 7.12 46.3353 6.93867 45.9833 6.816C45.6313 6.688 45.2713 6.624 44.9033 6.624C44.1993 6.624 43.6233 6.88533 43.1753 7.408C42.7273 7.93067 42.5033 8.736 42.5033 9.824C42.5033 10.5493 42.6046 11.1387 42.8073 11.592C43.0153 12.0453 43.3006 12.3787 43.6633 12.592C44.0259 12.8 44.4366 12.904 44.8953 12.904ZM57.793 5.568L54.161 9.352L58.193 14H56.249L52.321 9.392L55.897 5.568H57.793ZM52.177 1.992V14H50.641V2.176L52.177 1.992ZM60.1868 10.28V8.984H66.6828V10.28H60.1868ZM70.9965 10.304C71.0285 10.9227 71.1538 11.4293 71.3725 11.824C71.5912 12.2133 71.8765 12.5013 72.2285 12.688C72.5805 12.8693 72.9698 12.96 73.3965 12.96C73.8178 12.96 74.2045 12.896 74.5565 12.768C74.9085 12.64 75.2658 12.4533 75.6285 12.208L76.3245 13.176C75.9298 13.4907 75.4738 13.7413 74.9565 13.928C74.4392 14.1093 73.9032 14.2 73.3485 14.2C72.5058 14.2 71.7885 14.016 71.1965 13.648C70.6098 13.2747 70.1618 12.7573 69.8525 12.096C69.5485 11.4347 69.3965 10.6667 69.3965 9.792C69.3965 8.944 69.5485 8.18667 69.8525 7.52C70.1618 6.85333 70.5965 6.328 71.1565 5.944C71.7165 5.56 72.3832 5.368 73.1565 5.368C73.8818 5.368 74.5058 5.536 75.0285 5.872C75.5565 6.208 75.9618 6.688 76.2445 7.312C76.5272 7.93067 76.6685 8.672 76.6685 9.536C76.6685 9.68 76.6658 9.81867 76.6605 9.952C76.6552 10.0853 76.6472 10.2027 76.6365 10.304H70.9965ZM73.1725 6.568C72.5752 6.568 72.0765 6.78133 71.6765 7.208C71.2818 7.63467 71.0552 8.29333 70.9965 9.184H75.1885C75.1725 8.33067 74.9858 7.68267 74.6285 7.24C74.2765 6.792 73.7912 6.568 73.1725 6.568ZM79.3503 14V5.568H80.6703L80.7823 6.704C81.1289 6.272 81.5503 5.94133 82.0463 5.712C82.5476 5.48267 83.0463 5.368 83.5423 5.368C84.3529 5.368 84.9503 5.58933 85.3343 6.032C85.7183 6.46933 85.9103 7.08 85.9103 7.864V14H84.3743V8.808C84.3743 8.27467 84.3423 7.84267 84.2783 7.512C84.2196 7.176 84.0943 6.93333 83.9023 6.784C83.7103 6.63467 83.4196 6.56 83.0303 6.56C82.7263 6.56 82.4383 6.62667 82.1663 6.76C81.8943 6.89333 81.6489 7.06133 81.4303 7.264C81.2169 7.46667 81.0356 7.67733 80.8863 7.896V14H79.3503ZM93.952 1.992L95.488 2.176V14H94.136L94.008 12.92C93.7093 13.3467 93.3573 13.6667 92.952 13.88C92.5467 14.0933 92.104 14.2 91.624 14.2C90.8987 14.2 90.2987 14.016 89.824 13.648C89.3547 13.2747 89.0053 12.7573 88.776 12.096C88.5467 11.4347 88.432 10.6667 88.432 9.792C88.432 8.93867 88.5627 8.18133 88.824 7.52C89.0907 6.85333 89.4693 6.328 89.96 5.944C90.456 5.56 91.0533 5.368 91.752 5.368C92.216 5.368 92.6293 5.45067 92.992 5.616C93.3547 5.776 93.6747 6.01333 93.952 6.328V1.992ZM92.152 6.576C91.496 6.576 90.9867 6.84 90.624 7.368C90.2613 7.896 90.08 8.704 90.08 9.792C90.08 10.512 90.1547 11.1093 90.304 11.584C90.4533 12.0587 90.6693 12.4107 90.952 12.64C91.2347 12.8693 91.5813 12.984 91.992 12.984C92.4347 12.984 92.816 12.856 93.136 12.6C93.4613 12.344 93.7333 12.048 93.952 11.712V7.592C93.7333 7.272 93.4693 7.024 93.16 6.848C92.856 6.66667 92.52 6.576 92.152 6.576ZM113.14 1.992L114.676 2.176V14H113.324L113.196 12.92C112.897 13.3467 112.545 13.6667 112.14 13.88C111.734 14.0933 111.292 14.2 110.812 14.2C110.086 14.2 109.486 14.016 109.012 13.648C108.542 13.2747 108.193 12.7573 107.964 12.096C107.734 11.4347 107.62 10.6667 107.62 9.792C107.62 8.93867 107.75 8.18133 108.012 7.52C108.278 6.85333 108.657 6.328 109.148 5.944C109.644 5.56 110.241 5.368 110.94 5.368C111.404 5.368 111.817 5.45067 112.18 5.616C112.542 5.776 112.862 6.01333 113.14 6.328V1.992ZM111.34 6.576C110.684 6.576 110.174 6.84 109.812 7.368C109.449 7.896 109.268 8.704 109.268 9.792C109.268 10.512 109.342 11.1093 109.492 11.584C109.641 12.0587 109.857 12.4107 110.14 12.64C110.422 12.8693 110.769 12.984 111.18 12.984C111.622 12.984 112.004 12.856 112.324 12.6C112.649 12.344 112.921 12.048 113.14 11.712V7.592C112.921 7.272 112.657 7.024 112.348 6.848C112.044 6.66667 111.708 6.576 111.34 6.576ZM118.965 10.304C118.997 10.9227 119.123 11.4293 119.341 11.824C119.56 12.2133 119.845 12.5013 120.197 12.688C120.549 12.8693 120.939 12.96 121.365 12.96C121.787 12.96 122.173 12.896 122.525 12.768C122.877 12.64 123.235 12.4533 123.597 12.208L124.293 13.176C123.899 13.4907 123.443 13.7413 122.925 13.928C122.408 14.1093 121.872 14.2 121.317 14.2C120.475 14.2 119.757 14.016 119.165 13.648C118.579 13.2747 118.131 12.7573 117.821 12.096C117.517 11.4347 117.365 10.6667 117.365 9.792C117.365 8.944 117.517 8.18667 117.821 7.52C118.131 6.85333 118.565 6.328 119.125 5.944C119.685 5.56 120.352 5.368 121.125 5.368C121.851 5.368 122.475 5.536 122.997 5.872C123.525 6.208 123.931 6.688 124.213 7.312C124.496 7.93067 124.637 8.672 124.637 9.536C124.637 9.68 124.635 9.81867 124.629 9.952C124.624 10.0853 124.616 10.2027 124.605 10.304H118.965ZM121.141 6.568C120.544 6.568 120.045 6.78133 119.645 7.208C119.251 7.63467 119.024 8.29333 118.965 9.184H123.157C123.141 8.33067 122.955 7.68267 122.597 7.24C122.245 6.792 121.76 6.568 121.141 6.568ZM134.503 5.568L131.479 14H129.687L126.679 5.568H128.311L130.623 12.664L132.927 5.568H134.503ZM138.153 10.304C138.185 10.9227 138.31 11.4293 138.529 11.824C138.747 12.2133 139.033 12.5013 139.385 12.688C139.737 12.8693 140.126 12.96 140.553 12.96C140.974 12.96 141.361 12.896 141.713 12.768C142.065 12.64 142.422 12.4533 142.785 12.208L143.481 13.176C143.086 13.4907 142.63 13.7413 142.113 13.928C141.595 14.1093 141.059 14.2 140.505 14.2C139.662 14.2 138.945 14.016 138.353 13.648C137.766 13.2747 137.318 12.7573 137.009 12.096C136.705 11.4347 136.553 10.6667 136.553 9.792C136.553 8.944 136.705 8.18667 137.009 7.52C137.318 6.85333 137.753 6.328 138.313 5.944C138.873 5.56 139.539 5.368 140.313 5.368C141.038 5.368 141.662 5.536 142.185 5.872C142.713 6.208 143.118 6.688 143.401 7.312C143.683 7.93067 143.825 8.672 143.825 9.536C143.825 9.68 143.822 9.81867 143.817 9.952C143.811 10.0853 143.803 10.2027 143.793 10.304H138.153ZM140.329 6.568C139.731 6.568 139.233 6.78133 138.833 7.208C138.438 7.63467 138.211 8.29333 138.153 9.184H142.345C142.329 8.33067 142.142 7.68267 141.785 7.24C141.433 6.792 140.947 6.568 140.329 6.568ZM149.971 2.176V11.824C149.971 12.2293 150.096 12.5173 150.347 12.688C150.597 12.8533 150.92 12.936 151.315 12.936C151.565 12.936 151.803 12.9093 152.027 12.856C152.251 12.8027 152.475 12.7333 152.699 12.648L153.099 13.744C152.864 13.8613 152.571 13.9653 152.219 14.056C151.867 14.152 151.469 14.2 151.027 14.2C150.237 14.2 149.608 13.9787 149.139 13.536C148.669 13.0933 148.435 12.4853 148.435 11.712V3.344H145.867V2.176H149.971ZM159.388 5.368C160.194 5.368 160.868 5.54933 161.412 5.912C161.962 6.27467 162.375 6.78667 162.652 7.448C162.935 8.104 163.076 8.88 163.076 9.776C163.076 10.6453 162.932 11.4133 162.644 12.08C162.362 12.7413 161.946 13.2613 161.396 13.64C160.847 14.0133 160.172 14.2 159.372 14.2C158.572 14.2 157.895 14.0187 157.34 13.656C156.791 13.2933 156.375 12.7813 156.092 12.12C155.81 11.4587 155.668 10.6827 155.668 9.792C155.668 8.91733 155.81 8.14933 156.092 7.488C156.38 6.82133 156.802 6.30133 157.356 5.928C157.911 5.55467 158.588 5.368 159.388 5.368ZM159.388 6.592C158.695 6.592 158.172 6.85333 157.82 7.376C157.468 7.89333 157.292 8.69867 157.292 9.792C157.292 10.8747 157.466 11.6773 157.812 12.2C158.159 12.7173 158.679 12.976 159.372 12.976C160.066 12.976 160.586 12.7173 160.932 12.2C161.279 11.6773 161.452 10.8693 161.452 9.776C161.452 8.688 161.279 7.88533 160.932 7.368C160.591 6.85067 160.076 6.592 159.388 6.592ZM169.614 5.368C170.361 5.368 170.958 5.552 171.406 5.92C171.854 6.28267 172.177 6.79467 172.374 7.456C172.571 8.112 172.67 8.88533 172.67 9.776C172.67 10.6293 172.55 11.3893 172.31 12.056C172.07 12.7227 171.71 13.248 171.23 13.632C170.75 14.0107 170.147 14.2 169.422 14.2C168.51 14.2 167.779 13.88 167.23 13.24V17.232L165.694 17.416V5.568H167.014L167.126 6.704C167.441 6.272 167.811 5.94133 168.238 5.712C168.665 5.48267 169.123 5.368 169.614 5.368ZM169.222 6.576C168.785 6.576 168.398 6.70933 168.062 6.976C167.726 7.23733 167.449 7.536 167.23 7.872V11.952C167.443 12.2667 167.705 12.5147 168.014 12.696C168.323 12.872 168.667 12.96 169.046 12.96C169.707 12.96 170.206 12.704 170.542 12.192C170.878 11.6747 171.046 10.8693 171.046 9.776C171.046 9.04533 170.979 8.44533 170.846 7.976C170.713 7.50133 170.51 7.14933 170.238 6.92C169.971 6.69067 169.633 6.576 169.222 6.576ZM176.528 10.304C176.56 10.9227 176.685 11.4293 176.904 11.824C177.122 12.2133 177.408 12.5013 177.76 12.688C178.112 12.8693 178.501 12.96 178.928 12.96C179.349 12.96 179.736 12.896 180.088 12.768C180.44 12.64 180.797 12.4533 181.16 12.208L181.856 13.176C181.461 13.4907 181.005 13.7413 180.488 13.928C179.97 14.1093 179.434 14.2 178.88 14.2C178.037 14.2 177.32 14.016 176.728 13.648C176.141 13.2747 175.693 12.7573 175.384 12.096C175.08 11.4347 174.928 10.6667 174.928 9.792C174.928 8.944 175.08 8.18667 175.384 7.52C175.693 6.85333 176.128 6.328 176.688 5.944C177.248 5.56 177.914 5.368 178.688 5.368C179.413 5.368 180.037 5.536 180.56 5.872C181.088 6.208 181.493 6.688 181.776 7.312C182.058 7.93067 182.2 8.672 182.2 9.536C182.2 9.68 182.197 9.81867 182.192 9.952C182.186 10.0853 182.178 10.2027 182.168 10.304H176.528ZM178.704 6.568C178.106 6.568 177.608 6.78133 177.208 7.208C176.813 7.63467 176.586 8.29333 176.528 9.184H180.72C180.704 8.33067 180.517 7.68267 180.16 7.24C179.808 6.792 179.322 6.568 178.704 6.568ZM184.962 14V12.864H186.242V6.704H184.962V5.568H187.418L187.698 7.544C188.018 6.84533 188.41 6.30933 188.874 5.936C189.343 5.55733 189.951 5.368 190.698 5.368C190.943 5.368 191.159 5.38667 191.346 5.424C191.538 5.46133 191.732 5.50933 191.93 5.568L191.474 6.912C191.298 6.85867 191.138 6.82133 190.994 6.8C190.85 6.77867 190.684 6.768 190.498 6.768C189.863 6.768 189.319 6.99733 188.866 7.456C188.412 7.91467 188.05 8.58933 187.778 9.48V12.864H189.49V14H184.962ZM190.506 8.528V6.592L190.682 5.568H191.93L191.69 8.528H190.506Z" fill="#1E3A8A"/>
</g>
<defs>
<filter id="filter0_f_519_10511" x="0.432251" y="-0.00799561" width="193.497" height="19.424" filterUnits="userSpaceOnUse" color-interpolation-filters="sRGB">
<feFlood flood-opacity="0" result="BackgroundImageFix"/>
<feBlend mode="normal" in="SourceGraphic" in2="BackgroundImageFix" result="shape"/>
<feGaussianBlur stdDeviation="1" result="effect1_foregroundBlur_519_10511"/>
</filter>
</defs>
</svg>
