<svg aria-hidden="true" style="position: absolute; width: 0; height: 0; overflow: hidden;" version="1.1" xmlns="http://www.w3.org/2000/svg" xmlns:xlink="http://www.w3.org/1999/xlink">
<defs>
    <symbol
      id="icon-stripe"
      width="800px"
      height="800px"
      viewBox="0 -9 58 58"
      fill="none"
      xmlns="http://www.w3.org/2000/svg"
    >
      <rect
        x="0.5"
        y="0.5"
        width="57"
        height="39"
        rx="3.5"
        fill="white"
        stroke="#F3F3F3"
      />
      <path
        fill-rule="evenodd"
        clip-rule="evenodd"
        d="M30.6556 14.3007L27.8667 14.9127V12.6007L30.6556 12V14.3007ZM36.4556 15.5813C35.3667 15.5813 34.6667 16.1027 34.2778 16.4653L34.1333 15.7627H31.6889V28.9773L34.4667 28.3767L34.4778 25.1693C34.8778 25.464 35.4667 25.8833 36.4444 25.8833C38.4333 25.8833 40.2444 24.2513 40.2444 20.6587C40.2333 17.372 38.4 15.5813 36.4556 15.5813ZM35.7889 23.39C35.1333 23.39 34.7444 23.152 34.4778 22.8573L34.4667 18.6527C34.7556 18.324 35.1556 18.0973 35.7889 18.0973C36.8 18.0973 37.5 19.2533 37.5 20.738C37.5 22.2567 36.8111 23.39 35.7889 23.39ZM49 20.772C49 17.8707 47.6222 15.5813 44.9889 15.5813C42.3444 15.5813 40.7444 17.8707 40.7444 20.7493C40.7444 24.1607 42.6333 25.8833 45.3444 25.8833C46.6667 25.8833 47.6667 25.5773 48.4222 25.1467V22.88C47.6667 23.2653 46.8 23.5033 45.7 23.5033C44.6222 23.5033 43.6667 23.118 43.5444 21.7807H48.9778C48.9778 21.7182 48.9818 21.5763 48.9864 21.4128C48.9926 21.1907 49 20.9287 49 20.772ZM43.5111 19.6953C43.5111 18.4147 44.2778 17.882 44.9778 17.882C45.6556 17.882 46.3778 18.4147 46.3778 19.6953H43.5111ZM27.8667 15.774H30.6556V25.6907H27.8667V15.774ZM24.7 15.774L24.8778 16.6127C25.5333 15.3887 26.8333 15.638 27.1889 15.774V18.3807C26.8444 18.256 25.7333 18.0973 25.0778 18.97V25.6907H22.3V15.774H24.7ZM19.3222 13.3147L16.6111 13.904L16.6 22.982C16.6 24.6593 17.8333 25.8947 19.4778 25.8947C20.3889 25.8947 21.0556 25.7247 21.4222 25.5207V23.22C21.0667 23.3673 19.3111 23.8887 19.3111 22.2113V18.188H21.4222V15.774H19.3111L19.3222 13.3147ZM12.7556 18.0407C12.1667 18.0407 11.8111 18.2107 11.8111 18.6527C11.8111 19.1353 12.423 19.3475 13.1822 19.6109C14.4198 20.0403 16.0487 20.6054 16.0556 22.6987C16.0556 24.7273 14.4667 25.8947 12.1556 25.8947C11.2 25.8947 10.1556 25.702 9.12222 25.2487V22.5513C10.0556 23.0727 11.2333 23.458 12.1556 23.458C12.7778 23.458 13.2222 23.288 13.2222 22.7667C13.2222 22.2321 12.5589 21.9878 11.7581 21.6928C10.5385 21.2435 9 20.6768 9 18.7887C9 16.7827 10.5 15.5813 12.7556 15.5813C13.6778 15.5813 14.5889 15.7287 15.5111 16.1027V18.766C14.6667 18.3013 13.6 18.0407 12.7556 18.0407Z"
        fill="#6772E5"
      />
    </symbol>
    <symbol
      id="icon-strapi"
      width="800px"
      height="800px"
      viewBox="0 -2 256 256"
      version="1.1"
      xmlns="http://www.w3.org/2000/svg"
      xmlns:xlink="http://www.w3.org/1999/xlink"
      preserveAspectRatio="xMidYMid"
    >
      <g fill="#8E75FF">
        <path
          d="M249.868148,1.42108547e-14 L81.6129672,1.42108547e-14 L81.6129672,84.3619834 L164.402564,84.3619834 C167.35201,84.3619834 169.744773,86.7547464 169.744773,89.7041929 L169.744773,171.351123 L255.210366,171.351123 L255.210366,5.3519758 C255.212951,3.93344238 254.651257,2.57212016 253.649118,1.56814827 C252.646978,0.56417638 251.286684,1.42108547e-14 249.868148,1.42108547e-14 Z"
        ></path>
        <path
          d="M81.6032009,0 L81.6032009,84.3619834 L2.67132424,84.3619834 C1.58669272,84.3600599 0.610497706,83.7036101 0.199569944,82.6998335 C-0.211357818,81.6960568 0.0242672254,80.5435101 0.796179436,79.7815516 L81.6032009,0 L81.6032009,0 Z M174.295906,251.220572 C173.527464,251.975341 172.381399,252.195816 171.387771,251.780027 C170.394142,251.364238 169.746654,250.393242 169.744773,249.316128 L169.744773,171.351123 L255.210357,171.351123 L174.295906,251.210806 L174.295906,251.220572 L174.295906,251.220572 Z"
          opacity="0.405"
        ></path>
        <path
          d="M81.6032009,84.3619834 L167.078552,84.3619834 C168.543508,84.3619834 169.744773,85.5534817 169.744773,87.028205 L169.744773,171.351123 L86.9551767,171.351123 C84.0047559,171.351123 81.6129672,168.959334 81.6129672,166.008913 L81.6129672,84.3619834 L81.6032009,84.3619834 L81.6032009,84.3619834 Z"
          fill-rule="nonzero"
          opacity="0.405"
        ></path>
      </g>
    </symbol>
<symbol id="icon-azure-devops" viewBox="0 0 32 32">
<path fill="#0078D4" d="M30 7.244v17.024l-7 5.732-10.85-3.95v3.916l-6.142-8.026 17.902 1.4v-15.33l6.090-0.766zM24.032 8.1l-10.044-6.1v4.002l-9.224 2.71-2.764 3.548v8.058l3.956 1.746v-10.326l18.076-3.638z"></path>
</symbol>
<symbol id="icon-experiences" viewBox="0 0 32 32">
<path fill="none"  stroke-linejoin="round" stroke-linecap="round" stroke-miterlimit="4" stroke-width="2.672" d="M15.999 16h0.013M21.332 8v-2.667c0-0.707-0.281-1.386-0.781-1.886s-1.178-0.781-1.886-0.781h-5.333c-0.707 0-1.386 0.281-1.886 0.781s-0.781 1.178-0.781 1.886v2.667M29.332 17.333c-3.956 2.612-8.593 4.004-13.333 4.004s-9.377-1.392-13.333-4.004M5.332 8h21.333c1.473 0 2.667 1.194 2.667 2.667v13.333c0 1.473-1.194 2.667-2.667 2.667h-21.333c-1.473 0-2.667-1.194-2.667-2.667v-13.333c0-1.473 1.194-2.667 2.667-2.667z"></path>
</symbol>
<symbol id="icon-git" viewBox="0 0 32 32">
<path fill="#ee513b" style="fill: var(--color3, #ee513b)" d="M2.585 17.413c-0.78-0.78-0.78-2.046 0-2.826l12.001-12.001c0.78-0.78 2.046-0.78 2.826 0l12.001 12.001c0.781 0.78 0.781 2.046 0 2.826l-12.001 12.001c-0.78 0.781-2.046 0.781-2.826 0l-12.001-12.001z"></path>
<path fill="#fff" style="fill: var(--color1, #fff)" d="M12.148 5.061l-1.215 1.215 3.139 3.139c-0.127 0.272-0.198 0.576-0.198 0.897 0 0.91 0.572 1.686 1.375 1.989v7.679c-0.803 0.303-1.375 1.079-1.375 1.989 0 1.174 0.951 2.125 2.125 2.125s2.125-0.951 2.125-2.125c0-0.825-0.47-1.54-1.156-1.892v-7.765l3.001 3.001c-0.121 0.267-0.188 0.563-0.188 0.875 0 1.174 0.951 2.125 2.125 2.125s2.125-0.951 2.125-2.125-0.952-2.125-2.125-2.125c-0.228 0-0.448 0.036-0.654 0.102l-3.223-3.223c0.062-0.199 0.095-0.411 0.095-0.63 0-1.174-0.951-2.125-2.125-2.125-0.219 0-0.431 0.033-0.63 0.095l-3.221-3.221z"></path>
</symbol>
<symbol id="icon-mongodb" viewBox="0 0 16 32">
<path fill="#599636" style="fill: var(--color4, #599636)" d="M7.237 0.529l0.829 1.557c0.186 0.287 0.388 0.542 0.626 0.779 0.697 0.689 1.347 1.423 1.945 2.2 1.405 1.844 2.352 3.893 3.029 6.108 0.406 1.353 0.626 2.741 0.643 4.145 0.068 4.196-1.371 7.8-4.271 10.794-0.472 0.475-0.982 0.91-1.524 1.303-0.287 0-0.423-0.22-0.542-0.423-0.216-0.376-0.359-0.789-0.423-1.218-0.102-0.508-0.169-1.015-0.136-1.54v-0.237c-0.023-0.050-0.277-23.348-0.176-23.467z"></path>
<path fill="#6cac48" style="fill: var(--color5, #6cac48)" d="M7.239 0.477c-0.034-0.068-0.068-0.017-0.102 0.017 0.016 0.34-0.102 0.643-0.287 0.932-0.204 0.287-0.474 0.508-0.745 0.745-1.505 1.303-2.689 2.876-3.637 4.636-1.262 2.369-1.912 4.907-2.097 7.579-0.084 0.964 0.305 4.365 0.609 5.347 0.829 2.605 2.318 4.789 4.247 6.683 0.474 0.456 0.98 0.88 1.505 1.286 0.152 0 0.169-0.136 0.204-0.237 0.067-0.216 0.118-0.437 0.152-0.66l0.34-2.537-0.188-23.791z"></path>
<path fill="#c2bfbf" style="fill: var(--color6, #c2bfbf)" d="M8.066 28.446c0.034-0.388 0.22-0.71 0.423-1.032-0.204-0.085-0.355-0.253-0.474-0.44-0.102-0.177-0.187-0.364-0.252-0.558-0.237-0.711-0.287-1.456-0.355-2.182v-0.44c-0.084 0.068-0.102 0.643-0.102 0.728-0.049 0.767-0.151 1.531-0.305 2.284-0.050 0.305-0.084 0.609-0.272 0.879 0 0.034 0 0.068 0.016 0.118 0.305 0.897 0.388 1.81 0.44 2.741v0.34c0 0.406-0.016 0.321 0.32 0.456 0.136 0.050 0.287 0.068 0.423 0.169 0.102 0 0.118-0.085 0.118-0.153l-0.050-0.558v-1.557c-0.016-0.272 0.034-0.542 0.068-0.796l0.001-0.001z"></path>
</symbol>
<symbol id="icon-mysql" viewBox="0 0 32 32">
<path fill="#00546b" style="fill: var(--color7, #00546b)" d="M29.099 24.506c-1.693-0.043-3.005 0.129-4.105 0.604-0.317 0.129-0.825 0.129-0.868 0.539 0.169 0.172 0.19 0.453 0.339 0.69 0.254 0.431 0.698 1.013 1.1 1.315 0.444 0.345 0.889 0.69 1.354 0.991 0.825 0.518 1.757 0.819 2.561 1.337 0.466 0.302 0.931 0.69 1.396 1.013 0.233 0.172 0.381 0.453 0.677 0.561v-0.065c-0.148-0.194-0.191-0.474-0.339-0.69-0.211-0.216-0.423-0.41-0.635-0.625-0.614-0.841-1.375-1.573-2.2-2.177-0.677-0.474-2.159-1.121-2.433-1.918 0 0-0.021-0.021-0.042-0.043 0.465-0.043 1.016-0.216 1.46-0.345 0.719-0.194 1.375-0.151 2.116-0.345 0.338-0.086 0.677-0.194 1.015-0.302v-0.194c-0.381-0.388-0.656-0.905-1.058-1.272-1.079-0.949-2.264-1.875-3.491-2.651-0.656-0.431-1.503-0.711-2.201-1.078-0.254-0.129-0.677-0.194-0.825-0.41-0.381-0.474-0.593-1.099-0.868-1.66-0.613-1.186-1.206-2.501-1.735-3.751-0.381-0.841-0.613-1.682-1.079-2.457-2.179-3.665-4.549-5.885-8.189-8.062-0.783-0.453-1.714-0.647-2.708-0.884-0.529-0.022-1.058-0.065-1.587-0.086-0.339-0.151-0.677-0.56-0.973-0.754-1.206-0.776-4.317-2.457-5.205-0.237-0.571 1.401 0.846 2.781 1.333 3.492 0.36 0.496 0.825 1.056 1.079 1.617 0.148 0.366 0.19 0.755 0.338 1.142 0.339 0.948 0.656 2.005 1.1 2.889 0.233 0.453 0.487 0.927 0.783 1.336 0.169 0.237 0.465 0.345 0.529 0.733-0.296 0.431-0.317 1.078-0.487 1.617-0.762 2.436-0.465 5.454 0.614 7.243 0.338 0.539 1.143 1.725 2.222 1.272 0.952-0.388 0.741-1.617 1.016-2.694 0.064-0.259 0.021-0.431 0.148-0.604v0.043c0.296 0.603 0.592 1.186 0.868 1.789 0.656 1.056 1.799 2.156 2.751 2.889 0.508 0.388 0.91 1.056 1.545 1.293v-0.065h-0.042c-0.127-0.194-0.317-0.28-0.487-0.431-0.381-0.388-0.804-0.862-1.1-1.293-0.889-1.207-1.672-2.544-2.37-3.923-0.338-0.668-0.635-1.401-0.91-2.069-0.127-0.259-0.127-0.647-0.339-0.776-0.317 0.474-0.783 0.884-1.016 1.466-0.402 0.927-0.444 2.069-0.592 3.255-0.085 0.022-0.042 0-0.085 0.043-0.677-0.173-0.91-0.884-1.164-1.488-0.635-1.53-0.741-3.988-0.19-5.755 0.148-0.453 0.783-1.875 0.529-2.306-0.127-0.41-0.55-0.647-0.783-0.97-0.275-0.41-0.571-0.927-0.762-1.38-0.508-1.207-0.762-2.544-1.312-3.751-0.254-0.561-0.698-1.142-1.058-1.66-0.402-0.582-0.846-0.992-1.164-1.681-0.106-0.237-0.254-0.625-0.085-0.884 0.042-0.172 0.127-0.237 0.296-0.28 0.275-0.237 1.058 0.065 1.333 0.194 0.783 0.323 1.439 0.625 2.095 1.078 0.296 0.216 0.614 0.625 0.994 0.733h0.444c0.677 0.151 1.439 0.043 2.074 0.237 1.122 0.366 2.137 0.905 3.047 1.487 2.772 1.789 5.057 4.333 6.602 7.372 0.254 0.496 0.36 0.949 0.592 1.466 0.445 1.056 0.995 2.134 1.439 3.169 0.444 1.013 0.868 2.048 1.502 2.889 0.317 0.452 1.587 0.69 2.158 0.927 0.423 0.194 1.079 0.366 1.46 0.604 0.719 0.452 1.439 0.97 2.116 1.466 0.339 0.259 1.397 0.798 1.46 1.229z"></path>
<path fill="#00546b" style="fill: var(--color7, #00546b)" d="M7.518 5.775c-0.36 0-0.613 0.043-0.867 0.108v0.043h0.042c0.169 0.345 0.465 0.582 0.677 0.884 0.169 0.345 0.317 0.69 0.487 1.035 0.021-0.022 0.042-0.043 0.042-0.043 0.296-0.216 0.444-0.561 0.444-1.078-0.127-0.151-0.148-0.302-0.254-0.453-0.127-0.216-0.402-0.323-0.571-0.496z"></path>
</symbol>
<symbol id="icon-php" viewBox="0 0 32 32">
<path fill="#8892bf" style="fill: var(--color8, #8892bf)" d="M30 16c0 7.732-6.268 14-14 14s-14-6.268-14-14c0-7.732 6.268-14 14-14s14 6.268 14 14z"></path>
<path fill="#fff" style="fill: var(--color1, #fff)" d="M14.439 10h1.68l-0.475 2.524h1.51c0.828 0.018 1.445 0.203 1.851 0.555 0.414 0.352 0.536 1.022 0.365 2.009l-0.816 4.401h-1.704l0.779-4.203c0.081-0.441 0.057-0.753-0.073-0.938s-0.41-0.278-0.84-0.278l-1.351-0.013-0.998 5.432h-1.68l1.753-9.489z"></path>
<path fill="#fff" style="fill: var(--color1, #fff)" d="M6.741 12.524l-1.741 9.476h1.692l0.463-2.511h1.461c0.495 0 0.974-0.062 1.437-0.185s0.897-0.414 1.303-0.872c0.333-0.361 0.592-0.767 0.779-1.216 0.195-0.449 0.321-0.907 0.377-1.374 0.146-1.022 0.004-1.828-0.426-2.418s-1.124-0.89-2.082-0.899h-3.263zM7.435 17.996l0.728-3.952h0.246c0.089 0 0.183-0.005 0.28-0.013 0.649-0.009 1.189 0.057 1.619 0.198 0.438 0.141 0.584 0.674 0.438 1.599-0.178 1.101-0.528 1.744-1.047 1.93-0.519 0.176-1.169 0.26-1.948 0.251h-0.17c-0.049 0-0.097-0.004-0.146-0.013z"></path>
<path fill="#fff" style="fill: var(--color1, #fff)" d="M24.437 12.524c0.957 0.009 1.651 0.308 2.082 0.899s0.572 1.396 0.426 2.418c-0.057 0.467-0.183 0.925-0.377 1.374-0.187 0.449-0.446 0.855-0.779 1.216-0.406 0.458-0.84 0.749-1.303 0.872s-0.942 0.185-1.437 0.185h-1.461l-0.463 2.511h-1.692l1.741-9.476h3.263zM22.596 14.044l-0.728 3.952c0.049 0.009 0.097 0.013 0.146 0.013h0.17c0.779 0.009 1.428-0.075 1.948-0.251 0.519-0.185 0.869-0.828 1.047-1.93 0.146-0.925 0-1.458-0.438-1.599-0.43-0.141-0.97-0.207-1.619-0.198-0.098 0.009-0.191 0.013-0.28 0.013h-0.246z"></path>
</symbol>
<symbol id="icon-node_js" viewBox="0 0 32 32">
<path fill="#8cc84b" style="fill: var(--color9, #8cc84b)" d="M17.172 2.299c-0.71-0.399-1.635-0.397-2.346 0-3.558 1.964-7.116 3.928-10.675 5.89-0.692 0.364-1.16 1.108-1.152 1.88v11.864c-0.005 0.787 0.486 1.538 1.196 1.897 1.022 0.544 2.015 1.143 3.056 1.651 1.202 0.591 2.706 0.721 3.923 0.105 0.988-0.511 1.426-1.646 1.425-2.69 0.008-3.915 0.001-7.831 0.003-11.746 0.023-0.174-0.107-0.36-0.297-0.356-0.455-0.007-0.91-0.004-1.365-0.001-0.172-0.016-0.339 0.126-0.327 0.299-0.006 3.89 0.001 7.782-0.004 11.672 0.010 0.538-0.354 1.055-0.872 1.237-1.198 0.42-4.617-1.8-4.617-1.8-0.125-0.058-0.205-0.194-0.193-0.329 0-3.914 0.001-7.829 0-11.742-0.017-0.158 0.080-0.3 0.225-0.364 3.546-1.952 7.091-3.909 10.637-5.862 0.123-0.082 0.295-0.082 0.418 0.001 3.546 1.953 7.091 3.908 10.638 5.86 0.145 0.064 0.238 0.209 0.224 0.366-0.001 3.914 0.001 7.828-0.001 11.742 0.011 0.139-0.061 0.273-0.19 0.334-3.513 1.941-7.066 3.82-10.548 5.818-0.152 0.087-0.324 0.186-0.494 0.090-0.916-0.506-1.82-1.033-2.732-1.544-0.099-0.062-0.226-0.088-0.329-0.019-0.409 0.216-0.794 0.39-1.264 0.576-0.66 0.261-0.554 0.368 0.041 0.715 1.067 0.604 2.136 1.206 3.203 1.81 0.702 0.438 1.646 0.47 2.371 0.064 3.559-1.961 7.116-3.925 10.675-5.886 0.709-0.361 1.202-1.109 1.197-1.897v-11.864c0.007-0.756-0.442-1.487-1.114-1.856-3.57-1.973-7.142-3.942-10.713-5.914z"></path>
<path fill="#8cc84b" style="fill: var(--color9, #8cc84b)" d="M22.542 11.206c-1.397-0.747-3.058-0.787-4.61-0.689-1.121 0.111-2.301 0.42-3.118 1.224-0.838 0.808-1.020 2.113-0.622 3.168 0.285 0.745 1.003 1.23 1.745 1.486 0.956 0.338 1.961 0.442 2.965 0.546 0.916 0.095 1.833 0.191 2.714 0.463 0.36 0.119 0.779 0.302 0.889 0.693 0.102 0.464-0.010 1.003-0.386 1.325-1.196 0.946-4.521 0.801-5.703 0.057-0.478-0.317-0.683-0.879-0.767-1.414-0.009-0.167-0.144-0.32-0.325-0.307-0.454-0.005-0.907-0.004-1.36-0.001-0.158-0.013-0.323 0.099-0.331 0.261-0.093 2.452 2.158 3.52 4.271 3.756 1.207 0.115 2.44 0.108 3.629-0.151 0.893-0.203 1.789-0.578 2.404-1.266 0.758-0.836 0.907-2.081 0.567-3.123-0.26-0.777-1.003-1.276-1.763-1.532-1.033-0.354-2.257-0.545-3.193-0.634-1.36-0.13-2.976-0.077-3.361-0.97-0.153-0.468-0.023-1.049 0.407-1.337 1.138-0.772 3.453-0.669 4.631-0.093 0.541 0.271 0.855 0.827 0.984 1.389 0.024 0.165 0.135 0.337 0.326 0.33 0.45 0.009 0.901 0.002 1.351 0.003 0.155 0.011 0.324-0.076 0.354-0.235-0.019-1.174-0.619-2.376-1.7-2.948z"></path>
</symbol>
<symbol id="icon-download" viewBox="0 0 33 32">
<path fill="none"  stroke-linejoin="round" stroke-linecap="round" stroke-miterlimit="4" stroke-width="2.6667" d="M28.667 20v5.333c0 0.707-0.281 1.385-0.781 1.886s-1.178 0.781-1.886 0.781h-18.667c-0.707 0-1.386-0.281-1.886-0.781s-0.781-1.178-0.781-1.886v-5.333M10 13.333l6.667 6.667M16.667 20l6.667-6.667M16.667 20v-16"></path>
</symbol>
<symbol id="icon-aeroport-paris" viewBox="0 0 32 32">
<path fill="#f8fafc" style="fill: var(--color1, #f8fafc)" d="M16 0c8.837 0 16 7.163 16 16s-7.163 16-16 16c-8.837 0-16-7.163-16-16s7.163-16 16-16z"></path>
<path fill="#001976" style="fill: var(--color2, #001976)" d="M16.174 6.4v17.075c-0.113-0.003-0.234-0.003-0.353 0v-17.075h0.353zM15.224 23.516c-0.104 0.009-0.24 0.027-0.35 0.044l-1.036-10.849 0.335-0.207 1.051 11.011zM14.319 23.672c-0.113 0.030-0.237 0.062-0.341 0.095l-1.244-6.326 0.312-0.227 1.273 6.459zM13.467 23.941c-0.089 0.038-0.234 0.097-0.326 0.142l-1.312-4.46 0.294-0.248 1.344 4.567zM12.681 24.313c-0.095 0.053-0.208 0.118-0.303 0.18l-1.309-3.377 0.264-0.28 1.347 3.478zM11.959 24.782c-0.077 0.059-0.184 0.142-0.276 0.218l-1.356-2.751 0.252-0.263 1.38 2.796zM11.33 25.34c-0.071 0.071-0.169 0.177-0.24 0.26l-1.49-2.365 0.243-0.254 1.487 2.359zM17.824 12.505l0.338 0.21-1.039 10.849c-0.11-0.018-0.246-0.038-0.347-0.047l1.048-11.011zM18.954 17.213l0.312 0.227-1.247 6.326c-0.101-0.030-0.228-0.065-0.338-0.092l1.273-6.462zM19.874 19.371l0.294 0.251-1.312 4.46c-0.092-0.044-0.237-0.103-0.326-0.142l1.344-4.57zM20.664 20.838l0.261 0.277-1.309 3.377c-0.095-0.062-0.205-0.127-0.303-0.177l1.35-3.477zM21.418 21.99l0.252 0.26-1.356 2.754c-0.092-0.080-0.199-0.162-0.276-0.221l1.38-2.793zM22.157 22.982l0.243 0.254-1.49 2.365c-0.071-0.083-0.169-0.189-0.24-0.26l1.487-2.359z"></path>
</symbol>
<symbol id="icon-capgemini" viewBox="0 0 32 32">
<path fill="#f8fafc" style="fill: var(--color10, #f8fafc)" d="M16 0c8.837 0 16 7.163 16 16s-7.163 16-16 16c-8.837 0-16-7.163-16-16s7.163-16 16-16z"></path>
<path fill="#12abdb" style="fill: var(--color12, #12abdb)" d="M22.526 22.164c2.765 0 4.899-2.253 4.927-4.924-0.192-1.166-0.601-3.324-3.628-3.324-3.31 0-4.409 4.627-7.104 7.61-0.219 1.697-1.823 3.215-3.829 3.469 0.492 0.514 1.584 0.791 2.888 0.791 2.388 0 5.278-0.719 6.79-2.211-2.017 0.026-3.315-1.27-3.443-3.067 0.984 1.192 2.096 1.657 3.399 1.657z"></path>
<path fill="#0070ad" style="fill: var(--color13, #0070ad)" d="M27.448 17.044c-0.060-3.105-1.538-5.725-3.815-7.816-1.729-1.579-3.784-2.779-5.938-3.682-0.173-0.073-0.348-0.144-0.523-0.213h-0.001c-2.652 3.177-11.837 5.549-11.837 12.211 0 2.604 1.645 5.040 4.060 6.017 1.4 0.529 2.801 0.558 4.202 0.087 1.246-0.409 2.271-1.182 3.123-2.124 2.698-2.982 3.795-7.608 7.105-7.608 3.028 0 3.436 2.156 3.63 3.323 0-0.003-0.001-0.085-0.005-0.196z"></path>
</symbol>
<symbol id="icon-school" viewBox="0 0 32 32">
<path stroke-linejoin="round" stroke-linecap="round" stroke-miterlimit="4" stroke-width="2.66" d="M18.668 29.334v-5.333c0-0.707-0.281-1.386-0.781-1.886s-1.178-0.781-1.886-0.781-1.386 0.281-1.886 0.781c-0.5 0.5-0.781 1.178-0.781 1.886v5.333M24.001 13.334l5.333 2.667v10.667c0 0.707-0.281 1.386-0.781 1.886s-1.178 0.781-1.886 0.781h-21.333c-0.707 0-1.386-0.281-1.886-0.781s-0.781-1.178-0.781-1.886v-10.667l5.333-2.667M24.001 6.667v22.667M5.335 8l10.667-5.333 10.667 5.333M8.001 6.667v22.667M18.668 12c0 1.473-1.194 2.667-2.667 2.667s-2.667-1.194-2.667-2.667c0-1.473 1.194-2.667 2.667-2.667s2.667 1.194 2.667 2.667z"></path>
</symbol>
<symbol id="icon-java" viewBox="0 0 32 32">
<path fill="#e76f00" style="fill: var(--color14, #e76f00)" d="M16.042 9.386c5.765-4.475 2.806-7.386 2.806-7.386 0.44 4.626-4.763 5.719-6.158 8.898-0.952 2.169 0.652 4.069 3.35 6.463-0.239-0.53-0.606-1.045-0.979-1.567-1.27-1.779-2.594-3.632 0.981-6.408z"></path>
<path fill="#e76f00" style="fill: var(--color14, #e76f00)" d="M16.962 18.342c0 0 1.734-1.399 0.361-2.954-4.656-5.275 5.092-7.669 5.092-7.669-5.951 2.867-5.063 4.569-3.567 6.636 1.602 2.217-1.886 3.987-1.886 3.987z"></path>
<path fill="#5382a1" style="fill: var(--color15, #5382a1)" d="M22.070 22.515c5.342-2.73 2.872-5.353 1.148-5-0.423 0.087-0.611 0.161-0.611 0.161s0.157-0.242 0.457-0.346c3.411-1.179 6.034 3.478-1.101 5.322 0 0 0.083-0.073 0.107-0.138z"></path>
<path fill="#5382a1" style="fill: var(--color15, #5382a1)" d="M10.954 19.060c-3.342-0.439 1.833-1.648 1.833-1.648s-2.010-0.133-4.481 1.042c-2.923 1.39 7.229 2.022 12.485 0.663 0.546-0.367 1.301-0.685 1.301-0.685s-2.15 0.378-4.292 0.555c-2.621 0.216-5.434 0.258-6.845 0.072z"></path>
<path fill="#5382a1" style="fill: var(--color15, #5382a1)" d="M12.226 21.666c-1.864-0.19-0.643-1.078-0.643-1.078-4.823 1.574 2.683 3.359 9.423 1.421-0.716-0.248-1.172-0.703-1.172-0.703-3.294 0.624-5.197 0.604-7.607 0.359z"></path>
<path fill="#5382a1" style="fill: var(--color15, #5382a1)" d="M13.038 24.487c-1.862-0.211-0.774-0.833-0.774-0.833-4.378 1.203 2.663 3.688 8.237 1.339-0.913-0.349-1.567-0.752-1.567-0.752-2.486 0.463-3.64 0.499-5.896 0.246z"></path>
<path fill="#5382a1" style="fill: var(--color15, #5382a1)" d="M24.696 25.921c0 0 0.805 0.652-0.887 1.157-3.217 0.958-13.391 1.248-16.218 0.038-1.016-0.435 0.889-1.038 1.489-1.164 0.625-0.133 0.982-0.108 0.982-0.108-1.13-0.783-7.303 1.537-3.136 2.201 11.365 1.812 20.717-0.816 17.769-2.124z"></path>
<path fill="#5382a1" style="fill: var(--color15, #5382a1)" d="M26.5 27.347c-0.186 2.386-8.061 2.888-13.189 2.565-3.345-0.211-4.016-0.738-4.025-0.746 3.202 0.519 8.599 0.614 12.976-0.196 3.879-0.718 4.238-1.623 4.238-1.623z"></path>
</symbol>
<symbol id="icon-angular" viewBox="0 0 32 32">
<path fill="#dd0031" style="fill: var(--color16, #dd0031)" d="M16 3.75l-11.375 4.375 1.75 14.875 9.625 5.25 9.625-5.25 1.75-14.875-11.375-4.375z"></path>
<path fill="#c3002f" style="fill: var(--color17, #c3002f)" d="M16 3.75v24.5l9.625-5.25 1.75-14.875-11.375-4.375z"></path>
<path fill="#fff" style="fill: var(--color1, #fff)" d="M16.002 6.457l-7.111 15.986h2.651l1.43-3.577h6.036l1.429 3.577h2.651l-7.086-15.986zM18.079 16.661h-4.154l2.077-5.010 2.077 5.010z"></path>
</symbol>
<symbol id="icon-phone" viewBox="0 0 32 32">
<path fill="none" stroke="#cbd5e1" style="stroke: var(--color18, #cbd5e1)" stroke-linejoin="round" stroke-linecap="round" stroke-miterlimit="4" stroke-width="3" d="M29.334 22.56v4c0.002 0.371-0.074 0.739-0.223 1.079s-0.367 0.646-0.641 0.897c-0.274 0.251-0.597 0.442-0.948 0.561s-0.725 0.163-1.094 0.13c-4.103-0.446-8.044-1.848-11.507-4.093-3.222-2.047-5.953-4.778-8-8-2.253-3.478-3.656-7.439-4.093-11.56-0.033-0.369 0.010-0.74 0.129-1.091s0.308-0.673 0.558-0.947c0.25-0.273 0.553-0.492 0.892-0.641s0.705-0.227 1.075-0.227h4c0.647-0.006 1.274 0.223 1.765 0.645s0.811 1.008 0.902 1.649c0.169 1.28 0.482 2.537 0.933 3.747 0.179 0.477 0.218 0.996 0.112 1.495s-0.353 0.956-0.712 1.319l-1.693 1.693c1.898 3.338 4.662 6.102 8 8l1.693-1.693c0.362-0.358 0.82-0.606 1.319-0.712s1.017-0.068 1.494 0.112c1.21 0.451 2.467 0.764 3.747 0.933 0.648 0.091 1.239 0.418 1.662 0.917s0.648 1.136 0.631 1.79z"></path>
</symbol>
<symbol id="icon-location" viewBox="0 0 32 32">
<path fill="none" stroke="#cbd5e1" style="stroke: var(--color18, #cbd5e1)" stroke-linejoin="round" stroke-linecap="round" stroke-miterlimit="4" stroke-width="3" d="M26.665 13.334c0 8-10.667 16-10.667 16s-10.667-8-10.667-16c0-2.829 1.124-5.542 3.124-7.542s4.713-3.124 7.542-3.124c2.829 0 5.542 1.124 7.543 3.124s3.124 4.714 3.124 7.542z"></path>
<path fill="none" stroke="#cbd5e1" style="stroke: var(--color18, #cbd5e1)" stroke-linejoin="round" stroke-linecap="round" stroke-miterlimit="4" stroke-width="3" d="M15.999 17.334c2.209 0 4-1.791 4-4s-1.791-4-4-4c-2.209 0-4 1.791-4 4s1.791 4 4 4z"></path>
</symbol>
<symbol id="icon-check" viewBox="0 0 32 32">
<path fill="none"  stroke-linejoin="round" stroke-linecap="round" stroke-miterlimit="4" stroke-width="2.6667" d="M26.667 8l-14.667 14.667-6.667-6.667"></path>
</symbol>
<symbol id="icon-laptop" viewBox="0 0 33 32">
<path fill="none"  stroke-linejoin="round" stroke-linecap="round" stroke-miterlimit="4" stroke-width="2.6667" d="M27 21.333v-12c0-0.707-0.281-1.386-0.781-1.886s-1.178-0.781-1.886-0.781h-16c-0.707 0-1.386 0.281-1.886 0.781s-0.781 1.178-0.781 1.886v12M27 21.333h-21.333M27 21.333l1.707 3.4c0.103 0.204 0.151 0.431 0.141 0.659s-0.079 0.45-0.199 0.644c-0.12 0.194-0.289 0.354-0.489 0.464s-0.425 0.167-0.653 0.166h-22.347c-0.228 0.002-0.453-0.055-0.653-0.166s-0.368-0.27-0.489-0.464c-0.12-0.194-0.189-0.416-0.199-0.644s0.039-0.455 0.141-0.659l1.707-3.4"></path>
</symbol>
<symbol id="icon-person" viewBox="0 0 32 32">
<path stroke-linejoin="round" stroke-linecap="round" stroke-miterlimit="4" stroke-width="3" d="M25.333 28v-2.667c0-1.415-0.562-2.771-1.562-3.771s-2.357-1.562-3.771-1.562h-8c-1.414 0-2.771 0.562-3.771 1.562s-1.562 2.357-1.562 3.771v2.667M21.333 9.333c0 2.946-2.388 5.333-5.333 5.333s-5.333-2.388-5.333-5.333c0-2.946 2.388-5.333 5.333-5.333s5.333 2.388 5.333 5.333z"></path>
</symbol>
<symbol id="icon-next-js" viewBox="0 0 32 32">
<path d="M14.953 0.025c-0.069 0.006-0.287 0.028-0.484 0.044-4.54 0.409-8.793 2.859-11.486 6.624-1.5 2.094-2.459 4.468-2.822 6.984-0.128 0.878-0.144 1.137-0.144 2.328s0.016 1.45 0.144 2.328c0.869 6.003 5.14 11.046 10.933 12.914 1.037 0.334 2.131 0.562 3.375 0.7 0.484 0.053 2.578 0.053 3.062 0 2.147-0.237 3.965-0.769 5.759-1.684 0.275-0.141 0.328-0.178 0.291-0.209-0.025-0.019-1.197-1.59-2.603-3.49l-2.556-3.453-3.203-4.74c-1.762-2.606-3.212-4.737-3.225-4.737-0.012-0.003-0.025 2.103-0.031 4.675-0.009 4.503-0.012 4.684-0.069 4.79-0.081 0.153-0.144 0.216-0.275 0.284-0.1 0.050-0.188 0.059-0.659 0.059h-0.541l-0.144-0.091c-0.094-0.059-0.162-0.137-0.209-0.228l-0.066-0.141 0.006-6.265 0.009-6.268 0.097-0.122c0.050-0.066 0.156-0.15 0.231-0.191 0.128-0.063 0.178-0.069 0.719-0.069 0.637 0 0.744 0.025 0.909 0.206 0.047 0.050 1.781 2.662 3.856 5.809s4.912 7.443 6.306 9.552l2.531 3.834 0.128-0.084c1.134-0.737 2.334-1.787 3.284-2.881 2.022-2.322 3.325-5.153 3.762-8.171 0.128-0.878 0.144-1.137 0.144-2.328s-0.016-1.45-0.144-2.328c-0.869-6.003-5.14-11.046-10.933-12.914-1.022-0.331-2.109-0.559-3.328-0.697-0.3-0.031-2.365-0.066-2.625-0.041zM21.496 9.693c0.15 0.075 0.272 0.219 0.316 0.369 0.025 0.081 0.031 1.819 0.025 5.734l-0.009 5.618-0.991-1.519-0.994-1.519v-4.084c0-2.64 0.012-4.125 0.031-4.196 0.050-0.175 0.159-0.312 0.309-0.394 0.128-0.066 0.175-0.072 0.666-0.072 0.462 0 0.544 0.006 0.647 0.063z"></path>
<path d="M24.509 29.537c-0.109 0.069-0.144 0.116-0.047 0.063 0.069-0.041 0.181-0.125 0.162-0.128-0.009 0-0.062 0.031-0.116 0.066zM24.293 29.678c-0.056 0.044-0.056 0.047 0.012 0.012 0.038-0.019 0.069-0.041 0.069-0.047 0-0.025-0.016-0.019-0.081 0.034zM24.137 29.772c-0.056 0.044-0.056 0.047 0.012 0.012 0.037-0.019 0.069-0.041 0.069-0.047 0-0.025-0.016-0.019-0.081 0.034zM23.98 29.866c-0.056 0.044-0.056 0.047 0.012 0.012 0.038-0.019 0.069-0.041 0.069-0.047 0-0.025-0.016-0.019-0.081 0.034zM23.743 29.991c-0.119 0.063-0.112 0.088 0.006 0.028 0.053-0.028 0.094-0.056 0.094-0.063 0-0.022-0.003-0.019-0.1 0.034z"></path>
</symbol>
<symbol id="icon-ts" viewBox="0 0 32 32">
<path fill="#007acc" style="fill: var(--color19, #007acc)" d="M2 2h28v28h-28v-28z"></path>
<path fill="#fff" style="fill: var(--color1, #fff)" d="M9 16.001v1.141h3.64v10.36h2.583v-10.36h3.64v-1.12c0-0.63 0-1.141-0.028-1.155 0-0.021-2.219-0.028-4.914-0.028l-4.9 0.021v1.148l-0.021-0.007zM25.359 14.831c0.714 0.168 1.26 0.49 1.75 1.001 0.259 0.28 0.644 0.77 0.672 0.896 0 0.042-1.211 0.861-1.946 1.316-0.028 0.021-0.14-0.098-0.252-0.28-0.364-0.518-0.735-0.742-1.316-0.784-0.84-0.056-1.4 0.385-1.4 1.12 0 0.224 0.042 0.35 0.126 0.532 0.189 0.385 0.539 0.616 1.624 1.092 2.002 0.861 2.87 1.428 3.395 2.24 0.595 0.91 0.728 2.338 0.329 3.409-0.448 1.169-1.54 1.96-3.101 2.219-0.49 0.084-1.61 0.070-2.135-0.021-1.12-0.21-2.191-0.77-2.849-1.491-0.259-0.28-0.756-1.029-0.728-1.078l0.266-0.168 1.050-0.609 0.791-0.462 0.182 0.245c0.231 0.364 0.749 0.854 1.050 1.022 0.91 0.469 2.128 0.406 2.73-0.14 0.259-0.238 0.371-0.49 0.371-0.84 0-0.322-0.049-0.469-0.21-0.714-0.224-0.308-0.672-0.56-1.932-1.12-1.449-0.616-2.065-1.008-2.639-1.61-0.329-0.364-0.63-0.931-0.77-1.4-0.105-0.406-0.14-1.4-0.042-1.799 0.301-1.4 1.358-2.38 2.87-2.66 0.49-0.098 1.645-0.056 2.128 0.070l-0.014 0.014z"></path>
</symbol>
<symbol id="icon-css_3" viewBox="0 0 32 32">
<path fill="#1172b8" style="fill: var(--color20, #1172b8)" d="M6 28l-2-25h24l-2 25-10 3-10-3z"></path>
<path fill="#3ad" style="fill: var(--color21, #3ad)" d="M26 5h-10v24.5l8-2.5 2-22z"></path>
<path fill="#fff" style="fill: var(--color1, #fff)" d="M19.5 17.5h-10l-0.5-3.5 8-2.5h-8l-0.5-3h15.5l-0.5 3.5-6.5 2.5h6l-1 9.5-6 2-6-2-0.5-5h3l0.5 2.5 3 1 3-1 0.5-4z"></path>
</symbol>
<symbol id="icon-html_5" viewBox="0 0 32 32">
<path fill="#e44d26" style="fill: var(--color22, #e44d26)" d="M6 28l-2-25h24l-2 25-10 3-10-3z"></path>
<path fill="#f16529" style="fill: var(--color23, #f16529)" d="M26 5h-10v24.5l8-2.5 2-22z"></path>
<path fill="#fff" style="fill: var(--color1, #fff)" d="M9.5 17.5l-1-9.5h15.5l-0.5 3h-12l0.5 3.5h11l-1 9.5-6 2-6-2-0.5-5h3l0.5 2.5 3 1 3-1 0.5-4h-10z"></path>
</symbol>
<symbol id="icon-react" viewBox="0 0 32 32">
<path fill="#53c1de" style="fill: var(--color24, #53c1de)" d="M18.679 15.976c0-1.434-1.199-2.597-2.679-2.597s-2.679 1.163-2.679 2.597c0 1.435 1.199 2.597 2.679 2.597s2.679-1.163 2.679-2.598z"></path>
<path fill="#53c1de" style="fill: var(--color24, #53c1de)" d="M24.7 11.154c0.566-2.229 1.277-6.362-1.23-7.764-2.495-1.395-5.742 1.278-7.456 2.883-1.71-1.589-5.048-4.251-7.552-2.845-2.494 1.4-1.725 5.465-1.147 7.708-2.327 0.641-6.315 2.021-6.315 4.84 0 2.812 3.984 4.313 6.297 4.953-0.58 2.255-1.311 6.262 1.186 7.659 2.514 1.406 5.842-1.193 7.572-2.815 1.726 1.614 4.941 4.23 7.437 2.829 2.503-1.405 1.851-5.483 1.273-7.739 2.242-0.641 6.235-2.11 6.235-4.886 0-2.792-4.010-4.184-6.3-4.822zM24.416 19.667c-0.38-1.165-0.892-2.405-1.519-3.685 0.598-1.25 1.091-2.473 1.46-3.631 1.679 0.472 5.361 1.55 5.361 3.625 0 2.094-3.534 3.183-5.302 3.691zM22.85 27.526c-1.862 1.045-4.628-1.456-5.902-2.645 0.845-0.896 1.69-1.939 2.515-3.096 1.45-0.125 2.821-0.329 4.063-0.607 0.407 1.596 1.195 5.298-0.676 6.348zM9.124 27.511c-1.862-1.041-1.011-4.616-0.584-6.278 1.229 0.263 2.589 0.453 4.043 0.567 0.83 1.132 1.699 2.173 2.575 3.085-1.082 1.015-4.163 3.671-6.034 2.625zM2.281 15.976c0-2.102 3.661-3.173 5.378-3.643 0.375 1.184 0.868 2.422 1.462 3.674-0.602 1.27-1.101 2.528-1.48 3.726-1.637-0.454-5.359-1.653-5.359-3.756zM9.104 4.504c1.87-1.049 4.771 1.506 6.012 2.657-0.871 0.907-1.733 1.94-2.556 3.066-1.411 0.127-2.762 0.33-4.003 0.603-0.466-1.809-1.321-5.278 0.547-6.326zM20.379 11.577c0.957 0.117 1.874 0.273 2.736 0.464-0.259 0.803-0.581 1.643-0.96 2.505-0.55-1.012-1.141-2.004-1.775-2.968zM16.014 8.048c0.591 0.621 1.183 1.314 1.765 2.066-1.181-0.054-2.364-0.054-3.546-0.001 0.583-0.745 1.18-1.438 1.78-2.066zM9.857 14.544c-0.373-0.858-0.693-1.702-0.953-2.517 0.856-0.186 1.769-0.338 2.72-0.453-0.636 0.962-1.226 1.954-1.767 2.97zM11.65 20.466c-0.982-0.106-1.909-0.25-2.765-0.431 0.265-0.829 0.591-1.691 0.972-2.568 0.548 1.026 1.147 2.027 1.792 2.999zM16.050 23.991c-0.607-0.635-1.213-1.338-1.805-2.094 1.188 0.045 2.378 0.045 3.566-0.006-0.584 0.77-1.174 1.474-1.761 2.1zM22.167 17.422c0.401 0.886 0.739 1.744 1.007 2.559-0.87 0.192-1.809 0.347-2.799 0.462 0.639-0.983 1.239-1.99 1.791-3.021zM18.747 20.594c-1.817 0.126-3.646 0.125-5.463 0.010-1.033-1.463-1.952-3.001-2.746-4.599 0.79-1.594 1.703-3.129 2.731-4.59 1.819-0.133 3.649-0.134 5.468 0.001 1.019 1.461 1.931 2.992 2.739 4.572-0.799 1.593-1.716 3.132-2.728 4.606zM22.83 4.467c1.87 1.046 1.038 4.761 0.629 6.376-1.245-0.278-2.596-0.486-4.011-0.614-0.824-1.138-1.678-2.173-2.536-3.069 1.257-1.175 4.066-3.729 5.918-2.693z"></path>
</symbol>
<symbol id="icon-js" viewBox="0 0 32 32">
<path fill="#ffca28" style="fill: var(--color25, #ffca28)" d="M2 2h28v28h-28v-28z"></path>
<path fill="#3e3e3e" style="fill: var(--color26, #3e3e3e)" d="M19 25.287l2.062-1.364c0.161 0.507 1.185 1.713 2.477 1.713s1.892-0.706 1.892-1.174c0-1.275-1.32-1.725-1.953-1.941-0.103-0.035-0.188-0.064-0.247-0.090-0.030-0.013-0.075-0.030-0.133-0.052-0.705-0.269-3.306-1.263-3.306-4.143 0-3.172 3.062-3.537 3.754-3.537 0.453 0 2.631 0.055 3.715 2.094l-2 1.396c-0.439-0.888-1.167-1.182-1.615-1.182-1.108 0-1.338 0.812-1.338 1.182 0 1.037 1.203 1.502 2.22 1.895 0.266 0.103 0.519 0.2 0.734 0.302 1.108 0.523 2.738 1.38 2.738 4.076 0 1.351-1.133 3.537-3.985 3.537-3.831 0-4.846-2.3-5.015-2.712z"></path>
<path fill="#3e3e3e" style="fill: var(--color26, #3e3e3e)" d="M9 25.558l2.149-1.363c0.168 0.507 0.823 1.443 1.772 1.443s1.435-0.975 1.435-1.443v-9.195h2.643v9.195c0.043 1.268-0.661 3.805-3.765 3.805-2.854 0-4.041-1.696-4.233-2.441z"></path>
</symbol>
<symbol id="icon-chevron-left" viewBox="0 0 32 32">
<path stroke-linejoin="round" stroke-linecap="round" stroke-miterlimit="4" stroke-width="2.6667" d="M20 24l-8-8 8-8"></path>
</symbol>
<symbol id="icon-fullscreen" viewBox="0 0 32 32">
<path fill="none"  stroke-linejoin="round" stroke-linecap="round" stroke-miterlimit="4" stroke-width="2.6667" d="M4 9.333v-2.667c0-0.707 0.281-1.386 0.781-1.886s1.178-0.781 1.886-0.781h2.667M22.667 4h2.667c0.707 0 1.385 0.281 1.886 0.781s0.781 1.178 0.781 1.886v2.667M28 22.667v2.667c0 0.707-0.281 1.385-0.781 1.886s-1.178 0.781-1.886 0.781h-2.667M9.333 28h-2.667c-0.707 0-1.386-0.281-1.886-0.781s-0.781-1.178-0.781-1.886v-2.667M10.667 10.667h10.667c0.736 0 1.333 0.597 1.333 1.333v8c0 0.736-0.597 1.333-1.333 1.333h-10.667c-0.736 0-1.333-0.597-1.333-1.333v-8c0-0.736 0.597-1.333 1.333-1.333z"></path>
</symbol>
<symbol id="icon-link" viewBox="0 0 32 32">
<path fill="none"  stroke-linejoin="round" stroke-linecap="round" stroke-miterlimit="4" stroke-width="2.6667" d="M13.333 17.333c0.573 0.765 1.303 1.399 2.142 1.857s1.767 0.731 2.72 0.799c0.953 0.068 1.911-0.069 2.806-0.403s1.709-0.857 2.385-1.533l4-4c1.214-1.257 1.886-2.941 1.871-4.689s-0.716-3.42-1.952-4.656c-1.236-1.236-2.908-1.937-4.656-1.952s-3.432 0.657-4.689 1.871l-2.293 2.28M18.667 14.667c-0.573-0.765-1.303-1.399-2.142-1.857s-1.767-0.731-2.72-0.799c-0.954-0.068-1.911 0.069-2.806 0.403s-1.709 0.857-2.385 1.533l-4 4c-1.214 1.257-1.886 2.941-1.871 4.689s0.716 3.42 1.952 4.656c1.236 1.236 2.908 1.937 4.656 1.952s3.432-0.657 4.689-1.871l2.28-2.28"></path>
</symbol>
<symbol id="icon-time" viewBox="0 0 32 32">
<path stroke-linejoin="round" stroke-linecap="round" stroke-miterlimit="4" stroke-width="3" d="M16 8v8l5.333 2.667M29.333 16c0 7.364-5.97 13.333-13.333 13.333s-13.333-5.97-13.333-13.333c0-7.364 5.97-13.333 13.333-13.333s13.333 5.97 13.333 13.333z"></path>
</symbol>
<symbol id="icon-trash" viewBox="0 0 32 32">
<path stroke-linejoin="round" stroke-linecap="round" stroke-miterlimit="4" stroke-width="2.7826" d="M4.522 8.348h22.957M24.928 8.348v17.855c0 1.275-1.275 2.551-2.551 2.551h-12.754c-1.275 0-2.551-1.275-2.551-2.551v-17.855M10.899 8.348v-2.551c0-1.275 1.275-2.551 2.551-2.551h5.101c1.275 0 2.551 1.275 2.551 2.551v2.551M13.449 14.725v7.652M18.551 14.725v7.652"></path>
</symbol>
<symbol id="icon-cross" viewBox="0 0 32 32">
<path stroke-linejoin="round" stroke-linecap="round" stroke-miterlimit="4" stroke-width="3.1429" d="M24 8l-16 16M8 8l16 16"></path>
</symbol>
<symbol id="icon-menu" viewBox="0 0 32 32">
<path stroke-linejoin="round" stroke-linecap="round" stroke-miterlimit="4" stroke-width="3.2727" d="M5.333 16h21.333M5.333 8h21.333M5.333 24h21.333"></path>
</symbol>
<symbol id="icon-en" viewBox="0 0 32 32">
<path fill="#fff" style="fill: var(--color1, #fff)" d="M16 32c8.837 0 16-7.163 16-16s-7.163-16-16-16c-8.837 0-16 7.163-16 16s7.163 16 16 16z"></path>
<path fill="#d80027" style="fill: var(--color27, #d80027)" d="M31.865 13.913h-13.777v-13.778c-0.683-0.089-1.38-0.135-2.087-0.135s-1.404 0.046-2.087 0.135v13.778h-13.778c-0.089 0.683-0.135 1.38-0.135 2.087s0.046 1.404 0.135 2.087h13.778v13.778c0.683 0.089 1.38 0.135 2.087 0.135s1.404-0.046 2.087-0.135v-13.777h13.778c0.089-0.683 0.135-1.38 0.135-2.087s-0.047-1.404-0.135-2.087z"></path>
</symbol>
<symbol id="icon-fr" viewBox="0 0 32 32">
<path fill="#fff" style="fill: var(--color1, #fff)" d="M16 32c8.837 0 16-7.163 16-16s-7.163-16-16-16c-8.837 0-16 7.163-16 16s7.163 16 16 16z"></path>
<path fill="#d80027" style="fill: var(--color27, #d80027)" d="M32 16c0-6.879-4.342-12.744-10.435-15.005v30.010c6.093-2.261 10.435-8.125 10.435-15.005z"></path>
<path fill="#0052b4" style="fill: var(--color28, #0052b4)" d="M0 16c0 6.879 4.342 12.744 10.435 15.005v-30.010c-6.093 2.261-10.435 8.125-10.435 15.005z"></path>
</symbol>
<symbol id="icon-chevron-down" viewBox="0 0 32 32">
<path stroke-linejoin="round" stroke-linecap="round" stroke-miterlimit="4" stroke-width="2.9091" d="M8 12l8 8 8-8"></path>
</symbol>
<symbol id="icon-plus" viewBox="0 0 32 32">
<path stroke-linejoin="round" stroke-linecap="round" stroke-miterlimit="4" stroke-width="2.4" d="M8.533 16h14.933M16 8.533v14.933"></path>
</symbol>
<symbol id="icon-sun" viewBox="0 0 32 32">
<path fill="none"  stroke-linejoin="round" stroke-linecap="round" stroke-miterlimit="4" stroke-width="3.2727" d="M16 2.667v2.667M16 26.667v2.667M6.573 6.574l1.88 1.88M23.546 23.547l1.88 1.88M2.667 16h2.667M26.667 16h2.667M8.453 23.547l-1.88 1.88M25.426 6.574l-1.88 1.88M21.333 16c0 2.945-2.388 5.333-5.333 5.333s-5.333-2.388-5.333-5.333c0-2.946 2.388-5.333 5.333-5.333s5.333 2.388 5.333 5.333z"></path>
</symbol>
<symbol id="icon-moon-star" viewBox="0 0 32 32">
<path stroke-linejoin="round" stroke-linecap="round" stroke-miterlimit="4" stroke-width="2.6667" d="M25.333 4v5.333M28 6.667h-5.333M16 4c-1.591 1.591-2.485 3.75-2.485 6s0.894 4.409 2.485 6c1.591 1.591 3.75 2.485 6 2.485s4.409-0.894 6-2.485c0 2.373-0.704 4.693-2.022 6.667s-3.193 3.511-5.385 4.42c-2.193 0.908-4.606 1.146-6.933 0.683s-4.466-1.606-6.144-3.284c-1.678-1.678-2.821-3.817-3.284-6.144s-0.225-4.741 0.683-6.933c0.908-2.193 2.446-4.067 4.42-5.385s4.293-2.022 6.667-2.022z"></path>
</symbol>
<symbol id="icon-arrow-right" viewBox="0 0 32 32">
<path stroke-linejoin="round" stroke-linecap="round" stroke-miterlimit="4" stroke-width="2.6667" d="M6.667 16h18.667M25.333 16l-9.333-9.333M25.333 16l-9.333 9.333"></path>
</symbol>
<symbol id="icon-linkedin" viewBox="0 0 32 32">
<path fill="#1275b1" style="fill: var(--color29, #1275b1)" d="M16 2c7.732 0 14 6.268 14 14s-6.268 14-14 14c-7.732 0-14-6.268-14-14s6.268-14 14-14z"></path>
<path fill="#fff" style="fill: var(--color1, #fff)" d="M12.619 9.692c0 0.935-0.81 1.692-1.809 1.692s-1.809-0.758-1.809-1.692c0-0.935 0.81-1.692 1.809-1.692s1.809 0.758 1.809 1.692z"></path>
<path fill="#fff" style="fill: var(--color1, #fff)" d="M9.247 12.628h3.093v9.372h-3.093v-9.372z"></path>
<path fill="#fff" style="fill: var(--color1, #fff)" d="M17.32 12.628h-3.093v9.372h3.093c0 0 0-2.95 0-4.795 0-1.107 0.378-2.219 1.887-2.219 1.705 0 1.695 1.449 1.687 2.571-0.010 1.467 0.014 2.965 0.014 4.443h3.093v-4.946c-0.026-3.158-0.849-4.614-3.557-4.614-1.608 0-2.605 0.73-3.124 1.39v-1.202z"></path>
</symbol>
<symbol id="icon-github" viewBox="0 0 32 32">
<path stroke-linejoin="round" stroke-linecap="round" stroke-miterlimit="4" stroke-width="2.6667" d="M20 29.333v-5.333c0.186-1.67-0.293-3.347-1.333-4.667 4 0 8-2.667 8-7.333 0.107-1.667-0.36-3.307-1.333-4.667 0.373-1.533 0.373-3.133 0-4.667 0 0-1.333 0-4 2-3.52-0.667-7.147-0.667-10.667 0-2.667-2-4-2-4-2-0.4 1.533-0.4 3.133 0 4.667-0.971 1.355-1.442 3.004-1.333 4.667 0 4.667 4 7.333 8 7.333-0.52 0.653-0.907 1.4-1.133 2.2s-0.293 1.64-0.2 2.467M12 24v5.333M12 24c-6.013 2.667-6.667-2.667-9.333-2.667"></path>
</symbol>
</defs>
</svg>
