<svg aria-hidden="true" style="position: absolute; width: 0; height: 0; overflow: hidden;" version="1.1" xmlns="http://www.w3.org/2000/svg" xmlns:xlink="http://www.w3.org/1999/xlink">
<defs>
<symbol id="icon-laptop" viewBox="0 0 33 32">
<path fill="none" stroke-linejoin="round" stroke-linecap="round" stroke-miterlimit="4" stroke-width="2.6667" d="M27 21.333v-12c0-0.707-0.281-1.386-0.781-1.886s-1.178-0.781-1.886-0.781h-16c-0.707 0-1.386 0.281-1.886 0.781s-0.781 1.178-0.781 1.886v12M27 21.333h-21.333M27 21.333l1.707 3.4c0.103 0.204 0.151 0.431 0.141 0.659s-0.079 0.45-0.199 0.644c-0.12 0.194-0.289 0.354-0.489 0.464s-0.425 0.167-0.653 0.166h-22.347c-0.228 0.002-0.453-0.055-0.653-0.166s-0.368-0.27-0.489-0.464c-0.12-0.194-0.189-0.416-0.199-0.644s0.039-0.455 0.141-0.659l1.707-3.4"></path>
</symbol>
<symbol id="icon-person" viewBox="0 0 32 32">
<path fill="none" stroke-linejoin="round" stroke-linecap="round" stroke-miterlimit="4" stroke-width="3" d="M25.333 28v-2.667c0-1.415-0.562-2.771-1.562-3.771s-2.357-1.562-3.771-1.562h-8c-1.414 0-2.771 0.562-3.771 1.562s-1.562 2.357-1.562 3.771v2.667M21.333 9.333c0 2.946-2.388 5.333-5.333 5.333s-5.333-2.388-5.333-5.333c0-2.946 2.388-5.333 5.333-5.333s5.333 2.388 5.333 5.333z"></path>
</symbol>
<symbol id="icon-next-js" viewBox="0 0 32 32">
<path d="M14.953 0.025c-0.069 0.006-0.287 0.028-0.484 0.044-4.54 0.409-8.793 2.859-11.486 6.624-1.5 2.094-2.459 4.468-2.822 6.984-0.128 0.878-0.144 1.137-0.144 2.328s0.016 1.45 0.144 2.328c0.869 6.003 5.14 11.046 10.933 12.914 1.037 0.334 2.131 0.562 3.375 0.7 0.484 0.053 2.578 0.053 3.062 0 2.147-0.237 3.965-0.769 5.759-1.684 0.275-0.141 0.328-0.178 0.291-0.209-0.025-0.019-1.197-1.59-2.603-3.49l-2.556-3.453-3.203-4.74c-1.762-2.606-3.212-4.737-3.225-4.737-0.012-0.003-0.025 2.103-0.031 4.675-0.009 4.503-0.012 4.684-0.069 4.79-0.081 0.153-0.144 0.216-0.275 0.284-0.1 0.050-0.188 0.059-0.659 0.059h-0.541l-0.144-0.091c-0.094-0.059-0.162-0.137-0.209-0.228l-0.066-0.141 0.006-6.265 0.009-6.268 0.097-0.122c0.050-0.066 0.156-0.15 0.231-0.191 0.128-0.063 0.178-0.069 0.719-0.069 0.637 0 0.744 0.025 0.909 0.206 0.047 0.050 1.781 2.662 3.856 5.809s4.912 7.443 6.306 9.552l2.531 3.834 0.128-0.084c1.134-0.737 2.334-1.787 3.284-2.881 2.022-2.322 3.325-5.153 3.762-8.171 0.128-0.878 0.144-1.137 0.144-2.328s-0.016-1.45-0.144-2.328c-0.869-6.003-5.14-11.046-10.933-12.914-1.022-0.331-2.109-0.559-3.328-0.697-0.3-0.031-2.365-0.066-2.625-0.041zM21.496 9.693c0.15 0.075 0.272 0.219 0.316 0.369 0.025 0.081 0.031 1.819 0.025 5.734l-0.009 5.618-0.991-1.519-0.994-1.519v-4.084c0-2.64 0.012-4.125 0.031-4.196 0.050-0.175 0.159-0.312 0.309-0.394 0.128-0.066 0.175-0.072 0.666-0.072 0.462 0 0.544 0.006 0.647 0.063z"></path>
<path d="M24.509 29.537c-0.109 0.069-0.144 0.116-0.047 0.063 0.069-0.041 0.181-0.125 0.162-0.128-0.009 0-0.062 0.031-0.116 0.066zM24.293 29.678c-0.056 0.044-0.056 0.047 0.012 0.012 0.038-0.019 0.069-0.041 0.069-0.047 0-0.025-0.016-0.019-0.081 0.034zM24.137 29.772c-0.056 0.044-0.056 0.047 0.012 0.012 0.037-0.019 0.069-0.041 0.069-0.047 0-0.025-0.016-0.019-0.081 0.034zM23.98 29.866c-0.056 0.044-0.056 0.047 0.012 0.012 0.038-0.019 0.069-0.041 0.069-0.047 0-0.025-0.016-0.019-0.081 0.034zM23.743 29.991c-0.119 0.063-0.112 0.088 0.006 0.028 0.053-0.028 0.094-0.056 0.094-0.063 0-0.022-0.003-0.019-0.1 0.034z"></path>
</symbol>
<symbol id="icon-ts" viewBox="0 0 32 32">
<path fill="#007acc" style="fill: var(--color2, #007acc)" d="M2 2h28v28h-28v-28z"></path>
<path fill="#fff" style="fill: var(--color1, #fff)" d="M9 16.001v1.141h3.64v10.36h2.583v-10.36h3.64v-1.12c0-0.63 0-1.141-0.028-1.155 0-0.021-2.219-0.028-4.914-0.028l-4.9 0.021v1.148l-0.021-0.007zM25.359 14.831c0.714 0.168 1.26 0.49 1.75 1.001 0.259 0.28 0.644 0.77 0.672 0.896 0 0.042-1.211 0.861-1.946 1.316-0.028 0.021-0.14-0.098-0.252-0.28-0.364-0.518-0.735-0.742-1.316-0.784-0.84-0.056-1.4 0.385-1.4 1.12 0 0.224 0.042 0.35 0.126 0.532 0.189 0.385 0.539 0.616 1.624 1.092 2.002 0.861 2.87 1.428 3.395 2.24 0.595 0.91 0.728 2.338 0.329 3.409-0.448 1.169-1.54 1.96-3.101 2.219-0.49 0.084-1.61 0.070-2.135-0.021-1.12-0.21-2.191-0.77-2.849-1.491-0.259-0.28-0.756-1.029-0.728-1.078l0.266-0.168 1.050-0.609 0.791-0.462 0.182 0.245c0.231 0.364 0.749 0.854 1.050 1.022 0.91 0.469 2.128 0.406 2.73-0.14 0.259-0.238 0.371-0.49 0.371-0.84 0-0.322-0.049-0.469-0.21-0.714-0.224-0.308-0.672-0.56-1.932-1.12-1.449-0.616-2.065-1.008-2.639-1.61-0.329-0.364-0.63-0.931-0.77-1.4-0.105-0.406-0.14-1.4-0.042-1.799 0.301-1.4 1.358-2.38 2.87-2.66 0.49-0.098 1.645-0.056 2.128 0.070l-0.014 0.014z"></path>
</symbol>
<symbol id="icon-css_3" viewBox="0 0 32 32">
<path fill="#1172b8" style="fill: var(--color3, #1172b8)" d="M6 28l-2-25h24l-2 25-10 3-10-3z"></path>
<path fill="#3ad" style="fill: var(--color4, #3ad)" d="M26 5h-10v24.5l8-2.5 2-22z"></path>
<path fill="#fff" style="fill: var(--color1, #fff)" d="M19.5 17.5h-10l-0.5-3.5 8-2.5h-8l-0.5-3h15.5l-0.5 3.5-6.5 2.5h6l-1 9.5-6 2-6-2-0.5-5h3l0.5 2.5 3 1 3-1 0.5-4z"></path>
</symbol>
<symbol id="icon-html_5" viewBox="0 0 32 32">
<path fill="#e44d26" style="fill: var(--color5, #e44d26)" d="M6 28l-2-25h24l-2 25-10 3-10-3z"></path>
<path fill="#f16529" style="fill: var(--color6, #f16529)" d="M26 5h-10v24.5l8-2.5 2-22z"></path>
<path fill="#fff" style="fill: var(--color1, #fff)" d="M9.5 17.5l-1-9.5h15.5l-0.5 3h-12l0.5 3.5h11l-1 9.5-6 2-6-2-0.5-5h3l0.5 2.5 3 1 3-1 0.5-4h-10z"></path>
</symbol>
<symbol id="icon-react" viewBox="0 0 32 32">
<path fill="#53c1de" style="fill: var(--color7, #53c1de)" d="M18.679 15.976c0-1.434-1.199-2.597-2.679-2.597s-2.679 1.163-2.679 2.597c0 1.435 1.199 2.597 2.679 2.597s2.679-1.163 2.679-2.598z"></path>
<path fill="#53c1de" style="fill: var(--color7, #53c1de)" d="M24.7 11.154c0.566-2.229 1.277-6.362-1.23-7.764-2.495-1.395-5.742 1.278-7.456 2.883-1.71-1.589-5.048-4.251-7.552-2.845-2.494 1.4-1.725 5.465-1.147 7.708-2.327 0.641-6.315 2.021-6.315 4.84 0 2.812 3.984 4.313 6.297 4.953-0.58 2.255-1.311 6.262 1.186 7.659 2.514 1.406 5.842-1.193 7.572-2.815 1.726 1.614 4.941 4.23 7.437 2.829 2.503-1.405 1.851-5.483 1.273-7.739 2.242-0.641 6.235-2.11 6.235-4.886 0-2.792-4.010-4.184-6.3-4.822zM24.416 19.667c-0.38-1.165-0.892-2.405-1.519-3.685 0.598-1.25 1.091-2.473 1.46-3.631 1.679 0.472 5.361 1.55 5.361 3.625 0 2.094-3.534 3.183-5.302 3.691zM22.85 27.526c-1.862 1.045-4.628-1.456-5.902-2.645 0.845-0.896 1.69-1.939 2.515-3.096 1.45-0.125 2.821-0.329 4.063-0.607 0.407 1.596 1.195 5.298-0.676 6.348zM9.124 27.511c-1.862-1.041-1.011-4.616-0.584-6.278 1.229 0.263 2.589 0.453 4.043 0.567 0.83 1.132 1.699 2.173 2.575 3.085-1.082 1.015-4.163 3.671-6.034 2.625zM2.281 15.976c0-2.102 3.661-3.173 5.378-3.643 0.375 1.184 0.868 2.422 1.462 3.674-0.602 1.27-1.101 2.528-1.48 3.726-1.637-0.454-5.359-1.653-5.359-3.756zM9.104 4.504c1.87-1.049 4.771 1.506 6.012 2.657-0.871 0.907-1.733 1.94-2.556 3.066-1.411 0.127-2.762 0.33-4.003 0.603-0.466-1.809-1.321-5.278 0.547-6.326zM20.379 11.577c0.957 0.117 1.874 0.273 2.736 0.464-0.259 0.803-0.581 1.643-0.96 2.505-0.55-1.012-1.141-2.004-1.775-2.968zM16.014 8.048c0.591 0.621 1.183 1.314 1.765 2.066-1.181-0.054-2.364-0.054-3.546-0.001 0.583-0.745 1.18-1.438 1.78-2.066zM9.857 14.544c-0.373-0.858-0.693-1.702-0.953-2.517 0.856-0.186 1.769-0.338 2.72-0.453-0.636 0.962-1.226 1.954-1.767 2.97zM11.65 20.466c-0.982-0.106-1.909-0.25-2.765-0.431 0.265-0.829 0.591-1.691 0.972-2.568 0.548 1.026 1.147 2.027 1.792 2.999zM16.050 23.991c-0.607-0.635-1.213-1.338-1.805-2.094 1.188 0.045 2.378 0.045 3.566-0.006-0.584 0.77-1.174 1.474-1.761 2.1zM22.167 17.422c0.401 0.886 0.739 1.744 1.007 2.559-0.87 0.192-1.809 0.347-2.799 0.462 0.639-0.983 1.239-1.99 1.791-3.021zM18.747 20.594c-1.817 0.126-3.646 0.125-5.463 0.010-1.033-1.463-1.952-3.001-2.746-4.599 0.79-1.594 1.703-3.129 2.731-4.59 1.819-0.133 3.649-0.134 5.468 0.001 1.019 1.461 1.931 2.992 2.739 4.572-0.799 1.593-1.716 3.132-2.728 4.606zM22.83 4.467c1.87 1.046 1.038 4.761 0.629 6.376-1.245-0.278-2.596-0.486-4.011-0.614-0.824-1.138-1.678-2.173-2.536-3.069 1.257-1.175 4.066-3.729 5.918-2.693z"></path>
</symbol>
<symbol id="icon-js" viewBox="0 0 32 32">
<path fill="#ffca28" style="fill: var(--color8, #ffca28)" d="M2 2h28v28h-28v-28z"></path>
<path fill="#3e3e3e" style="fill: var(--color9, #3e3e3e)" d="M19 25.287l2.062-1.364c0.161 0.507 1.185 1.713 2.477 1.713s1.892-0.706 1.892-1.174c0-1.275-1.32-1.725-1.953-1.941-0.103-0.035-0.188-0.064-0.247-0.090-0.030-0.013-0.075-0.030-0.133-0.052-0.705-0.269-3.306-1.263-3.306-4.143 0-3.172 3.062-3.537 3.754-3.537 0.453 0 2.631 0.055 3.715 2.094l-2 1.396c-0.439-0.888-1.167-1.182-1.615-1.182-1.108 0-1.338 0.812-1.338 1.182 0 1.037 1.203 1.502 2.22 1.895 0.266 0.103 0.519 0.2 0.734 0.302 1.108 0.523 2.738 1.38 2.738 4.076 0 1.351-1.133 3.537-3.985 3.537-3.831 0-4.846-2.3-5.015-2.712z"></path>
<path fill="#3e3e3e" style="fill: var(--color9, #3e3e3e)" d="M9 25.558l2.149-1.363c0.168 0.507 0.823 1.443 1.772 1.443s1.435-0.975 1.435-1.443v-9.195h2.643v9.195c0.043 1.268-0.661 3.805-3.765 3.805-2.854 0-4.041-1.696-4.233-2.441z"></path>
</symbol>
<symbol id="icon-chevron-left" viewBox="0 0 32 32">
<path stroke-linejoin="round" stroke-linecap="round" stroke-miterlimit="4" stroke-width="2.6667" d="M20 24l-8-8 8-8"></path>
</symbol>
<symbol id="icon-fullscreen" viewBox="0 0 32 32">
<path fill="none"  stroke-linejoin="round" stroke-linecap="round" stroke-miterlimit="4" stroke-width="2.6667" d="M4 9.333v-2.667c0-0.707 0.281-1.386 0.781-1.886s1.178-0.781 1.886-0.781h2.667M22.667 4h2.667c0.707 0 1.385 0.281 1.886 0.781s0.781 1.178 0.781 1.886v2.667M28 22.667v2.667c0 0.707-0.281 1.385-0.781 1.886s-1.178 0.781-1.886 0.781h-2.667M9.333 28h-2.667c-0.707 0-1.386-0.281-1.886-0.781s-0.781-1.178-0.781-1.886v-2.667M10.667 10.667h10.667c0.736 0 1.333 0.597 1.333 1.333v8c0 0.736-0.597 1.333-1.333 1.333h-10.667c-0.736 0-1.333-0.597-1.333-1.333v-8c0-0.736 0.597-1.333 1.333-1.333z"></path>
</symbol>
<symbol id="icon-link" viewBox="0 0 32 32">
<path fill="none"  stroke-linejoin="round" stroke-linecap="round" stroke-miterlimit="4" stroke-width="2.6667" d="M13.333 17.333c0.573 0.765 1.303 1.399 2.142 1.857s1.767 0.731 2.72 0.799c0.953 0.068 1.911-0.069 2.806-0.403s1.709-0.857 2.385-1.533l4-4c1.214-1.257 1.886-2.941 1.871-4.689s-0.716-3.42-1.952-4.656c-1.236-1.236-2.908-1.937-4.656-1.952s-3.432 0.657-4.689 1.871l-2.293 2.28M18.667 14.667c-0.573-0.765-1.303-1.399-2.142-1.857s-1.767-0.731-2.72-0.799c-0.954-0.068-1.911 0.069-2.806 0.403s-1.709 0.857-2.385 1.533l-4 4c-1.214 1.257-1.886 2.941-1.871 4.689s0.716 3.42 1.952 4.656c1.236 1.236 2.908 1.937 4.656 1.952s3.432-0.657 4.689-1.871l2.28-2.28"></path>
</symbol>
<symbol id="icon-time" viewBox="0 0 32 32">
<path stroke-linejoin="round" stroke-linecap="round" stroke-miterlimit="4" stroke-width="3" d="M16 8v8l5.333 2.667M29.333 16c0 7.364-5.97 13.333-13.333 13.333s-13.333-5.97-13.333-13.333c0-7.364 5.97-13.333 13.333-13.333s13.333 5.97 13.333 13.333z"></path>
</symbol>
<symbol id="icon-trash" viewBox="0 0 32 32">
<path stroke-linejoin="round" stroke-linecap="round" stroke-miterlimit="4" stroke-width="2.7826" d="M4.522 8.348h22.957M24.928 8.348v17.855c0 1.275-1.275 2.551-2.551 2.551h-12.754c-1.275 0-2.551-1.275-2.551-2.551v-17.855M10.899 8.348v-2.551c0-1.275 1.275-2.551 2.551-2.551h5.101c1.275 0 2.551 1.275 2.551 2.551v2.551M13.449 14.725v7.652M18.551 14.725v7.652"></path>
</symbol>
<symbol id="icon-cross" viewBox="0 0 32 32">
<path stroke-linejoin="round" stroke-linecap="round" stroke-miterlimit="4" stroke-width="3.1429" d="M24 8l-16 16M8 8l16 16"></path>
</symbol>
<symbol id="icon-menu" viewBox="0 0 32 32">
<path stroke-linejoin="round" stroke-linecap="round" stroke-miterlimit="4" stroke-width="3.2727" d="M5.333 16h21.333M5.333 8h21.333M5.333 24h21.333"></path>
</symbol>
<symbol id="icon-anglais" viewBox="0 0 32 32">
<path fill="#fff" style="fill: var(--color1, #fff)" d="M16 32c8.837 0 16-7.163 16-16s-7.163-16-16-16c-8.837 0-16 7.163-16 16s7.163 16 16 16z"></path>
<path fill="#d80027" style="fill: var(--color10, #d80027)" d="M31.865 13.913h-13.777v-13.778c-0.683-0.089-1.38-0.135-2.087-0.135s-1.404 0.046-2.087 0.135v13.778h-13.778c-0.089 0.683-0.135 1.38-0.135 2.087s0.046 1.404 0.135 2.087h13.778v13.778c0.683 0.089 1.38 0.135 2.087 0.135s1.404-0.046 2.087-0.135v-13.777h13.778c0.089-0.683 0.135-1.38 0.135-2.087s-0.047-1.404-0.135-2.087z"></path>
</symbol>
<symbol id="icon-franais" viewBox="0 0 32 32">
<path fill="#fff" style="fill: var(--color1, #fff)" d="M16 32c8.837 0 16-7.163 16-16s-7.163-16-16-16c-8.837 0-16 7.163-16 16s7.163 16 16 16z"></path>
<path fill="#d80027" style="fill: var(--color10, #d80027)" d="M32 16c0-6.879-4.342-12.744-10.435-15.005v30.010c6.093-2.261 10.435-8.125 10.435-15.005z"></path>
<path fill="#0052b4" style="fill: var(--color11, #0052b4)" d="M0 16c0 6.879 4.342 12.744 10.435 15.005v-30.010c-6.093 2.261-10.435 8.125-10.435 15.005z"></path>
</symbol>
<symbol id="icon-chevron-down" viewBox="0 0 32 32">
<path stroke-linejoin="round" stroke-linecap="round" stroke-miterlimit="4" stroke-width="2.9091" d="M8 12l8 8 8-8"></path>
</symbol>
<symbol id="icon-plus" viewBox="0 0 32 32">
<path stroke-linejoin="round" stroke-linecap="round" stroke-miterlimit="4" stroke-width="2.4" d="M8.533 16h14.933M16 8.533v14.933"></path>
</symbol>
<symbol id="icon-sun" viewBox="0 0 32 32">
<path fill="none" stroke="#fff" style="stroke: var(--color1, #fff)" stroke-linejoin="round" stroke-linecap="round" stroke-miterlimit="4" stroke-width="3.2727" d="M16 2.667v2.667M16 26.667v2.667M6.573 6.574l1.88 1.88M23.546 23.547l1.88 1.88M2.667 16h2.667M26.667 16h2.667M8.453 23.547l-1.88 1.88M25.426 6.574l-1.88 1.88M21.333 16c0 2.945-2.388 5.333-5.333 5.333s-5.333-2.388-5.333-5.333c0-2.946 2.388-5.333 5.333-5.333s5.333 2.388 5.333 5.333z"></path>
</symbol>
<symbol id="icon-moon-star" viewBox="0 0 32 32">
<path stroke-linejoin="round" stroke-linecap="round" stroke-miterlimit="4" stroke-width="2.6667" d="M25.333 4v5.333M28 6.667h-5.333M16 4c-1.591 1.591-2.485 3.75-2.485 6s0.894 4.409 2.485 6c1.591 1.591 3.75 2.485 6 2.485s4.409-0.894 6-2.485c0 2.373-0.704 4.693-2.022 6.667s-3.193 3.511-5.385 4.42c-2.193 0.908-4.606 1.146-6.933 0.683s-4.466-1.606-6.144-3.284c-1.678-1.678-2.821-3.817-3.284-6.144s-0.225-4.741 0.683-6.933c0.908-2.193 2.446-4.067 4.42-5.385s4.293-2.022 6.667-2.022z"></path>
</symbol>
<symbol id="icon-arrow-right" viewBox="0 0 32 32">
<path stroke-linejoin="round" stroke-linecap="round" stroke-miterlimit="4" stroke-width="2.6667" d="M6.667 16h18.667M25.333 16l-9.333-9.333M25.333 16l-9.333 9.333"></path>
</symbol>
<symbol id="icon-linkedin" viewBox="0 0 32 32">
<path fill="#1275b1" style="fill: var(--color12, #1275b1)" d="M16 2c7.732 0 14 6.268 14 14s-6.268 14-14 14c-7.732 0-14-6.268-14-14s6.268-14 14-14z"></path>
<path fill="#fff" style="fill: var(--color1, #fff)" d="M12.619 9.692c0 0.935-0.81 1.692-1.809 1.692s-1.809-0.758-1.809-1.692c0-0.935 0.81-1.692 1.809-1.692s1.809 0.758 1.809 1.692z"></path>
<path fill="#fff" style="fill: var(--color1, #fff)" d="M9.247 12.628h3.093v9.372h-3.093v-9.372z"></path>
<path fill="#fff" style="fill: var(--color1, #fff)" d="M17.32 12.628h-3.093v9.372h3.093c0 0 0-2.95 0-4.795 0-1.107 0.378-2.219 1.887-2.219 1.705 0 1.695 1.449 1.687 2.571-0.010 1.467 0.014 2.965 0.014 4.443h3.093v-4.946c-0.026-3.158-0.849-4.614-3.557-4.614-1.608 0-2.605 0.73-3.124 1.39v-1.202z"></path>
</symbol>
<symbol id="icon-github" viewBox="0 0 32 32">
<path stroke-linejoin="round" stroke-linecap="round" stroke-miterlimit="4" stroke-width="2.6667" d="M20 29.333v-5.333c0.186-1.67-0.293-3.347-1.333-4.667 4 0 8-2.667 8-7.333 0.107-1.667-0.36-3.307-1.333-4.667 0.373-1.533 0.373-3.133 0-4.667 0 0-1.333 0-4 2-3.52-0.667-7.147-0.667-10.667 0-2.667-2-4-2-4-2-0.4 1.533-0.4 3.133 0 4.667-0.971 1.355-1.442 3.004-1.333 4.667 0 4.667 4 7.333 8 7.333-0.52 0.653-0.907 1.4-1.133 2.2s-0.293 1.64-0.2 2.467M12 24v5.333M12 24c-6.013 2.667-6.667-2.667-9.333-2.667"></path>
</symbol>
</defs>
</svg>
